NotoSansDevanagari-Regular.ufo
<glyph name="parenleft.deva" format="2">
  <advance width="354"/>
  <unicode hex="0028"/>
  <outline>
    <contour>
      <point x="213" y="-165" type="curve"/>
      <point x="295" y="-165" type="line"/>
      <point x="201" y="-20"/>
      <point x="153" y="159"/>
      <point x="153" y="336" type="curve" smooth="yes"/>
      <point x="153" y="517"/>
      <point x="203" y="691"/>
      <point x="294" y="832" type="curve"/>
      <point x="213" y="832" type="line"/>
      <point x="112" y="696"/>
      <point x="68" y="523"/>
      <point x="68" y="337" type="curve" smooth="yes"/>
      <point x="68" y="153"/>
      <point x="113" y="-28"/>
    </contour>
  </outline>
</glyph>
<glyph name="plus.deva" format="2">
  <advance width="551"/>
  <unicode hex="002B"/>
  <outline>
    <contour>
      <point x="239" y="286" type="line"/>
      <point x="239" y="97" type="line"/>
      <point x="312" y="97" type="line"/>
      <point x="312" y="286" type="line"/>
      <point x="501" y="286" type="line"/>
      <point x="501" y="359" type="line"/>
      <point x="312" y="359" type="line"/>
      <point x="312" y="548" type="line"/>
      <point x="239" y="548" type="line"/>
      <point x="239" y="359" type="line"/>
      <point x="50" y="359" type="line"/>
      <point x="50" y="286" type="line"/>
    </contour>
  </outline>
</glyph>
<glyph name="comma.deva" format="2">
  <advance width="268"/>
  <unicode hex="002C"/>
  <outline>
    <contour>
      <point x="46" y="-129" type="curve"/>
      <point x="113" y="-129" type="line"/>
      <point x="146" y="-56"/>
      <point x="181" y="34"/>
      <point x="199" y="105" type="curve"/>
      <point x="192" y="116" type="line"/>
      <point x="95" y="116" type="line"/>
      <point x="85" y="47"/>
      <point x="66" y="-50"/>
    </contour>
  </outline>
</glyph>
<glyph name="hyphen.deva" format="2">
  <advance width="340"/>
  <unicode hex="002D"/>
  <outline>
    <contour>
      <point x="49" y="338" type="line"/>
      <point x="49" y="256" type="line"/>
      <point x="291" y="256" type="line"/>
      <point x="291" y="338" type="line"/>
    </contour>
  </outline>
</glyph>
<glyph name="slash.deva" format="2">
  <advance width="429"/>
  <unicode hex="002F"/>
  <outline>
    <contour>
      <point x="305" y="833" type="line"/>
      <point x="42" y="-166" type="line"/>
      <point x="125" y="-166" type="line"/>
      <point x="387" y="833" type="line"/>
    </contour>
  </outline>
</glyph>
<glyph name="two.deva" format="2">
  <advance width="551"/>
  <unicode hex="0032"/>
  <outline>
    <contour>
      <point x="47" y="76" type="line"/>
      <point x="47" y="0" type="line"/>
      <point x="492" y="0" type="line"/>
      <point x="492" y="81" type="line"/>
      <point x="156" y="81" type="line"/>
      <point x="156" y="85" type="line"/>
      <point x="293" y="231" type="line" smooth="yes"/>
      <point x="392" y="336"/>
      <point x="464" y="422"/>
      <point x="464" y="533" type="curve" smooth="yes"/>
      <point x="464" y="652"/>
      <point x="385" y="724"/>
      <point x="260" y="724" type="curve" smooth="yes"/>
      <point x="175" y="724"/>
      <point x="106" y="687"/>
      <point x="54" y="640" type="curve"/>
      <point x="104" y="582" type="line"/>
      <point x="149" y="621"/>
      <point x="197" y="649"/>
      <point x="259" y="649" type="curve" smooth="yes"/>
      <point x="327" y="649"/>
      <point x="374" y="606"/>
      <point x="374" y="530" type="curve" smooth="yes"/>
      <point x="374" y="431"/>
      <point x="315" y="367"/>
      <point x="218" y="262" type="curve" smooth="yes"/>
    </contour>
  </outline>
</glyph>
<glyph name="three.deva" format="2">
  <advance width="551"/>
  <unicode hex="0033"/>
  <outline>
    <contour>
      <point x="229" y="-10" type="curve" smooth="yes"/>
      <point x="408" y="-10"/>
      <point x="491" y="78"/>
      <point x="491" y="203" type="curve" smooth="yes"/>
      <point x="491" y="297"/>
      <point x="430" y="359"/>
      <point x="315" y="373" type="curve"/>
      <point x="315" y="376" type="line"/>
      <point x="407" y="392"/>
      <point x="469" y="451"/>
      <point x="469" y="547" type="curve" smooth="yes"/>
      <point x="469" y="650"/>
      <point x="396" y="724"/>
      <point x="256" y="724" type="curve" smooth="yes"/>
      <point x="165" y="724"/>
      <point x="92" y="691"/>
      <point x="43" y="651" type="curve"/>
      <point x="88" y="590" type="line"/>
      <point x="136" y="625"/>
      <point x="186" y="649"/>
      <point x="256" y="649" type="curve" smooth="yes"/>
      <point x="329" y="649"/>
      <point x="378" y="609"/>
      <point x="378" y="541" type="curve" smooth="yes"/>
      <point x="378" y="461"/>
      <point x="320" y="406"/>
      <point x="214" y="406" type="curve" smooth="yes"/>
      <point x="149" y="406" type="line"/>
      <point x="149" y="332" type="line"/>
      <point x="214" y="332" type="line" smooth="yes"/>
      <point x="329" y="332"/>
      <point x="400" y="294"/>
      <point x="400" y="206" type="curve" smooth="yes"/>
      <point x="400" y="118"/>
      <point x="347" y="65"/>
      <point x="227" y="65" type="curve" smooth="yes"/>
      <point x="166" y="65"/>
      <point x="97" y="82"/>
      <point x="40" y="112" type="curve"/>
      <point x="40" y="29" type="line"/>
      <point x="95" y="0"/>
      <point x="158" y="-10"/>
    </contour>
  </outline>
</glyph>
<glyph name="seven.deva" format="2">
  <advance width="551"/>
  <unicode hex="0037"/>
  <outline>
    <contour>
      <point x="412" y="633" type="line"/>
      <point x="137" y="0" type="line"/>
      <point x="232" y="0" type="line"/>
      <point x="503" y="643" type="line"/>
      <point x="503" y="714" type="line"/>
      <point x="44" y="714" type="line"/>
      <point x="44" y="633" type="line"/>
    </contour>
  </outline>
</glyph>
<glyph name="semicolon.deva" format="2">
  <advance width="294"/>
  <unicode hex="003B"/>
  <outline>
    <contour>
      <point x="190" y="116" type="line"/>
      <point x="93" y="116" type="line"/>
      <point x="83" y="47"/>
      <point x="64" y="-50"/>
      <point x="44" y="-129" type="curve"/>
      <point x="111" y="-129" type="line"/>
      <point x="144" y="-56"/>
      <point x="179" y="34"/>
      <point x="197" y="105" type="curve"/>
    </contour>
    <contour>
      <point x="147" y="414" type="curve" smooth="yes"/>
      <point x="181" y="414"/>
      <point x="209" y="434"/>
      <point x="209" y="482" type="curve" smooth="yes"/>
      <point x="209" y="533"/>
      <point x="181" y="550"/>
      <point x="147" y="550" type="curve" smooth="yes"/>
      <point x="112" y="550"/>
      <point x="85" y="533"/>
      <point x="85" y="482" type="curve" smooth="yes"/>
      <point x="85" y="434"/>
      <point x="112" y="414"/>
    </contour>
  </outline>
</glyph>
<glyph name="less.deva" format="2">
  <advance width="551"/>
  <unicode hex="003C"/>
  <outline>
    <contour>
      <point x="50" y="284" type="line"/>
      <point x="501" y="77" type="line"/>
      <point x="501" y="155" type="line"/>
      <point x="142" y="313" type="line"/>
      <point x="501" y="490" type="line"/>
      <point x="501" y="568" type="line"/>
      <point x="50" y="333" type="line"/>
    </contour>
  </outline>
</glyph>
<glyph name="greater.deva" format="2">
  <advance width="551"/>
  <unicode hex="003E"/>
  <outline>
    <contour>
      <point x="50" y="155" type="line"/>
      <point x="50" y="77" type="line"/>
      <point x="501" y="284" type="line"/>
      <point x="501" y="333" type="line"/>
      <point x="50" y="568" type="line"/>
      <point x="50" y="490" type="line"/>
      <point x="409" y="313" type="line"/>
    </contour>
  </outline>
</glyph>
<glyph name="underscore.deva" format="2">
  <advance width="411"/>
  <unicode hex="005F"/>
  <outline>
    <contour>
      <point x="-2" y="-90" type="line"/>
      <point x="-2" y="-158" type="line"/>
      <point x="413" y="-158" type="line"/>
      <point x="413" y="-90" type="line"/>
    </contour>
  </outline>
</glyph>
<glyph name="braceleft.deva" format="2">
  <advance width="391"/>
  <unicode hex="007B"/>
  <outline>
    <contour>
      <point x="44" y="370" type="curve"/>
      <point x="44" y="296" type="line"/>
      <point x="124" y="296"/>
      <point x="167" y="271"/>
      <point x="167" y="206" type="curve" smooth="yes"/>
      <point x="167" y="-25" type="line" smooth="yes"/>
      <point x="167" y="-125"/>
      <point x="239" y="-164"/>
      <point x="337" y="-166" type="curve"/>
      <point x="337" y="-94" type="line"/>
      <point x="282" y="-92"/>
      <point x="248" y="-80"/>
      <point x="248" y="-18" type="curve" smooth="yes"/>
      <point x="248" y="211" type="line" smooth="yes"/>
      <point x="248" y="279"/>
      <point x="211" y="317"/>
      <point x="142" y="330" type="curve"/>
      <point x="142" y="335" type="line"/>
      <point x="211" y="349"/>
      <point x="248" y="388"/>
      <point x="248" y="455" type="curve" smooth="yes"/>
      <point x="248" y="685" type="line" smooth="yes"/>
      <point x="248" y="746"/>
      <point x="282" y="759"/>
      <point x="337" y="760" type="curve"/>
      <point x="337" y="832" type="line"/>
      <point x="239" y="830"/>
      <point x="167" y="791"/>
      <point x="167" y="691" type="curve" smooth="yes"/>
      <point x="167" y="460" type="line" smooth="yes"/>
      <point x="167" y="395"/>
      <point x="124" y="370"/>
    </contour>
  </outline>
</glyph>
<glyph name="braceright.deva" format="2">
  <advance width="376"/>
  <unicode hex="007D"/>
  <outline>
    <contour>
      <point x="347" y="296" type="curve"/>
      <point x="347" y="370" type="line"/>
      <point x="267" y="370"/>
      <point x="225" y="395"/>
      <point x="225" y="460" type="curve" smooth="yes"/>
      <point x="225" y="691" type="line" smooth="yes"/>
      <point x="225" y="791"/>
      <point x="152" y="830"/>
      <point x="54" y="832" type="curve"/>
      <point x="54" y="760" type="line"/>
      <point x="110" y="759"/>
      <point x="143" y="746"/>
      <point x="143" y="685" type="curve" smooth="yes"/>
      <point x="143" y="455" type="line" smooth="yes"/>
      <point x="143" y="388"/>
      <point x="179" y="349"/>
      <point x="249" y="335" type="curve"/>
      <point x="249" y="330" type="line"/>
      <point x="179" y="317"/>
      <point x="143" y="279"/>
      <point x="143" y="211" type="curve" smooth="yes"/>
      <point x="143" y="-18" type="line" smooth="yes"/>
      <point x="143" y="-80"/>
      <point x="110" y="-92"/>
      <point x="54" y="-94" type="curve"/>
      <point x="54" y="-166" type="line"/>
      <point x="152" y="-164"/>
      <point x="225" y="-125"/>
      <point x="225" y="-25" type="curve" smooth="yes"/>
      <point x="225" y="206" type="line" smooth="yes"/>
      <point x="225" y="271"/>
      <point x="267" y="296"/>
    </contour>
  </outline>
</glyph>
<glyph name="binducandradeva" format="2">
  <unicode hex="0900"/>
  <outline>
    <contour>
      <point x="-352" y="713" type="curve"/>
      <point x="-278" y="688" type="line"/>
      <point x="-256" y="777"/>
      <point x="-225" y="830"/>
      <point x="-147" y="830" type="curve" smooth="yes"/>
      <point x="-76" y="830"/>
      <point x="-35" y="784"/>
      <point x="0" y="689" type="curve"/>
      <point x="69" y="713" type="line"/>
      <point x="24" y="840"/>
      <point x="-49" y="896"/>
      <point x="-145" y="896" type="curve" smooth="yes"/>
      <point x="-247" y="896"/>
      <point x="-320" y="848"/>
    </contour>
    <contour>
      <point x="-94" y="730" type="curve" smooth="yes"/>
      <point x="-94" y="758"/>
      <point x="-117" y="780"/>
      <point x="-144" y="780" type="curve" smooth="yes"/>
      <point x="-171" y="780"/>
      <point x="-194" y="758"/>
      <point x="-194" y="730" type="curve" smooth="yes"/>
      <point x="-194" y="702"/>
      <point x="-171" y="680"/>
      <point x="-144" y="680" type="curve" smooth="yes"/>
      <point x="-117" y="680"/>
      <point x="-94" y="702"/>
    </contour>
  </outline>
</glyph>
<glyph name="candrabindudeva" format="2">
  <unicode hex="0901"/>
  <outline>
    <contour>
      <point x="-188" y="847" type="curve" smooth="yes"/>
      <point x="-188" y="819"/>
      <point x="-166" y="797"/>
      <point x="-139" y="797" type="curve" smooth="yes"/>
      <point x="-111" y="797"/>
      <point x="-89" y="819"/>
      <point x="-89" y="847" type="curve" smooth="yes"/>
      <point x="-89" y="875"/>
      <point x="-111" y="896"/>
      <point x="-139" y="896" type="curve" smooth="yes"/>
      <point x="-166" y="896"/>
      <point x="-188" y="875"/>
    </contour>
    <contour>
      <point x="69" y="863" type="curve"/>
      <point x="-5" y="889" type="line"/>
      <point x="-27" y="799"/>
      <point x="-58" y="747"/>
      <point x="-135" y="747" type="curve" smooth="yes"/>
      <point x="-207" y="747"/>
      <point x="-248" y="793"/>
      <point x="-283" y="887" type="curve"/>
      <point x="-352" y="863" type="line"/>
      <point x="-307" y="737"/>
      <point x="-234" y="680"/>
      <point x="-138" y="680" type="curve" smooth="yes"/>
      <point x="-36" y="680"/>
      <point x="38" y="729"/>
    </contour>
  </outline>
</glyph>
<glyph name="anusvaradeva" format="2">
  <unicode hex="0902"/>
  <outline>
    <contour>
      <point x="-185" y="772" type="curve" smooth="yes"/>
      <point x="-185" y="740"/>
      <point x="-160" y="714"/>
      <point x="-130" y="714" type="curve" smooth="yes"/>
      <point x="-100" y="714"/>
      <point x="-75" y="740"/>
      <point x="-75" y="772" type="curve" smooth="yes"/>
      <point x="-75" y="804"/>
      <point x="-100" y="830"/>
      <point x="-130" y="830" type="curve" smooth="yes"/>
      <point x="-160" y="830"/>
      <point x="-185" y="804"/>
    </contour>
  </outline>
</glyph>
<glyph name="visargadeva" format="2">
  <advance width="272"/>
  <unicode hex="0903"/>
  <outline>
    <contour>
      <point x="78" y="118" type="curve" smooth="yes"/>
      <point x="78" y="83"/>
      <point x="105" y="54"/>
      <point x="139" y="54" type="curve" smooth="yes"/>
      <point x="172" y="54"/>
      <point x="200" y="83"/>
      <point x="200" y="118" type="curve" smooth="yes"/>
      <point x="200" y="153"/>
      <point x="172" y="182"/>
      <point x="139" y="182" type="curve" smooth="yes"/>
      <point x="105" y="182"/>
      <point x="78" y="153"/>
    </contour>
    <contour>
      <point x="78" y="435" type="curve" smooth="yes"/>
      <point x="78" y="400"/>
      <point x="105" y="371"/>
      <point x="139" y="371" type="curve" smooth="yes"/>
      <point x="172" y="371"/>
      <point x="200" y="400"/>
      <point x="200" y="435" type="curve" smooth="yes"/>
      <point x="200" y="470"/>
      <point x="172" y="499"/>
      <point x="139" y="499" type="curve" smooth="yes"/>
      <point x="105" y="499"/>
      <point x="78" y="470"/>
    </contour>
  </outline>
</glyph>
<glyph name="aadeva" format="2">
  <advance width="1023"/>
  <unicode hex="0906"/>
  <outline>
    <contour>
      <point x="675" y="551" type="line"/>
      <point x="779" y="551" type="line"/>
      <point x="779" y="622" type="line"/>
      <point x="521" y="622" type="line"/>
      <point x="521" y="551" type="line"/>
      <point x="594" y="551" type="line"/>
      <point x="594" y="0" type="line"/>
      <point x="675" y="0" type="line"/>
    </contour>
    <contour>
      <point x="298" y="632" type="curve" smooth="yes"/>
      <point x="232" y="632"/>
      <point x="181" y="612"/>
      <point x="146" y="594" type="curve"/>
      <point x="171" y="525" type="line"/>
      <point x="216" y="548"/>
      <point x="252" y="562"/>
      <point x="302" y="562" type="curve" smooth="yes"/>
      <point x="343" y="562"/>
      <point x="380" y="542"/>
      <point x="380" y="494" type="curve" smooth="yes"/>
      <point x="380" y="444"/>
      <point x="346" y="414"/>
      <point x="255" y="411" type="curve"/>
      <point x="260" y="341" type="line"/>
      <point x="391" y="344"/>
      <point x="459" y="408"/>
      <point x="459" y="495" type="curve" smooth="yes"/>
      <point x="459" y="574"/>
      <point x="402" y="632"/>
    </contour>
    <contour>
      <point x="470" y="218" type="curve" smooth="yes"/>
      <point x="470" y="251"/>
      <point x="460" y="279"/>
      <point x="443" y="304" type="curve"/>
      <point x="438" y="323" type="line"/>
      <point x="424" y="345"/>
      <point x="399" y="370"/>
      <point x="380" y="386" type="curve"/>
      <point x="337" y="377" type="line"/>
      <point x="278" y="374" type="line"/>
      <point x="340" y="335"/>
      <point x="391" y="291"/>
      <point x="391" y="227" type="curve" smooth="yes"/>
      <point x="391" y="175"/>
      <point x="355" y="153"/>
      <point x="305" y="153" type="curve" smooth="yes"/>
      <point x="222" y="153"/>
      <point x="157" y="240"/>
      <point x="100" y="382" type="curve"/>
      <point x="29" y="356" type="line"/>
      <point x="113" y="159"/>
      <point x="197" y="80"/>
      <point x="312" y="80" type="curve" smooth="yes"/>
      <point x="401" y="80"/>
      <point x="470" y="125"/>
    </contour>
    <contour>
      <point x="486" y="350" type="curve" smooth="yes"/>
      <point x="441" y="350"/>
      <point x="398" y="356"/>
      <point x="359" y="365" type="curve"/>
      <point x="353" y="350" type="line"/>
      <point x="400" y="294" type="line"/>
      <point x="415" y="288"/>
      <point x="468" y="279"/>
      <point x="498" y="279" type="curve" smooth="yes"/>
      <point x="553" y="279"/>
      <point x="594" y="285"/>
      <point x="651" y="310" type="curve"/>
      <point x="651" y="382" type="line"/>
      <point x="588" y="359"/>
      <point x="550" y="350"/>
    </contour>
    <contour>
      <point x="934" y="551" type="line"/>
      <point x="1038" y="551" type="line"/>
      <point x="1038" y="622" type="line"/>
      <point x="764" y="622" type="line"/>
      <point x="764" y="551" type="line"/>
      <point x="853" y="551" type="line"/>
      <point x="853" y="0" type="line"/>
      <point x="934" y="0" type="line"/>
    </contour>
  </outline>
</glyph>
<glyph name="ideva" format="2">
  <advance width="491"/>
  <unicode hex="0907"/>
  <outline>
    <contour>
      <point x="271" y="222" type="curve" smooth="yes"/>
      <point x="332" y="222"/>
      <point x="366" y="197"/>
      <point x="366" y="153" type="curve" smooth="yes"/>
      <point x="366" y="94"/>
      <point x="312" y="68"/>
      <point x="219" y="68" type="curve" smooth="yes"/>
      <point x="192" y="68"/>
      <point x="135" y="76"/>
      <point x="99" y="92" type="curve"/>
      <point x="135" y="28" type="line"/>
      <point x="204" y="-19"/>
      <point x="289" y="-67"/>
      <point x="382" y="-110" type="curve"/>
      <point x="415" y="-40" type="line"/>
      <point x="350" y="-20"/>
      <point x="289" y="2"/>
      <point x="241" y="25" type="curve"/>
      <point x="173" y="93"/>
      <point x="138" y="116"/>
      <point x="101" y="116" type="curve" smooth="yes"/>
      <point x="66" y="116"/>
      <point x="48" y="94"/>
      <point x="48" y="65" type="curve" smooth="yes"/>
      <point x="48" y="20"/>
      <point x="101" y="4"/>
      <point x="185" y="1" type="curve"/>
      <point x="199" y="0"/>
      <point x="214" y="0"/>
      <point x="230" y="0" type="curve" smooth="yes"/>
      <point x="365" y="0"/>
      <point x="447" y="52"/>
      <point x="447" y="154" type="curve" smooth="yes"/>
      <point x="447" y="240"/>
      <point x="374" y="294"/>
      <point x="275" y="294" type="curve" smooth="yes"/>
      <point x="240" y="294"/>
      <point x="204" y="288"/>
      <point x="174" y="277" type="curve"/>
      <point x="152" y="294"/>
      <point x="130" y="315"/>
      <point x="130" y="347" type="curve" smooth="yes"/>
      <point x="130" y="361"/>
      <point x="135" y="373"/>
      <point x="145" y="381" type="curve" smooth="yes"/>
      <point x="157" y="390"/>
      <point x="170" y="394"/>
      <point x="211" y="394" type="curve" smooth="yes"/>
      <point x="395" y="394" type="line"/>
      <point x="395" y="551" type="line"/>
      <point x="505" y="551" type="line"/>
      <point x="505" y="622" type="line"/>
      <point x="0" y="622" type="line"/>
      <point x="0" y="551" type="line"/>
      <point x="314" y="551" type="line"/>
      <point x="314" y="465" type="line"/>
      <point x="221" y="465" type="line" smooth="yes"/>
      <point x="155" y="465"/>
      <point x="117" y="456"/>
      <point x="87" y="433" type="curve" smooth="yes"/>
      <point x="64" y="416"/>
      <point x="50" y="389"/>
      <point x="50" y="352" type="curve" smooth="yes"/>
      <point x="50" y="284"/>
      <point x="98" y="234"/>
      <point x="161" y="197" type="curve"/>
      <point x="191" y="212"/>
      <point x="232" y="222"/>
    </contour>
  </outline>
</glyph>
<glyph name="udeva" format="2">
  <advance width="548"/>
  <unicode hex="0909"/>
  <outline>
    <contour>
      <point x="0" y="622" type="line"/>
      <point x="0" y="551" type="line"/>
      <point x="563" y="551" type="line"/>
      <point x="563" y="622" type="line"/>
    </contour>
    <contour>
      <point x="313" y="616" type="curve" smooth="yes"/>
      <point x="321" y="563" type="line"/>
      <point x="367" y="551"/>
      <point x="404" y="515"/>
      <point x="404" y="463" type="curve" smooth="yes"/>
      <point x="404" y="397"/>
      <point x="357" y="367"/>
      <point x="259" y="364" type="curve"/>
      <point x="264" y="294" type="line"/>
      <point x="405" y="297"/>
      <point x="485" y="364"/>
      <point x="485" y="464" type="curve" smooth="yes"/>
      <point x="485" y="544"/>
      <point x="414" y="609"/>
    </contour>
    <contour>
      <point x="387" y="345" type="curve"/>
      <point x="298" y="322" type="line"/>
      <point x="371" y="275"/>
      <point x="414" y="224"/>
      <point x="414" y="160" type="curve" smooth="yes"/>
      <point x="414" y="95"/>
      <point x="375" y="74"/>
      <point x="320" y="74" type="curve" smooth="yes"/>
      <point x="227" y="74"/>
      <point x="156" y="181"/>
      <point x="100" y="338" type="curve"/>
      <point x="29" y="313" type="line"/>
      <point x="117" y="84"/>
      <point x="214" y="0"/>
      <point x="328" y="0" type="curve" smooth="yes"/>
      <point x="424" y="0"/>
      <point x="499" y="51"/>
      <point x="499" y="152" type="curve" smooth="yes"/>
      <point x="499" y="242"/>
      <point x="441" y="300"/>
    </contour>
  </outline>
</glyph>
<glyph name="uudeva" format="2">
  <advance width="765"/>
  <unicode hex="090A"/>
  <outline>
    <contour>
      <point x="0" y="622" type="line"/>
      <point x="0" y="551" type="line"/>
      <point x="780" y="551" type="line"/>
      <point x="780" y="622" type="line"/>
    </contour>
    <contour>
      <point x="313" y="616" type="curve"/>
      <point x="321" y="563" type="line"/>
      <point x="367" y="551"/>
      <point x="404" y="515"/>
      <point x="404" y="463" type="curve" smooth="yes"/>
      <point x="404" y="397"/>
      <point x="357" y="367"/>
      <point x="259" y="364" type="curve"/>
      <point x="264" y="294" type="line"/>
      <point x="405" y="297"/>
      <point x="485" y="364"/>
      <point x="485" y="464" type="curve" smooth="yes"/>
      <point x="485" y="544"/>
      <point x="414" y="609"/>
    </contour>
    <contour>
      <point x="387" y="345" type="curve"/>
      <point x="298" y="322" type="line"/>
      <point x="371" y="275"/>
      <point x="414" y="224"/>
      <point x="414" y="160" type="curve" smooth="yes"/>
      <point x="414" y="95"/>
      <point x="375" y="74"/>
      <point x="320" y="74" type="curve" smooth="yes"/>
      <point x="227" y="74"/>
      <point x="156" y="181"/>
      <point x="100" y="338" type="curve"/>
      <point x="29" y="313" type="line"/>
      <point x="117" y="84"/>
      <point x="214" y="0"/>
      <point x="328" y="0" type="curve" smooth="yes"/>
      <point x="424" y="0"/>
      <point x="499" y="51"/>
      <point x="499" y="152" type="curve" smooth="yes"/>
      <point x="499" y="242"/>
      <point x="441" y="300"/>
    </contour>
    <contour>
      <point x="438" y="282" type="curve"/>
      <point x="444" y="185" type="line"/>
      <point x="487" y="238"/>
      <point x="527" y="264"/>
      <point x="565" y="264" type="curve" smooth="yes"/>
      <point x="611" y="264"/>
      <point x="641" y="239"/>
      <point x="641" y="181" type="curve" smooth="yes"/>
      <point x="641" y="127"/>
      <point x="617" y="79"/>
      <point x="584" y="41" type="curve"/>
      <point x="656" y="0" type="line"/>
      <point x="702" y="62"/>
      <point x="721" y="124"/>
      <point x="721" y="185" type="curve" smooth="yes"/>
      <point x="721" y="277"/>
      <point x="660" y="333"/>
      <point x="573" y="333" type="curve" smooth="yes"/>
      <point x="524" y="333"/>
      <point x="482" y="315"/>
    </contour>
  </outline>
</glyph>
<glyph name="rvocalicdeva" format="2">
  <advance width="853"/>
  <unicode hex="090B"/>
  <outline>
    <contour>
      <point x="462" y="551" type="line"/>
      <point x="867" y="551" type="line"/>
      <point x="867" y="622" type="line"/>
      <point x="0" y="622" type="line"/>
      <point x="0" y="551" type="line"/>
      <point x="382" y="551" type="line"/>
      <point x="382" y="0" type="line"/>
      <point x="462" y="0" type="line"/>
    </contour>
    <contour>
      <point x="27" y="417" type="curve"/>
      <point x="55" y="343" type="line"/>
      <point x="110" y="371"/>
      <point x="143" y="380"/>
      <point x="181" y="380" type="curve" smooth="yes"/>
      <point x="242" y="380"/>
      <point x="276" y="347"/>
      <point x="343" y="258" type="curve"/>
      <point x="382" y="266" type="line"/>
      <point x="403" y="298" type="line"/>
      <point x="317" y="415"/>
      <point x="266" y="456"/>
      <point x="179" y="456" type="curve" smooth="yes"/>
      <point x="120" y="456"/>
      <point x="72" y="438"/>
    </contour>
    <contour>
      <point x="127" y="65" type="line"/>
      <point x="408" y="251" type="line"/>
      <point x="369" y="307" type="line"/>
      <point x="80" y="132" type="line"/>
    </contour>
    <contour>
      <point x="442" y="328" type="curve"/>
      <point x="455" y="260" type="line"/>
      <point x="504" y="261"/>
      <point x="579" y="273"/>
      <point x="613" y="286" type="curve"/>
      <point x="625" y="259"/>
      <point x="655" y="209"/>
      <point x="671" y="184" type="curve"/>
      <point x="719" y="184" type="line"/>
      <point x="730" y="217" type="line"/>
      <point x="713" y="242"/>
      <point x="694" y="271"/>
      <point x="676" y="303" type="curve"/>
      <point x="702" y="314"/>
      <point x="724" y="336"/>
      <point x="724" y="373" type="curve" smooth="yes"/>
      <point x="724" y="417"/>
      <point x="692" y="450"/>
      <point x="641" y="450" type="curve" smooth="yes"/>
      <point x="607" y="450"/>
      <point x="574" y="430"/>
      <point x="574" y="387" type="curve" smooth="yes"/>
      <point x="574" y="370"/>
      <point x="579" y="354"/>
      <point x="588" y="338" type="curve"/>
      <point x="588" y="347" type="line"/>
      <point x="557" y="337"/>
      <point x="495" y="330"/>
    </contour>
    <contour>
      <point x="840" y="0" type="curve"/>
      <point x="814" y="70" type="line"/>
      <point x="769" y="46"/>
      <point x="743" y="37"/>
      <point x="701" y="37" type="curve" smooth="yes"/>
      <point x="660" y="37"/>
      <point x="621" y="56"/>
      <point x="621" y="102" type="curve" smooth="yes"/>
      <point x="621" y="146"/>
      <point x="649" y="173"/>
      <point x="719" y="184" type="curve"/>
      <point x="675" y="245" type="line"/>
      <point x="590" y="226"/>
      <point x="547" y="170"/>
      <point x="547" y="107" type="curve" smooth="yes"/>
      <point x="547" y="24"/>
      <point x="606" y="-34"/>
      <point x="707" y="-34" type="curve" smooth="yes"/>
      <point x="761" y="-34"/>
      <point x="805" y="-17"/>
    </contour>
  </outline>
</glyph>
<glyph name="lvocalicdeva" format="2">
  <advance width="699"/>
  <unicode hex="090C"/>
  <outline>
    <contour>
      <point x="714" y="551" type="line"/>
      <point x="714" y="622" type="line"/>
      <point x="0" y="622" type="line"/>
      <point x="0" y="551" type="line"/>
      <point x="470" y="551" type="line"/>
      <point x="470" y="413" type="line"/>
      <point x="550" y="378" type="line"/>
      <point x="550" y="551" type="line"/>
    </contour>
    <contour>
      <point x="204" y="426" type="curve" smooth="yes"/>
      <point x="131" y="426"/>
      <point x="45" y="381"/>
      <point x="45" y="275" type="curve" smooth="yes"/>
      <point x="45" y="169"/>
      <point x="138" y="87"/>
      <point x="255" y="-12" type="curve"/>
      <point x="309" y="40" type="line"/>
      <point x="192" y="137"/>
      <point x="126" y="195"/>
      <point x="126" y="271" type="curve" smooth="yes"/>
      <point x="126" y="319"/>
      <point x="155" y="353"/>
      <point x="209" y="353" type="curve" smooth="yes"/>
      <point x="260" y="353"/>
      <point x="296" y="327"/>
      <point x="337" y="292" type="curve"/>
      <point x="369" y="357" type="line"/>
      <point x="320" y="401"/>
      <point x="269" y="426"/>
    </contour>
    <contour>
      <point x="422" y="30" type="curve" smooth="yes"/>
      <point x="422" y="-54"/>
      <point x="482" y="-111"/>
      <point x="582" y="-111" type="curve" smooth="yes"/>
      <point x="636" y="-111"/>
      <point x="681" y="-95"/>
      <point x="715" y="-77" type="curve"/>
      <point x="690" y="-8" type="line"/>
      <point x="644" y="-31"/>
      <point x="619" y="-41"/>
      <point x="577" y="-41" type="curve" smooth="yes"/>
      <point x="536" y="-41"/>
      <point x="496" y="-21"/>
      <point x="496" y="24" type="curve" smooth="yes"/>
      <point x="496" y="72"/>
      <point x="533" y="101"/>
      <point x="615" y="114" type="curve"/>
      <point x="600" y="180" type="line"/>
      <point x="474" y="161"/>
      <point x="422" y="104"/>
    </contour>
    <contour>
      <point x="506" y="426" type="curve" smooth="yes"/>
      <point x="393" y="426"/>
      <point x="312" y="359"/>
      <point x="279" y="232" type="curve"/>
      <point x="356" y="208" type="line"/>
      <point x="391" y="329"/>
      <point x="446" y="356"/>
      <point x="496" y="356" type="curve" smooth="yes"/>
      <point x="543" y="356"/>
      <point x="575" y="328"/>
      <point x="575" y="268" type="curve" smooth="yes"/>
      <point x="575" y="212"/>
      <point x="553" y="172"/>
      <point x="530" y="133" type="curve"/>
      <point x="615" y="114" type="line"/>
      <point x="638" y="156"/>
      <point x="656" y="209"/>
      <point x="656" y="264" type="curve" smooth="yes"/>
      <point x="656" y="382"/>
      <point x="571" y="426"/>
    </contour>
  </outline>
</glyph>
<glyph name="edeva" format="2">
  <advance width="553"/>
  <unicode hex="090F"/>
  <outline>
    <contour>
      <point x="568" y="551" type="line"/>
      <point x="568" y="622" type="line"/>
      <point x="0" y="622" type="line"/>
      <point x="0" y="551" type="line"/>
      <point x="79" y="551" type="line"/>
      <point x="79" y="316" type="line" smooth="yes"/>
      <point x="79" y="269"/>
      <point x="84" y="237"/>
      <point x="95" y="212" type="curve" smooth="yes"/>
      <point x="114" y="166"/>
      <point x="151" y="136"/>
      <point x="203" y="106" type="curve" smooth="yes"/>
      <point x="290" y="56" type="line" smooth="yes"/>
      <point x="387" y="0"/>
      <point x="403" y="-18"/>
      <point x="403" y="-55" type="curve" smooth="yes"/>
      <point x="403" y="-85"/>
      <point x="384" y="-116"/>
      <point x="367" y="-142" type="curve"/>
      <point x="439" y="-184" type="line"/>
      <point x="458" y="-157"/>
      <point x="486" y="-107"/>
      <point x="486" y="-53" type="curve" smooth="yes"/>
      <point x="486" y="14"/>
      <point x="454" y="50"/>
      <point x="370" y="98" type="curve" smooth="yes"/>
      <point x="260" y="160" type="line" smooth="yes"/>
      <point x="170" y="212"/>
      <point x="160" y="231"/>
      <point x="160" y="353" type="curve" smooth="yes"/>
      <point x="160" y="551" type="line"/>
      <point x="393" y="551" type="line"/>
      <point x="393" y="380" type="line" smooth="yes"/>
      <point x="393" y="325"/>
      <point x="386" y="308"/>
      <point x="370" y="292" type="curve" smooth="yes"/>
      <point x="356" y="277"/>
      <point x="336" y="271"/>
      <point x="307" y="266" type="curve"/>
      <point x="323" y="192" type="line"/>
      <point x="376" y="196"/>
      <point x="418" y="216"/>
      <point x="441" y="246" type="curve" smooth="yes"/>
      <point x="465" y="276"/>
      <point x="474" y="312"/>
      <point x="474" y="380" type="curve" smooth="yes"/>
      <point x="474" y="551" type="line"/>
    </contour>
  </outline>
</glyph>
<glyph name="kadeva" format="2">
  <advance width="762"/>
  <unicode hex="0915"/>
  <outline>
    <contour>
      <point x="777" y="551" type="line"/>
      <point x="777" y="622" type="line"/>
      <point x="0" y="622" type="line"/>
      <point x="0" y="551" type="line"/>
      <point x="371" y="551" type="line"/>
      <point x="371" y="224" type="line"/>
      <point x="388" y="278" type="line"/>
      <point x="344" y="230"/>
      <point x="295" y="188"/>
      <point x="228" y="188" type="curve" smooth="yes"/>
      <point x="175" y="188"/>
      <point x="127" y="221"/>
      <point x="127" y="292" type="curve" smooth="yes"/>
      <point x="127" y="354"/>
      <point x="172" y="391"/>
      <point x="249" y="391" type="curve" smooth="yes"/>
      <point x="274" y="391"/>
      <point x="312" y="386"/>
      <point x="333" y="381" type="curve"/>
      <point x="339" y="454" type="line"/>
      <point x="319" y="458"/>
      <point x="275" y="464"/>
      <point x="244" y="464" type="curve" smooth="yes"/>
      <point x="127" y="464"/>
      <point x="46" y="397"/>
      <point x="46" y="290" type="curve" smooth="yes"/>
      <point x="46" y="176"/>
      <point x="131" y="118"/>
      <point x="226" y="118" type="curve" smooth="yes"/>
      <point x="303" y="118"/>
      <point x="353" y="157"/>
      <point x="385" y="186" type="curve"/>
      <point x="371" y="210" type="line"/>
      <point x="371" y="0" type="line"/>
      <point x="452" y="0" type="line"/>
      <point x="452" y="277" type="line"/>
      <point x="447" y="252" type="line"/>
      <point x="487" y="305"/>
      <point x="526" y="330"/>
      <point x="562" y="330" type="curve" smooth="yes"/>
      <point x="608" y="330"/>
      <point x="636" y="299"/>
      <point x="636" y="237" type="curve" smooth="yes"/>
      <point x="636" y="182"/>
      <point x="612" y="122"/>
      <point x="579" y="80" type="curve"/>
      <point x="651" y="39" type="line"/>
      <point x="697" y="106"/>
      <point x="716" y="177"/>
      <point x="716" y="239" type="curve" smooth="yes"/>
      <point x="716" y="342"/>
      <point x="655" y="399"/>
      <point x="569" y="399" type="curve" smooth="yes"/>
      <point x="522" y="399"/>
      <point x="480" y="380"/>
      <point x="448" y="345" type="curve"/>
      <point x="452" y="336" type="line"/>
      <point x="452" y="551" type="line"/>
    </contour>
  </outline>
</glyph>
<glyph name="khadeva" format="2">
  <advance width="818"/>
  <unicode hex="0916"/>
  <outline>
    <contour>
      <point x="265" y="551" type="line"/>
      <point x="496" y="551" type="line"/>
      <point x="496" y="622" type="line"/>
      <point x="0" y="622" type="line"/>
      <point x="0" y="551" type="line"/>
      <point x="215" y="551" type="line"/>
      <point x="194" y="564" type="line"/>
      <point x="211" y="536"/>
      <point x="217" y="498"/>
      <point x="217" y="458" type="curve" smooth="yes"/>
      <point x="217" y="405"/>
      <point x="203" y="347"/>
      <point x="148" y="331" type="curve"/>
      <point x="209" y="300" type="line"/>
      <point x="183" y="357"/>
      <point x="154" y="393"/>
      <point x="104" y="393" type="curve" smooth="yes"/>
      <point x="58" y="393"/>
      <point x="40" y="366"/>
      <point x="40" y="338" type="curve" smooth="yes"/>
      <point x="40" y="313"/>
      <point x="49" y="285"/>
      <point x="85" y="239" type="curve" smooth="yes"/>
      <point x="216" y="72"/>
      <point x="344" y="7"/>
      <point x="488" y="7" type="curve" smooth="yes"/>
      <point x="563" y="7"/>
      <point x="639" y="29"/>
      <point x="691" y="75" type="curve"/>
      <point x="674" y="139" type="line"/>
      <point x="617" y="97"/>
      <point x="558" y="79"/>
      <point x="490" y="79" type="curve" smooth="yes"/>
      <point x="357" y="79"/>
      <point x="257" y="142"/>
      <point x="163" y="257" type="curve"/>
      <point x="159" y="250" type="line"/>
      <point x="246" y="285"/>
      <point x="298" y="346"/>
      <point x="298" y="458" type="curve" smooth="yes"/>
      <point x="298" y="502"/>
      <point x="290" y="536"/>
      <point x="276" y="561" type="curve"/>
    </contour>
    <contour>
      <point x="729" y="551" type="line"/>
      <point x="833" y="551" type="line"/>
      <point x="833" y="622" type="line"/>
      <point x="461" y="622" type="line"/>
      <point x="461" y="551" type="line"/>
      <point x="648" y="551" type="line"/>
      <point x="648" y="0" type="line"/>
      <point x="729" y="0" type="line"/>
    </contour>
    <contour>
      <point x="668" y="211" type="curve"/>
      <point x="672" y="306" type="line"/>
      <point x="645" y="272"/>
      <point x="597" y="232"/>
      <point x="534" y="232" type="curve" smooth="yes"/>
      <point x="478" y="232"/>
      <point x="437" y="259"/>
      <point x="437" y="316" type="curve" smooth="yes"/>
      <point x="437" y="374"/>
      <point x="476" y="404"/>
      <point x="540" y="404" type="curve" smooth="yes"/>
      <point x="564" y="404"/>
      <point x="590" y="399"/>
      <point x="610" y="394" type="curve"/>
      <point x="616" y="463" type="line"/>
      <point x="597" y="469"/>
      <point x="553" y="473"/>
      <point x="531" y="473" type="curve" smooth="yes"/>
      <point x="426" y="473"/>
      <point x="356" y="416"/>
      <point x="356" y="319" type="curve" smooth="yes"/>
      <point x="356" y="226"/>
      <point x="426" y="164"/>
      <point x="521" y="164" type="curve" smooth="yes"/>
      <point x="587" y="164"/>
      <point x="638" y="188"/>
    </contour>
  </outline>
</glyph>
<glyph name="ghadeva" format="2">
  <advance width="591"/>
  <unicode hex="0918"/>
  <outline>
    <contour>
      <point x="605" y="551" type="line"/>
      <point x="605" y="622" type="line"/>
      <point x="0" y="622" type="line"/>
      <point x="0" y="551" type="line"/>
      <point x="421" y="551" type="line"/>
      <point x="421" y="246" type="line"/>
      <point x="424" y="263" type="line"/>
      <point x="391" y="224"/>
      <point x="339" y="188"/>
      <point x="267" y="188" type="curve" smooth="yes"/>
      <point x="208" y="188"/>
      <point x="167" y="213"/>
      <point x="167" y="269" type="curve" smooth="yes"/>
      <point x="167" y="321"/>
      <point x="207" y="348"/>
      <point x="273" y="348" type="curve" smooth="yes"/>
      <point x="281" y="348"/>
      <point x="293" y="348"/>
      <point x="302" y="347" type="curve"/>
      <point x="308" y="417" type="line"/>
      <point x="299" y="418"/>
      <point x="279" y="419"/>
      <point x="263" y="419" type="curve" smooth="yes"/>
      <point x="221" y="419"/>
      <point x="182" y="411"/>
      <point x="151" y="391" type="curve"/>
      <point x="141" y="377" type="line"/>
      <point x="103" y="350"/>
      <point x="86" y="309"/>
      <point x="86" y="266" type="curve" smooth="yes"/>
      <point x="86" y="176"/>
      <point x="156" y="118"/>
      <point x="259" y="118" type="curve" smooth="yes"/>
      <point x="335" y="118"/>
      <point x="383" y="141"/>
      <point x="426" y="169" type="curve"/>
      <point x="421" y="188" type="line"/>
      <point x="421" y="0" type="line"/>
      <point x="502" y="0" type="line"/>
      <point x="502" y="551" type="line"/>
    </contour>
    <contour>
      <point x="211" y="348" type="curve"/>
      <point x="221" y="410" type="line"/>
      <point x="165" y="411"/>
      <point x="123" y="438"/>
      <point x="123" y="494" type="curve" smooth="yes"/>
      <point x="123" y="529"/>
      <point x="142" y="555"/>
      <point x="170" y="572" type="curve"/>
      <point x="100" y="606" type="line"/>
      <point x="66" y="580"/>
      <point x="42" y="552"/>
      <point x="42" y="497" type="curve" smooth="yes"/>
      <point x="42" y="416"/>
      <point x="111" y="348"/>
    </contour>
  </outline>
</glyph>
<glyph name="ngadeva" format="2">
  <advance width="647"/>
  <unicode hex="0919"/>
  <outline>
    <contour>
      <point x="358" y="222" type="curve" smooth="yes"/>
      <point x="419" y="222"/>
      <point x="453" y="197"/>
      <point x="453" y="152" type="curve" smooth="yes"/>
      <point x="453" y="102"/>
      <point x="415" y="74"/>
      <point x="337" y="74" type="curve" smooth="yes"/>
      <point x="237" y="74"/>
      <point x="162" y="116"/>
      <point x="86" y="207" type="curve"/>
      <point x="25" y="158" type="line"/>
      <point x="104" y="65"/>
      <point x="206" y="0"/>
      <point x="337" y="0" type="curve" smooth="yes"/>
      <point x="469" y="0"/>
      <point x="534" y="63"/>
      <point x="534" y="154" type="curve" smooth="yes"/>
      <point x="534" y="240"/>
      <point x="461" y="294"/>
      <point x="362" y="294" type="curve" smooth="yes"/>
      <point x="327" y="294"/>
      <point x="291" y="288"/>
      <point x="261" y="277" type="curve"/>
      <point x="239" y="294"/>
      <point x="217" y="315"/>
      <point x="217" y="347" type="curve" smooth="yes"/>
      <point x="217" y="361"/>
      <point x="222" y="373"/>
      <point x="232" y="381" type="curve" smooth="yes"/>
      <point x="244" y="390"/>
      <point x="257" y="394"/>
      <point x="298" y="394" type="curve" smooth="yes"/>
      <point x="482" y="394" type="line"/>
      <point x="482" y="551" type="line"/>
      <point x="662" y="551" type="line"/>
      <point x="662" y="622" type="line"/>
      <point x="0" y="622" type="line"/>
      <point x="0" y="551" type="line"/>
      <point x="401" y="551" type="line"/>
      <point x="401" y="465" type="line"/>
      <point x="308" y="465" type="line" smooth="yes"/>
      <point x="242" y="465"/>
      <point x="204" y="456"/>
      <point x="174" y="433" type="curve" smooth="yes"/>
      <point x="151" y="416"/>
      <point x="137" y="389"/>
      <point x="137" y="352" type="curve" smooth="yes"/>
      <point x="137" y="283"/>
      <point x="187" y="233"/>
      <point x="248" y="197" type="curve"/>
      <point x="279" y="212"/>
      <point x="319" y="222"/>
    </contour>
    <contour>
      <point x="511" y="337" type="curve" smooth="yes"/>
      <point x="511" y="307"/>
      <point x="534" y="282"/>
      <point x="563" y="282" type="curve" smooth="yes"/>
      <point x="592" y="282"/>
      <point x="615" y="307"/>
      <point x="615" y="337" type="curve" smooth="yes"/>
      <point x="615" y="368"/>
      <point x="592" y="392"/>
      <point x="563" y="392" type="curve" smooth="yes"/>
      <point x="534" y="392"/>
      <point x="511" y="368"/>
    </contour>
  </outline>
</glyph>
<glyph name="chadeva" format="2">
  <advance width="701"/>
  <unicode hex="091B"/>
  <outline>
    <contour>
      <point x="535" y="551" type="line"/>
      <point x="715" y="551" type="line"/>
      <point x="715" y="622" type="line"/>
      <point x="0" y="622" type="line"/>
      <point x="0" y="551" type="line"/>
      <point x="455" y="551" type="line"/>
      <point x="455" y="446" type="line"/>
      <point x="535" y="446" type="line"/>
    </contour>
    <contour>
      <point x="296" y="70" type="curve" smooth="yes"/>
      <point x="226" y="70"/>
      <point x="182" y="95"/>
      <point x="182" y="148" type="curve" smooth="yes"/>
      <point x="182" y="194"/>
      <point x="214" y="218"/>
      <point x="276" y="218" type="curve" smooth="yes"/>
      <point x="283" y="218"/>
      <point x="294" y="218"/>
      <point x="302" y="217" type="curve"/>
      <point x="308" y="287" type="line"/>
      <point x="299" y="288"/>
      <point x="281" y="290"/>
      <point x="266" y="290" type="curve" smooth="yes"/>
      <point x="227" y="290"/>
      <point x="190" y="281"/>
      <point x="162" y="262" type="curve" smooth="yes"/>
      <point x="158" y="259"/>
      <point x="156" y="252"/>
      <point x="152" y="249" type="curve"/>
      <point x="117" y="223"/>
      <point x="101" y="183"/>
      <point x="101" y="147" type="curve" smooth="yes"/>
      <point x="101" y="61"/>
      <point x="167" y="0"/>
      <point x="296" y="0" type="curve" smooth="yes"/>
      <point x="515" y="0"/>
      <point x="653" y="154"/>
      <point x="653" y="308" type="curve" smooth="yes"/>
      <point x="653" y="425"/>
      <point x="579" y="483"/>
      <point x="487" y="483" type="curve" smooth="yes"/>
      <point x="396" y="483"/>
      <point x="347" y="429"/>
      <point x="347" y="356" type="curve" smooth="yes"/>
      <point x="347" y="287"/>
      <point x="394" y="229"/>
      <point x="502" y="198" type="curve"/>
      <point x="535" y="261" type="line"/>
      <point x="457" y="279"/>
      <point x="424" y="315"/>
      <point x="424" y="358" type="curve" smooth="yes"/>
      <point x="424" y="391"/>
      <point x="442" y="419"/>
      <point x="487" y="419" type="curve" smooth="yes"/>
      <point x="542" y="419"/>
      <point x="574" y="372"/>
      <point x="574" y="310" type="curve" smooth="yes"/>
      <point x="574" y="173"/>
      <point x="449" y="70"/>
    </contour>
    <contour>
      <point x="199" y="209" type="curve"/>
      <point x="219" y="277" type="line"/>
      <point x="165" y="287"/>
      <point x="124" y="307"/>
      <point x="124" y="350" type="curve" smooth="yes"/>
      <point x="124" y="393"/>
      <point x="154" y="415"/>
      <point x="212" y="415" type="curve" smooth="yes"/>
      <point x="240" y="415"/>
      <point x="263" y="409"/>
      <point x="282" y="404" type="curve"/>
      <point x="288" y="473" type="line"/>
      <point x="270" y="479"/>
      <point x="229" y="483"/>
      <point x="206" y="483" type="curve" smooth="yes"/>
      <point x="109" y="483"/>
      <point x="43" y="439"/>
      <point x="43" y="359" type="curve" smooth="yes"/>
      <point x="43" y="281"/>
      <point x="104" y="229"/>
    </contour>
  </outline>
</glyph>
<glyph name="jhadeva" format="2">
  <advance width="756"/>
  <unicode hex="091D"/>
  <outline>
    <contour>
      <point x="667" y="551" type="line"/>
      <point x="771" y="551" type="line"/>
      <point x="771" y="622" type="line"/>
      <point x="489" y="622" type="line"/>
      <point x="489" y="551" type="line"/>
      <point x="586" y="551" type="line"/>
      <point x="586" y="0" type="line"/>
      <point x="667" y="0" type="line"/>
    </contour>
    <contour>
      <point x="271" y="222" type="curve" smooth="yes"/>
      <point x="332" y="222"/>
      <point x="366" y="197"/>
      <point x="366" y="153" type="curve" smooth="yes"/>
      <point x="366" y="94"/>
      <point x="312" y="68"/>
      <point x="219" y="68" type="curve" smooth="yes"/>
      <point x="192" y="68"/>
      <point x="135" y="76"/>
      <point x="99" y="92" type="curve"/>
      <point x="135" y="28" type="line"/>
      <point x="204" y="-19"/>
      <point x="289" y="-67"/>
      <point x="382" y="-110" type="curve"/>
      <point x="415" y="-40" type="line"/>
      <point x="350" y="-20"/>
      <point x="289" y="2"/>
      <point x="241" y="25" type="curve"/>
      <point x="173" y="93"/>
      <point x="138" y="116"/>
      <point x="101" y="116" type="curve" smooth="yes"/>
      <point x="66" y="116"/>
      <point x="48" y="94"/>
      <point x="48" y="65" type="curve" smooth="yes"/>
      <point x="48" y="20"/>
      <point x="101" y="4"/>
      <point x="185" y="1" type="curve"/>
      <point x="199" y="0"/>
      <point x="214" y="0"/>
      <point x="230" y="0" type="curve" smooth="yes"/>
      <point x="365" y="0"/>
      <point x="447" y="52"/>
      <point x="447" y="154" type="curve" smooth="yes"/>
      <point x="447" y="240"/>
      <point x="374" y="294"/>
      <point x="275" y="294" type="curve" smooth="yes"/>
      <point x="240" y="294"/>
      <point x="204" y="288"/>
      <point x="174" y="277" type="curve"/>
      <point x="152" y="294"/>
      <point x="130" y="315"/>
      <point x="130" y="347" type="curve" smooth="yes"/>
      <point x="130" y="361"/>
      <point x="135" y="373"/>
      <point x="145" y="381" type="curve" smooth="yes"/>
      <point x="157" y="390"/>
      <point x="170" y="394"/>
      <point x="211" y="394" type="curve" smooth="yes"/>
      <point x="395" y="394" type="line"/>
      <point x="395" y="551" type="line"/>
      <point x="505" y="551" type="line"/>
      <point x="505" y="622" type="line"/>
      <point x="0" y="622" type="line"/>
      <point x="0" y="551" type="line"/>
      <point x="314" y="551" type="line"/>
      <point x="314" y="465" type="line"/>
      <point x="218" y="465" type="line" smooth="yes"/>
      <point x="150" y="465"/>
      <point x="117" y="456"/>
      <point x="87" y="433" type="curve" smooth="yes"/>
      <point x="64" y="416"/>
      <point x="50" y="389"/>
      <point x="50" y="352" type="curve" smooth="yes"/>
      <point x="50" y="284"/>
      <point x="98" y="234"/>
      <point x="161" y="197" type="curve"/>
      <point x="191" y="212"/>
      <point x="232" y="222"/>
    </contour>
    <contour>
      <point x="480" y="268" type="curve" smooth="yes"/>
      <point x="425" y="268"/>
      <point x="384" y="274"/>
      <point x="345" y="283" type="curve"/>
      <point x="339" y="268" type="line"/>
      <point x="387" y="217" type="line"/>
      <point x="412" y="206"/>
      <point x="454" y="197"/>
      <point x="484" y="197" type="curve" smooth="yes"/>
      <point x="542" y="197"/>
      <point x="580" y="203"/>
      <point x="637" y="228" type="curve"/>
      <point x="637" y="300" type="line"/>
      <point x="574" y="277"/>
      <point x="536" y="268"/>
    </contour>
  </outline>
</glyph>
<glyph name="nyadeva" format="2">
  <advance width="742"/>
  <unicode hex="091E"/>
  <outline>
    <contour>
      <point x="653" y="551" type="line"/>
      <point x="756" y="551" type="line"/>
      <point x="756" y="622" type="line"/>
      <point x="0" y="622" type="line"/>
      <point x="0" y="551" type="line"/>
      <point x="572" y="551" type="line"/>
      <point x="572" y="0" type="line"/>
      <point x="653" y="0" type="line"/>
    </contour>
    <contour>
      <point x="646" y="290" type="curve"/>
      <point x="646" y="391" type="line"/>
      <point x="611" y="353"/>
      <point x="568" y="315"/>
      <point x="493" y="315" type="curve" smooth="yes"/>
      <point x="469" y="315"/>
      <point x="450" y="320"/>
      <point x="437" y="326" type="curve"/>
      <point x="448" y="249" type="line"/>
      <point x="463" y="246"/>
      <point x="468" y="245"/>
      <point x="484" y="245" type="curve" smooth="yes"/>
      <point x="554" y="245"/>
      <point x="605" y="262"/>
    </contour>
    <contour>
      <point x="192" y="420" type="curve"/>
      <point x="219" y="348" type="line"/>
      <point x="250" y="363"/>
      <point x="279" y="373"/>
      <point x="313" y="373" type="curve" smooth="yes"/>
      <point x="368" y="373"/>
      <point x="411" y="348"/>
      <point x="411" y="287" type="curve" smooth="yes"/>
      <point x="411" y="229"/>
      <point x="367" y="192"/>
      <point x="294" y="192" type="curve" smooth="yes"/>
      <point x="206" y="192"/>
      <point x="152" y="241"/>
      <point x="98" y="365" type="curve"/>
      <point x="29" y="338" type="line"/>
      <point x="97" y="186"/>
      <point x="186" y="118"/>
      <point x="300" y="118" type="curve" smooth="yes"/>
      <point x="377" y="118"/>
      <point x="487" y="153"/>
      <point x="487" y="287" type="curve" smooth="yes"/>
      <point x="487" y="389"/>
      <point x="414" y="446"/>
      <point x="315" y="446" type="curve" smooth="yes"/>
      <point x="279" y="446"/>
      <point x="233" y="438"/>
    </contour>
  </outline>
</glyph>
<glyph name="ttadeva" format="2">
  <advance width="504"/>
  <unicode hex="091F"/>
  <outline>
    <contour>
      <point x="519" y="551" type="line"/>
      <point x="519" y="622" type="line"/>
      <point x="0" y="622" type="line"/>
      <point x="0" y="551" type="line"/>
      <point x="290" y="551" type="line"/>
      <point x="290" y="416" type="line"/>
      <point x="293" y="420" type="line"/>
      <point x="288" y="420" type="line" smooth="yes"/>
      <point x="161" y="420"/>
      <point x="46" y="350"/>
      <point x="46" y="220" type="curve" smooth="yes"/>
      <point x="46" y="80"/>
      <point x="148" y="0"/>
      <point x="286" y="0" type="curve" smooth="yes"/>
      <point x="356" y="0"/>
      <point x="423" y="20"/>
      <point x="482" y="47" type="curve"/>
      <point x="455" y="121" type="line"/>
      <point x="399" y="92"/>
      <point x="355" y="74"/>
      <point x="283" y="74" type="curve" smooth="yes"/>
      <point x="199" y="74"/>
      <point x="126" y="118"/>
      <point x="126" y="215" type="curve" smooth="yes"/>
      <point x="126" y="259"/>
      <point x="146" y="294"/>
      <point x="181" y="318" type="curve" smooth="yes"/>
      <point x="211" y="338"/>
      <point x="252" y="349"/>
      <point x="316" y="349" type="curve" smooth="yes"/>
      <point x="371" y="349" type="line"/>
      <point x="371" y="551" type="line"/>
    </contour>
  </outline>
</glyph>
<glyph name="tthadeva" format="2">
  <advance width="585"/>
  <unicode hex="0920"/>
  <outline>
    <contour>
      <point x="600" y="551" type="line"/>
      <point x="600" y="622" type="line"/>
      <point x="0" y="622" type="line"/>
      <point x="0" y="551" type="line"/>
      <point x="290" y="551" type="line"/>
      <point x="290" y="415" type="line"/>
      <point x="294" y="420" type="line"/>
      <point x="287" y="420" type="line" smooth="yes"/>
      <point x="162" y="420"/>
      <point x="46" y="350"/>
      <point x="46" y="216" type="curve" smooth="yes"/>
      <point x="46" y="78"/>
      <point x="146" y="0"/>
      <point x="297" y="0" type="curve" smooth="yes"/>
      <point x="429" y="0"/>
      <point x="539" y="58"/>
      <point x="539" y="198" type="curve" smooth="yes"/>
      <point x="539" y="295"/>
      <point x="477" y="374"/>
      <point x="371" y="414" type="curve"/>
      <point x="371" y="551" type="line"/>
    </contour>
    <contour>
      <point x="293" y="72" type="curve" smooth="yes"/>
      <point x="197" y="72"/>
      <point x="126" y="117"/>
      <point x="126" y="210" type="curve" smooth="yes"/>
      <point x="126" y="262"/>
      <point x="149" y="298"/>
      <point x="187" y="321" type="curve" smooth="yes"/>
      <point x="217" y="339"/>
      <point x="259" y="349"/>
      <point x="308" y="349" type="curve" smooth="yes"/>
      <point x="343" y="349" type="line"/>
      <point x="419" y="317"/>
      <point x="458" y="264"/>
      <point x="458" y="200" type="curve" smooth="yes"/>
      <point x="458" y="111"/>
      <point x="388" y="72"/>
    </contour>
  </outline>
</glyph>
<glyph name="ddadeva" format="2">
  <advance width="577"/>
  <unicode hex="0921"/>
  <outline>
    <contour>
      <point x="358" y="222" type="curve" smooth="yes"/>
      <point x="419" y="222"/>
      <point x="453" y="198"/>
      <point x="453" y="152" type="curve" smooth="yes"/>
      <point x="453" y="102"/>
      <point x="415" y="74"/>
      <point x="337" y="74" type="curve" smooth="yes"/>
      <point x="237" y="74"/>
      <point x="162" y="116"/>
      <point x="86" y="207" type="curve"/>
      <point x="25" y="158" type="line"/>
      <point x="104" y="65"/>
      <point x="206" y="0"/>
      <point x="337" y="0" type="curve" smooth="yes"/>
      <point x="469" y="0"/>
      <point x="534" y="64"/>
      <point x="534" y="154" type="curve" smooth="yes"/>
      <point x="534" y="240"/>
      <point x="461" y="294"/>
      <point x="362" y="294" type="curve" smooth="yes"/>
      <point x="327" y="294"/>
      <point x="291" y="288"/>
      <point x="261" y="277" type="curve"/>
      <point x="239" y="294"/>
      <point x="217" y="315"/>
      <point x="217" y="347" type="curve" smooth="yes"/>
      <point x="217" y="361"/>
      <point x="222" y="373"/>
      <point x="232" y="381" type="curve" smooth="yes"/>
      <point x="244" y="390"/>
      <point x="257" y="394"/>
      <point x="298" y="394" type="curve" smooth="yes"/>
      <point x="482" y="394" type="line"/>
      <point x="482" y="551" type="line"/>
      <point x="592" y="551" type="line"/>
      <point x="592" y="622" type="line"/>
      <point x="0" y="622" type="line"/>
      <point x="0" y="551" type="line"/>
      <point x="401" y="551" type="line"/>
      <point x="401" y="465" type="line"/>
      <point x="308" y="465" type="line" smooth="yes"/>
      <point x="242" y="465"/>
      <point x="204" y="456"/>
      <point x="174" y="433" type="curve" smooth="yes"/>
      <point x="151" y="416"/>
      <point x="137" y="389"/>
      <point x="137" y="352" type="curve" smooth="yes"/>
      <point x="137" y="284"/>
      <point x="185" y="234"/>
      <point x="248" y="197" type="curve"/>
      <point x="279" y="212"/>
      <point x="319" y="222"/>
    </contour>
  </outline>
</glyph>
<glyph name="ddhadeva" format="2">
  <advance width="563"/>
  <unicode hex="0922"/>
  <outline>
    <contour>
      <point x="307" y="0" type="curve" smooth="yes"/>
      <point x="441" y="0"/>
      <point x="523" y="64"/>
      <point x="523" y="157" type="curve" smooth="yes"/>
      <point x="523" y="225"/>
      <point x="478" y="288"/>
      <point x="380" y="288" type="curve" smooth="yes"/>
      <point x="282" y="288"/>
      <point x="233" y="225"/>
      <point x="233" y="157" type="curve" smooth="yes"/>
      <point x="233" y="107"/>
      <point x="247" y="69"/>
      <point x="273" y="22" type="curve"/>
      <point x="344" y="36" type="line"/>
      <point x="317" y="74"/>
      <point x="306" y="102"/>
      <point x="306" y="140" type="curve" smooth="yes"/>
      <point x="306" y="190"/>
      <point x="338" y="221"/>
      <point x="385" y="221" type="curve" smooth="yes"/>
      <point x="422" y="221"/>
      <point x="448" y="197"/>
      <point x="448" y="157" type="curve" smooth="yes"/>
      <point x="448" y="102"/>
      <point x="395" y="70"/>
      <point x="320" y="70" type="curve" smooth="yes"/>
      <point x="309" y="70"/>
      <point x="287" y="69"/>
      <point x="276" y="70" type="curve"/>
      <point x="181" y="83"/>
      <point x="126" y="135"/>
      <point x="126" y="221" type="curve" smooth="yes"/>
      <point x="126" y="276"/>
      <point x="148" y="315"/>
      <point x="188" y="341" type="curve" smooth="yes"/>
      <point x="221" y="363"/>
      <point x="260" y="375"/>
      <point x="346" y="375" type="curve" smooth="yes"/>
      <point x="385" y="375" type="line"/>
      <point x="385" y="551" type="line"/>
      <point x="577" y="551" type="line"/>
      <point x="577" y="622" type="line"/>
      <point x="0" y="622" type="line"/>
      <point x="0" y="551" type="line"/>
      <point x="305" y="551" type="line"/>
      <point x="305" y="435" type="line"/>
      <point x="314" y="446" type="line"/>
      <point x="307" y="446" type="line"/>
      <point x="166" y="444"/>
      <point x="46" y="371"/>
      <point x="46" y="231" type="curve" smooth="yes"/>
      <point x="46" y="85"/>
      <point x="151" y="0"/>
    </contour>
  </outline>
</glyph>
<glyph name="dadeva" format="2">
  <advance width="520"/>
  <unicode hex="0926"/>
  <outline>
    <contour>
      <point x="413" y="-58" type="curve"/>
      <point x="480" y="-24" type="line"/>
      <point x="440" y="31"/>
      <point x="420" y="65"/>
      <point x="401" y="104" type="curve"/>
      <point x="353" y="148" type="line"/>
      <point x="315" y="140"/>
      <point x="303" y="140"/>
      <point x="287" y="140" type="curve" smooth="yes"/>
      <point x="178" y="140"/>
      <point x="126" y="191"/>
      <point x="126" y="262" type="curve" smooth="yes"/>
      <point x="126" y="305"/>
      <point x="143" y="335"/>
      <point x="173" y="355" type="curve" smooth="yes"/>
      <point x="206" y="376"/>
      <point x="249" y="385"/>
      <point x="327" y="385" type="curve" smooth="yes"/>
      <point x="376" y="385" type="line"/>
      <point x="376" y="551" type="line"/>
      <point x="534" y="551" type="line"/>
      <point x="534" y="622" type="line"/>
      <point x="0" y="622" type="line"/>
      <point x="0" y="551" type="line"/>
      <point x="295" y="551" type="line"/>
      <point x="295" y="420" type="line"/>
      <point x="331" y="456" type="line"/>
      <point x="290" y="456" type="line" smooth="yes"/>
      <point x="211" y="456"/>
      <point x="146" y="439"/>
      <point x="102" y="401" type="curve" smooth="yes"/>
      <point x="68" y="372"/>
      <point x="46" y="330"/>
      <point x="46" y="272" type="curve" smooth="yes"/>
      <point x="46" y="119"/>
      <point x="176" y="68"/>
      <point x="287" y="68" type="curve" smooth="yes"/>
      <point x="316" y="68"/>
      <point x="343" y="72"/>
      <point x="361" y="77" type="curve"/>
      <point x="386" y="79" type="line"/>
      <point x="428" y="89"/>
      <point x="461" y="108"/>
      <point x="461" y="162" type="curve" smooth="yes"/>
      <point x="461" y="201"/>
      <point x="430" y="240"/>
      <point x="373" y="240" type="curve" smooth="yes"/>
      <point x="339" y="240"/>
      <point x="306" y="222"/>
      <point x="306" y="176" type="curve" smooth="yes"/>
      <point x="306" y="161"/>
      <point x="313" y="132"/>
      <point x="321" y="121" type="curve"/>
      <point x="335" y="89" type="line"/>
      <point x="350" y="53"/>
      <point x="380" y="-6"/>
    </contour>
  </outline>
</glyph>
<glyph name="padeva" format="2">
  <advance width="568"/>
  <unicode hex="092A"/>
  <outline>
    <contour>
      <point x="479" y="551" type="line"/>
      <point x="583" y="551" type="line"/>
      <point x="583" y="622" type="line"/>
      <point x="0" y="622" type="line"/>
      <point x="0" y="551" type="line"/>
      <point x="79" y="551" type="line"/>
      <point x="79" y="358" type="line" smooth="yes"/>
      <point x="79" y="272"/>
      <point x="94" y="230"/>
      <point x="128" y="194" type="curve" smooth="yes"/>
      <point x="156" y="166"/>
      <point x="201" y="146"/>
      <point x="254" y="146" type="curve" smooth="yes"/>
      <point x="327" y="146"/>
      <point x="374" y="174"/>
      <point x="417" y="203" type="curve"/>
      <point x="398" y="227" type="line"/>
      <point x="398" y="0" type="line"/>
      <point x="479" y="0" type="line"/>
    </contour>
    <contour>
      <point x="398" y="551" type="line"/>
      <point x="398" y="246" type="line"/>
      <point x="414" y="298" type="line"/>
      <point x="382" y="258"/>
      <point x="325" y="217"/>
      <point x="263" y="217" type="curve" smooth="yes"/>
      <point x="230" y="217"/>
      <point x="206" y="224"/>
      <point x="190" y="240" type="curve" smooth="yes"/>
      <point x="168" y="262"/>
      <point x="160" y="287"/>
      <point x="160" y="369" type="curve" smooth="yes"/>
      <point x="160" y="551" type="line"/>
    </contour>
  </outline>
</glyph>
<glyph name="phadeva" format="2">
  <advance width="771"/>
  <unicode hex="092B"/>
  <outline>
    <contour>
      <point x="460" y="551" type="line"/>
      <point x="786" y="551" type="line"/>
      <point x="786" y="622" type="line"/>
      <point x="0" y="622" type="line"/>
      <point x="0" y="551" type="line"/>
      <point x="79" y="551" type="line"/>
      <point x="79" y="354" type="line" smooth="yes"/>
      <point x="79" y="278"/>
      <point x="92" y="235"/>
      <point x="125" y="197" type="curve" smooth="yes"/>
      <point x="150" y="168"/>
      <point x="195" y="146"/>
      <point x="248" y="146" type="curve" smooth="yes"/>
      <point x="316" y="146"/>
      <point x="361" y="176"/>
      <point x="395" y="206" type="curve"/>
      <point x="379" y="229" type="line"/>
      <point x="379" y="0" type="line"/>
      <point x="460" y="0" type="line"/>
      <point x="460" y="293" type="line"/>
      <point x="440" y="230" type="line"/>
      <point x="483" y="294"/>
      <point x="529" y="330"/>
      <point x="570" y="330" type="curve" smooth="yes"/>
      <point x="617" y="330"/>
      <point x="645" y="299"/>
      <point x="645" y="237" type="curve" smooth="yes"/>
      <point x="645" y="182"/>
      <point x="621" y="122"/>
      <point x="588" y="80" type="curve"/>
      <point x="660" y="39" type="line"/>
      <point x="706" y="106"/>
      <point x="725" y="177"/>
      <point x="725" y="239" type="curve" smooth="yes"/>
      <point x="725" y="342"/>
      <point x="664" y="399"/>
      <point x="578" y="399" type="curve" smooth="yes"/>
      <point x="522" y="399"/>
      <point x="479" y="374"/>
      <point x="442" y="330" type="curve"/>
      <point x="460" y="313" type="line"/>
    </contour>
    <contour>
      <point x="160" y="551" type="line"/>
      <point x="379" y="551" type="line"/>
      <point x="379" y="243" type="line"/>
      <point x="397" y="297" type="line"/>
      <point x="358" y="252"/>
      <point x="313" y="217"/>
      <point x="248" y="217" type="curve" smooth="yes"/>
      <point x="223" y="217"/>
      <point x="202" y="224"/>
      <point x="188" y="240" type="curve" smooth="yes"/>
      <point x="167" y="263"/>
      <point x="160" y="287"/>
      <point x="160" y="360" type="curve" smooth="yes"/>
    </contour>
  </outline>
</glyph>
<glyph name="badeva" format="2">
  <advance width="571"/>
  <unicode hex="092C"/>
  <outline>
    <contour>
      <point x="585" y="551" type="line"/>
      <point x="585" y="622" type="line"/>
      <point x="0" y="622" type="line"/>
      <point x="0" y="551" type="line"/>
      <point x="401" y="551" type="line"/>
      <point x="401" y="220" type="line"/>
      <point x="414" y="271" type="line"/>
      <point x="380" y="230"/>
      <point x="323" y="184"/>
      <point x="242" y="184" type="curve" smooth="yes"/>
      <point x="178" y="184"/>
      <point x="127" y="217"/>
      <point x="127" y="287" type="curve" smooth="yes"/>
      <point x="127" y="357"/>
      <point x="180" y="395"/>
      <point x="268" y="395" type="curve" smooth="yes"/>
      <point x="301" y="395"/>
      <point x="336" y="390"/>
      <point x="363" y="385" type="curve"/>
      <point x="369" y="454" type="line"/>
      <point x="347" y="459"/>
      <point x="292" y="464"/>
      <point x="265" y="464" type="curve" smooth="yes"/>
      <point x="134" y="464"/>
      <point x="46" y="400"/>
      <point x="46" y="286" type="curve" smooth="yes"/>
      <point x="46" y="184"/>
      <point x="128" y="118"/>
      <point x="241" y="118" type="curve" smooth="yes"/>
      <point x="326" y="118"/>
      <point x="379" y="148"/>
      <point x="416" y="175" type="curve"/>
      <point x="401" y="201" type="line"/>
      <point x="401" y="0" type="line"/>
      <point x="482" y="0" type="line"/>
      <point x="482" y="551" type="line"/>
    </contour>
    <contour>
      <point x="205" y="424" type="line"/>
      <point x="143" y="401" type="line"/>
      <point x="331" y="167" type="line"/>
      <point x="377" y="209" type="line"/>
    </contour>
  </outline>
</glyph>
<glyph name="madeva" format="2">
  <advance width="598"/>
  <unicode hex="092E"/>
  <outline>
    <contour>
      <point x="509" y="551" type="line"/>
      <point x="612" y="551" type="line"/>
      <point x="612" y="622" type="line"/>
      <point x="0" y="622" type="line"/>
      <point x="0" y="551" type="line"/>
      <point x="126" y="551" type="line"/>
      <point x="126" y="321" type="line"/>
      <point x="100" y="321" type="line" smooth="yes"/>
      <point x="55" y="321"/>
      <point x="39" y="302"/>
      <point x="39" y="278" type="curve" smooth="yes"/>
      <point x="39" y="227"/>
      <point x="108" y="151"/>
      <point x="159" y="151" type="curve" smooth="yes"/>
      <point x="184" y="151"/>
      <point x="207" y="169"/>
      <point x="207" y="213" type="curve" smooth="yes"/>
      <point x="207" y="250" type="line"/>
      <point x="428" y="250" type="line"/>
      <point x="428" y="0" type="line"/>
      <point x="509" y="0" type="line"/>
    </contour>
    <contour>
      <point x="428" y="551" type="line"/>
      <point x="428" y="321" type="line"/>
      <point x="207" y="321" type="line"/>
      <point x="207" y="551" type="line"/>
    </contour>
  </outline>
</glyph>
<glyph name="yadeva" format="2">
  <advance width="580"/>
  <unicode hex="092F"/>
  <outline>
    <contour>
      <point x="595" y="622" type="line"/>
      <point x="0" y="622" type="line"/>
      <point x="0" y="551" type="line"/>
      <point x="159" y="551" type="line"/>
      <point x="110" y="566" type="line"/>
      <point x="132" y="542"/>
      <point x="160" y="503"/>
      <point x="160" y="457" type="curve" smooth="yes"/>
      <point x="160" y="398"/>
      <point x="121" y="370"/>
      <point x="38" y="353" type="curve"/>
      <point x="57" y="220"/>
      <point x="133" y="132"/>
      <point x="253" y="132" type="curve" smooth="yes"/>
      <point x="331" y="132"/>
      <point x="389" y="162"/>
      <point x="426" y="191" type="curve"/>
      <point x="410" y="216" type="line"/>
      <point x="410" y="0" type="line"/>
      <point x="491" y="0" type="line"/>
      <point x="491" y="551" type="line"/>
      <point x="595" y="551" type="line"/>
    </contour>
    <contour>
      <point x="175" y="551" type="line"/>
      <point x="410" y="551" type="line"/>
      <point x="410" y="239" type="line"/>
      <point x="425" y="292" type="line"/>
      <point x="389" y="246"/>
      <point x="335" y="203"/>
      <point x="259" y="203" type="curve" smooth="yes"/>
      <point x="193" y="203"/>
      <point x="155" y="236"/>
      <point x="129" y="301" type="curve"/>
      <point x="203" y="325"/>
      <point x="240" y="375"/>
      <point x="240" y="445" type="curve" smooth="yes"/>
      <point x="240" y="488"/>
      <point x="224" y="535"/>
      <point x="198" y="572" type="curve"/>
    </contour>
  </outline>
</glyph>
<glyph name="radeva" format="2">
  <advance width="409"/>
  <unicode hex="0930"/>
  <outline>
    <contour>
      <point x="284" y="551" type="line"/>
      <point x="424" y="551" type="line"/>
      <point x="424" y="622" type="line"/>
      <point x="0" y="622" type="line"/>
      <point x="0" y="551" type="line"/>
      <point x="275" y="551" type="line"/>
      <point x="230" y="565" type="line"/>
      <point x="244" y="550"/>
      <point x="256" y="507"/>
      <point x="256" y="468" type="curve" smooth="yes"/>
      <point x="256" y="405"/>
      <point x="223" y="360"/>
      <point x="147" y="335" type="curve"/>
      <point x="209" y="300" type="line"/>
      <point x="183" y="357"/>
      <point x="154" y="393"/>
      <point x="104" y="393" type="curve" smooth="yes"/>
      <point x="58" y="393"/>
      <point x="40" y="365"/>
      <point x="40" y="340" type="curve" smooth="yes"/>
      <point x="40" y="317"/>
      <point x="45" y="297"/>
      <point x="75" y="256" type="curve" smooth="yes"/>
      <point x="121" y="193"/>
      <point x="222" y="86"/>
      <point x="341" y="-12" type="curve"/>
      <point x="395" y="42" type="line"/>
      <point x="308" y="109"/>
      <point x="223" y="188"/>
      <point x="163" y="259" type="curve"/>
      <point x="159" y="251" type="line"/>
      <point x="260" y="291"/>
      <point x="336" y="346"/>
      <point x="336" y="458" type="curve" smooth="yes"/>
      <point x="336" y="508"/>
      <point x="327" y="544"/>
      <point x="312" y="566" type="curve"/>
    </contour>
  </outline>
</glyph>
<glyph name="ladeva" format="2">
  <advance width="678"/>
  <unicode hex="0932"/>
  <outline>
    <contour>
      <point x="0" y="551" type="line"/>
      <point x="508" y="551" type="line"/>
      <point x="508" y="413" type="line"/>
      <point x="565" y="394" type="line"/>
      <point x="562" y="416" type="line"/>
      <point x="546" y="421"/>
      <point x="522" y="426"/>
      <point x="499" y="426" type="curve" smooth="yes"/>
      <point x="392" y="426"/>
      <point x="312" y="359"/>
      <point x="279" y="232" type="curve"/>
      <point x="356" y="208" type="line"/>
      <point x="391" y="329"/>
      <point x="446" y="356"/>
      <point x="494" y="356" type="curve" smooth="yes"/>
      <point x="510" y="356"/>
      <point x="529" y="354"/>
      <point x="552" y="341" type="curve"/>
      <point x="508" y="377" type="line"/>
      <point x="508" y="0" type="line"/>
      <point x="589" y="0" type="line"/>
      <point x="589" y="551" type="line"/>
      <point x="693" y="551" type="line"/>
      <point x="693" y="622" type="line"/>
      <point x="0" y="622" type="line"/>
    </contour>
    <contour>
      <point x="337" y="292" type="curve"/>
      <point x="369" y="357" type="line"/>
      <point x="320" y="401"/>
      <point x="269" y="426"/>
      <point x="204" y="426" type="curve" smooth="yes"/>
      <point x="131" y="426"/>
      <point x="45" y="381"/>
      <point x="45" y="275" type="curve" smooth="yes"/>
      <point x="45" y="169"/>
      <point x="138" y="87"/>
      <point x="255" y="-12" type="curve"/>
      <point x="309" y="40" type="line"/>
      <point x="192" y="137"/>
      <point x="126" y="195"/>
      <point x="126" y="271" type="curve" smooth="yes"/>
      <point x="126" y="319"/>
      <point x="155" y="353"/>
      <point x="209" y="353" type="curve" smooth="yes"/>
      <point x="260" y="353"/>
      <point x="296" y="327"/>
    </contour>
  </outline>
</glyph>
<glyph name="vadeva" format="2">
  <advance width="556"/>
  <unicode hex="0935"/>
  <outline>
    <contour>
      <point x="571" y="551" type="line"/>
      <point x="571" y="622" type="line"/>
      <point x="0" y="622" type="line"/>
      <point x="0" y="551" type="line"/>
      <point x="387" y="551" type="line"/>
      <point x="387" y="223" type="line"/>
      <point x="400" y="274" type="line"/>
      <point x="366" y="235"/>
      <point x="314" y="188"/>
      <point x="235" y="188" type="curve" smooth="yes"/>
      <point x="175" y="188"/>
      <point x="127" y="219"/>
      <point x="127" y="287" type="curve" smooth="yes"/>
      <point x="127" y="354"/>
      <point x="176" y="391"/>
      <point x="259" y="391" type="curve" smooth="yes"/>
      <point x="290" y="391"/>
      <point x="323" y="386"/>
      <point x="349" y="381" type="curve"/>
      <point x="354" y="454" type="line"/>
      <point x="333" y="459"/>
      <point x="281" y="464"/>
      <point x="255" y="464" type="curve" smooth="yes"/>
      <point x="130" y="464"/>
      <point x="46" y="400"/>
      <point x="46" y="286" type="curve" smooth="yes"/>
      <point x="46" y="184"/>
      <point x="125" y="118"/>
      <point x="233" y="118" type="curve" smooth="yes"/>
      <point x="315" y="118"/>
      <point x="366" y="148"/>
      <point x="402" y="176" type="curve"/>
      <point x="387" y="201" type="line"/>
      <point x="387" y="0" type="line"/>
      <point x="467" y="0" type="line"/>
      <point x="467" y="551" type="line"/>
    </contour>
  </outline>
</glyph>
<glyph name="hadeva" format="2">
  <advance width="531"/>
  <unicode hex="0939"/>
  <outline>
    <contour>
      <point x="137" y="229" type="curve"/>
      <point x="197" y="274" type="line"/>
      <point x="171" y="291"/>
      <point x="149" y="315"/>
      <point x="149" y="347" type="curve" smooth="yes"/>
      <point x="149" y="361"/>
      <point x="154" y="373"/>
      <point x="164" y="381" type="curve" smooth="yes"/>
      <point x="176" y="390"/>
      <point x="189" y="394"/>
      <point x="230" y="394" type="curve" smooth="yes"/>
      <point x="442" y="394" type="line"/>
      <point x="442" y="551" type="line"/>
      <point x="546" y="551" type="line"/>
      <point x="546" y="622" type="line"/>
      <point x="0" y="622" type="line"/>
      <point x="0" y="551" type="line"/>
      <point x="361" y="551" type="line"/>
      <point x="361" y="465" type="line"/>
      <point x="229" y="465" type="line" smooth="yes"/>
      <point x="174" y="465"/>
      <point x="136" y="456"/>
      <point x="106" y="433" type="curve" smooth="yes"/>
      <point x="83" y="416"/>
      <point x="69" y="389"/>
      <point x="69" y="352" type="curve" smooth="yes"/>
      <point x="69" y="293"/>
      <point x="104" y="253"/>
    </contour>
    <contour>
      <point x="321" y="69" type="curve"/>
      <point x="348" y="2" type="line"/>
      <point x="434" y="25"/>
      <point x="481" y="75"/>
      <point x="481" y="153" type="curve" smooth="yes"/>
      <point x="481" y="228"/>
      <point x="421" y="300"/>
      <point x="284" y="300" type="curve" smooth="yes"/>
      <point x="168" y="300"/>
      <point x="58" y="242"/>
      <point x="58" y="130" type="curve" smooth="yes"/>
      <point x="58" y="27"/>
      <point x="126" y="-47"/>
      <point x="248" y="-142" type="curve"/>
      <point x="302" y="-89" type="line"/>
      <point x="161" y="16"/>
      <point x="138" y="62"/>
      <point x="138" y="124" type="curve" smooth="yes"/>
      <point x="138" y="188"/>
      <point x="188" y="229"/>
      <point x="280" y="229" type="curve" smooth="yes"/>
      <point x="367" y="229"/>
      <point x="403" y="198"/>
      <point x="403" y="148" type="curve" smooth="yes"/>
      <point x="403" y="105"/>
      <point x="369" y="83"/>
    </contour>
  </outline>
</glyph>
<glyph name="oevowelsigndeva" format="2">
  <unicode hex="093A"/>
  <outline>
    <contour>
      <point x="-170" y="615" type="line"/>
      <point x="-89" y="615" type="line"/>
      <point x="-89" y="805" type="line"/>
      <point x="-170" y="805" type="line"/>
    </contour>
  </outline>
</glyph>
<glyph name="nuktadeva" format="2">
  <unicode hex="093C"/>
  <outline>
    <contour>
      <point x="-338" y="-134" type="curve" smooth="yes"/>
      <point x="-338" y="-167"/>
      <point x="-313" y="-192"/>
      <point x="-283" y="-192" type="curve" smooth="yes"/>
      <point x="-252" y="-192"/>
      <point x="-228" y="-167"/>
      <point x="-228" y="-134" type="curve" smooth="yes"/>
      <point x="-228" y="-102"/>
      <point x="-252" y="-76"/>
      <point x="-283" y="-76" type="curve" smooth="yes"/>
      <point x="-313" y="-76"/>
      <point x="-338" y="-102"/>
    </contour>
  </outline>
</glyph>
<glyph name="avagrahadeva" format="2">
  <advance width="467"/>
  <unicode hex="093D"/>
  <outline>
    <contour>
      <point x="420" y="187" type="curve" smooth="yes"/>
      <point x="420" y="261"/>
      <point x="388" y="306"/>
      <point x="298" y="379" type="curve" smooth="yes"/>
      <point x="222" y="441"/>
      <point x="198" y="464"/>
      <point x="198" y="499" type="curve" smooth="yes"/>
      <point x="198" y="519"/>
      <point x="206" y="532"/>
      <point x="219" y="540" type="curve" smooth="yes"/>
      <point x="231" y="547"/>
      <point x="245" y="551"/>
      <point x="297" y="551" type="curve" smooth="yes"/>
      <point x="399" y="551" type="line"/>
      <point x="399" y="622" type="line"/>
      <point x="306" y="622" type="line" smooth="yes"/>
      <point x="222" y="622"/>
      <point x="190" y="612"/>
      <point x="164" y="593" type="curve" smooth="yes"/>
      <point x="134" y="573"/>
      <point x="118" y="542"/>
      <point x="118" y="500" type="curve" smooth="yes"/>
      <point x="118" y="452"/>
      <point x="140" y="409"/>
      <point x="229" y="337" type="curve" smooth="yes"/>
      <point x="315" y="269"/>
      <point x="338" y="239"/>
      <point x="338" y="188" type="curve" smooth="yes"/>
      <point x="338" y="139"/>
      <point x="305" y="115"/>
      <point x="257" y="115" type="curve" smooth="yes"/>
      <point x="190" y="115"/>
      <point x="146" y="174"/>
      <point x="95" y="266" type="curve"/>
      <point x="26" y="231" type="line"/>
      <point x="107" y="85"/>
      <point x="172" y="42"/>
      <point x="265" y="42" type="curve" smooth="yes"/>
      <point x="358" y="42"/>
      <point x="420" y="99"/>
    </contour>
  </outline>
</glyph>
<glyph name="aavowelsigndeva" format="2">
  <advance width="259"/>
  <unicode hex="093E"/>
  <outline>
    <contour>
      <point x="170" y="551" type="line"/>
      <point x="273" y="551" type="line"/>
      <point x="273" y="622" type="line"/>
      <point x="0" y="622" type="line"/>
      <point x="0" y="551" type="line"/>
      <point x="89" y="551" type="line"/>
      <point x="89" y="0" type="line"/>
      <point x="170" y="0" type="line"/>
    </contour>
  </outline>
</glyph>
<glyph name="iivowelsigndeva" format="2">
  <advance width="259"/>
  <unicode hex="0940"/>
  <outline>
    <contour>
      <point x="-185" y="615" type="curve"/>
      <point x="-105" y="615" type="line"/>
      <point x="-124" y="653"/>
      <point x="-139" y="688"/>
      <point x="-139" y="733" type="curve" smooth="yes"/>
      <point x="-139" y="790"/>
      <point x="-110" y="825"/>
      <point x="-57" y="825" type="curve" smooth="yes"/>
      <point x="16" y="825"/>
      <point x="50" y="761"/>
      <point x="87" y="622" type="curve"/>
      <point x="0" y="622" type="line"/>
      <point x="0" y="551" type="line"/>
      <point x="89" y="551" type="line"/>
      <point x="89" y="0" type="line"/>
      <point x="170" y="0" type="line"/>
      <point x="170" y="551" type="line"/>
      <point x="273" y="551" type="line"/>
      <point x="273" y="622" type="line"/>
      <point x="163" y="622" type="line"/>
      <point x="111" y="814"/>
      <point x="58" y="896"/>
      <point x="-61" y="896" type="curve" smooth="yes"/>
      <point x="-161" y="896"/>
      <point x="-220" y="834"/>
      <point x="-220" y="748" type="curve" smooth="yes"/>
      <point x="-220" y="703"/>
      <point x="-208" y="661"/>
    </contour>
  </outline>
</glyph>
<glyph name="uvowelsigndeva" format="2">
  <unicode hex="0941"/>
  <outline>
    <contour>
      <point x="-248" y="-12" type="curve"/>
      <point x="-222" y="-79" type="line"/>
      <point x="-194" y="-65"/>
      <point x="-167" y="-57"/>
      <point x="-131" y="-57" type="curve" smooth="yes"/>
      <point x="-90" y="-57"/>
      <point x="-51" y="-78"/>
      <point x="-51" y="-122" type="curve" smooth="yes"/>
      <point x="-51" y="-170"/>
      <point x="-86" y="-196"/>
      <point x="-157" y="-196" type="curve" smooth="yes"/>
      <point x="-256" y="-196"/>
      <point x="-317" y="-154"/>
      <point x="-394" y="-57" type="curve"/>
      <point x="-455" y="-100" type="line"/>
      <point x="-375" y="-202"/>
      <point x="-286" y="-268"/>
      <point x="-157" y="-268" type="curve" smooth="yes"/>
      <point x="-42" y="-268"/>
      <point x="22" y="-210"/>
      <point x="22" y="-129" type="curve" smooth="yes"/>
      <point x="22" y="-45"/>
      <point x="-36" y="11"/>
      <point x="-136" y="11" type="curve" smooth="yes"/>
      <point x="-173" y="11"/>
      <point x="-213" y="3"/>
    </contour>
  </outline>
</glyph>
<glyph name="uuvowelsigndeva" format="2">
  <unicode hex="0942"/>
  <outline>
    <contour>
      <point x="-63" y="-245" type="curve"/>
      <point x="-88" y="-175" type="line"/>
      <point x="-116" y="-188"/>
      <point x="-142" y="-196"/>
      <point x="-178" y="-196" type="curve" smooth="yes"/>
      <point x="-219" y="-196"/>
      <point x="-259" y="-179"/>
      <point x="-259" y="-128" type="curve" smooth="yes"/>
      <point x="-259" y="-85"/>
      <point x="-224" y="-57"/>
      <point x="-156" y="-57" type="curve" smooth="yes"/>
      <point x="-59" y="-57"/>
      <point x="11" y="-118"/>
      <point x="83" y="-228" type="curve"/>
      <point x="145" y="-189" type="line"/>
      <point x="76" y="-83"/>
      <point x="-12" y="11"/>
      <point x="-162" y="11" type="curve" smooth="yes"/>
      <point x="-267" y="11"/>
      <point x="-333" y="-50"/>
      <point x="-333" y="-126" type="curve" smooth="yes"/>
      <point x="-333" y="-210"/>
      <point x="-273" y="-268"/>
      <point x="-173" y="-268" type="curve" smooth="yes"/>
      <point x="-136" y="-268"/>
      <point x="-97" y="-259"/>
    </contour>
  </outline>
</glyph>
<glyph name="rvocalicvowelsigndeva" format="2">
  <unicode hex="0943"/>
  <outline>
    <contour>
      <point x="27" y="-233" type="curve"/>
      <point x="2" y="-164" type="line"/>
      <point x="-44" y="-188"/>
      <point x="-69" y="-197"/>
      <point x="-111" y="-197" type="curve" smooth="yes"/>
      <point x="-152" y="-197"/>
      <point x="-192" y="-178"/>
      <point x="-192" y="-132" type="curve" smooth="yes"/>
      <point x="-192" y="-88"/>
      <point x="-160" y="-57"/>
      <point x="-82" y="-48" type="curve"/>
      <point x="-89" y="18" type="line"/>
      <point x="-206" y="11"/>
      <point x="-266" y="-52"/>
      <point x="-266" y="-126" type="curve" smooth="yes"/>
      <point x="-266" y="-210"/>
      <point x="-206" y="-268"/>
      <point x="-106" y="-268" type="curve" smooth="yes"/>
      <point x="-52" y="-268"/>
      <point x="-7" y="-251"/>
    </contour>
  </outline>
</glyph>
<glyph name="rrvocalicvowelsigndeva" format="2">
  <unicode hex="0944"/>
  <outline>
    <contour>
      <point x="27" y="-204" type="curve"/>
      <point x="2" y="-141" type="line"/>
      <point x="-43" y="-161"/>
      <point x="-69" y="-169"/>
      <point x="-111" y="-169" type="curve" smooth="yes"/>
      <point x="-159" y="-169"/>
      <point x="-192" y="-152"/>
      <point x="-192" y="-115" type="curve" smooth="yes"/>
      <point x="-192" y="-82"/>
      <point x="-160" y="-55"/>
      <point x="-82" y="-48" type="curve"/>
      <point x="-89" y="18" type="line"/>
      <point x="-206" y="12"/>
      <point x="-266" y="-44"/>
      <point x="-266" y="-107" type="curve" smooth="yes"/>
      <point x="-266" y="-193"/>
      <point x="-188" y="-238"/>
      <point x="-106" y="-238" type="curve" smooth="yes"/>
      <point x="-52" y="-238"/>
      <point x="-7" y="-222"/>
    </contour>
    <contour>
      <point x="66" y="-359" type="curve"/>
      <point x="42" y="-296" type="line"/>
      <point x="-4" y="-316"/>
      <point x="-30" y="-324"/>
      <point x="-72" y="-324" type="curve" smooth="yes"/>
      <point x="-122" y="-324"/>
      <point x="-153" y="-308"/>
      <point x="-153" y="-271" type="curve" smooth="yes"/>
      <point x="-153" y="-253"/>
      <point x="-145" y="-238"/>
      <point x="-126" y="-222" type="curve"/>
      <point x="-201" y="-195" type="line"/>
      <point x="-217" y="-216"/>
      <point x="-227" y="-239"/>
      <point x="-227" y="-262" type="curve" smooth="yes"/>
      <point x="-227" y="-338"/>
      <point x="-173" y="-394"/>
      <point x="-67" y="-394" type="curve" smooth="yes"/>
      <point x="-13" y="-394"/>
      <point x="32" y="-377"/>
    </contour>
  </outline>
</glyph>
<glyph name="ecandravowelsigndeva" format="2">
  <unicode hex="0945"/>
  <outline>
    <contour>
      <point x="69" y="863" type="curve"/>
      <point x="-7" y="889" type="line"/>
      <point x="-29" y="799"/>
      <point x="-59" y="749"/>
      <point x="-135" y="749" type="curve" smooth="yes"/>
      <point x="-206" y="749"/>
      <point x="-246" y="793"/>
      <point x="-281" y="887" type="curve"/>
      <point x="-352" y="863" type="line"/>
      <point x="-307" y="737"/>
      <point x="-234" y="680"/>
      <point x="-138" y="680" type="curve" smooth="yes"/>
      <point x="-36" y="680"/>
      <point x="38" y="729"/>
    </contour>
  </outline>
</glyph>
<glyph name="evowelsigndeva" format="2">
  <unicode hex="0947"/>
  <outline>
    <contour>
      <point x="-169" y="615" type="curve"/>
      <point x="-94" y="615" type="line"/>
      <point x="-151" y="829"/>
      <point x="-210" y="896"/>
      <point x="-318" y="896" type="curve" smooth="yes"/>
      <point x="-355" y="896"/>
      <point x="-381" y="892"/>
      <point x="-409" y="882" type="curve"/>
      <point x="-385" y="809" type="line"/>
      <point x="-366" y="816"/>
      <point x="-345" y="823"/>
      <point x="-315" y="823" type="curve" smooth="yes"/>
      <point x="-247" y="823"/>
      <point x="-211" y="773"/>
    </contour>
  </outline>
</glyph>
<glyph name="viramadeva" format="2">
  <unicode hex="094D"/>
  <outline>
    <contour>
      <point x="-179" y="-44" type="curve"/>
      <point x="-167" y="-118" type="line"/>
      <point x="-155" y="-115"/>
      <point x="-141" y="-113"/>
      <point x="-125" y="-113" type="curve" smooth="yes"/>
      <point x="-35" y="-113"/>
      <point x="27" y="-162"/>
      <point x="94" y="-268" type="curve"/>
      <point x="151" y="-227" type="line"/>
      <point x="84" y="-125"/>
      <point x="4" y="-39"/>
      <point x="-131" y="-39" type="curve" smooth="yes"/>
      <point x="-148" y="-39"/>
      <point x="-165" y="-41"/>
    </contour>
  </outline>
</glyph>
<glyph name="uni094E" format="2">
  <advance width="273"/>
  <unicode hex="094E"/>
  <outline>
    <contour>
      <point x="184" y="551" type="line"/>
      <point x="288" y="551" type="line"/>
      <point x="288" y="622" type="line"/>
      <point x="103" y="622" type="line"/>
      <point x="103" y="0" type="line"/>
      <point x="184" y="0" type="line"/>
    </contour>
  </outline>
</glyph>
<glyph name="omdeva" format="2">
  <advance width="902"/>
  <unicode hex="0950"/>
  <outline>
    <contour>
      <point x="361" y="394" type="curve"/>
      <point x="333" y="346" type="line"/>
      <point x="363" y="302"/>
      <point x="394" y="274"/>
      <point x="457" y="274" type="curve" smooth="yes"/>
      <point x="519" y="274"/>
      <point x="554" y="308"/>
      <point x="583" y="357" type="curve" smooth="yes"/>
      <point x="610" y="401" type="line" smooth="yes"/>
      <point x="642" y="455"/>
      <point x="665" y="476"/>
      <point x="702" y="476" type="curve" smooth="yes"/>
      <point x="746" y="476"/>
      <point x="778" y="438"/>
      <point x="778" y="369" type="curve" smooth="yes"/>
      <point x="778" y="297"/>
      <point x="733" y="262"/>
      <point x="686" y="262" type="curve" smooth="yes"/>
      <point x="644" y="262"/>
      <point x="616" y="279"/>
      <point x="586" y="307" type="curve"/>
      <point x="537" y="254" type="line"/>
      <point x="580" y="216"/>
      <point x="622" y="191"/>
      <point x="683" y="191" type="curve" smooth="yes"/>
      <point x="790" y="191"/>
      <point x="858" y="260"/>
      <point x="858" y="368" type="curve" smooth="yes"/>
      <point x="858" y="493"/>
      <point x="781" y="547"/>
      <point x="705" y="547" type="curve" smooth="yes"/>
      <point x="633" y="547"/>
      <point x="592" y="518"/>
      <point x="546" y="443" type="curve" smooth="yes"/>
      <point x="516" y="396" type="line"/>
      <point x="492" y="357"/>
      <point x="473" y="344"/>
      <point x="446" y="344" type="curve" smooth="yes"/>
      <point x="418" y="344"/>
      <point x="395" y="356"/>
    </contour>
    <contour>
      <point x="146" y="594" type="curve"/>
      <point x="171" y="525" type="line"/>
      <point x="216" y="548"/>
      <point x="252" y="562"/>
      <point x="302" y="562" type="curve" smooth="yes"/>
      <point x="343" y="562"/>
      <point x="380" y="542"/>
      <point x="380" y="494" type="curve" smooth="yes"/>
      <point x="380" y="444"/>
      <point x="346" y="414"/>
      <point x="255" y="411" type="curve"/>
      <point x="260" y="341" type="line"/>
      <point x="391" y="344"/>
      <point x="459" y="408"/>
      <point x="459" y="495" type="curve" smooth="yes"/>
      <point x="459" y="574"/>
      <point x="402" y="632"/>
      <point x="298" y="632" type="curve" smooth="yes"/>
      <point x="232" y="632"/>
      <point x="181" y="612"/>
    </contour>
    <contour>
      <point x="470" y="218" type="curve" smooth="yes"/>
      <point x="470" y="264"/>
      <point x="444" y="302"/>
      <point x="410" y="341" type="curve"/>
      <point x="376" y="375" type="line"/>
      <point x="278" y="374" type="line"/>
      <point x="340" y="335"/>
      <point x="391" y="291"/>
      <point x="391" y="227" type="curve" smooth="yes"/>
      <point x="391" y="175"/>
      <point x="355" y="153"/>
      <point x="305" y="153" type="curve" smooth="yes"/>
      <point x="222" y="153"/>
      <point x="157" y="240"/>
      <point x="100" y="382" type="curve"/>
      <point x="29" y="356" type="line"/>
      <point x="113" y="159"/>
      <point x="197" y="80"/>
      <point x="312" y="80" type="curve" smooth="yes"/>
      <point x="401" y="80"/>
      <point x="470" y="125"/>
    </contour>
    <contour>
      <point x="502" y="816" type="curve" smooth="yes"/>
      <point x="502" y="788"/>
      <point x="524" y="766"/>
      <point x="552" y="766" type="curve" smooth="yes"/>
      <point x="579" y="766"/>
      <point x="602" y="788"/>
      <point x="602" y="816" type="curve" smooth="yes"/>
      <point x="602" y="844"/>
      <point x="579" y="866"/>
      <point x="552" y="866" type="curve" smooth="yes"/>
      <point x="524" y="866"/>
      <point x="502" y="844"/>
    </contour>
    <contour>
      <point x="759" y="833" type="curve"/>
      <point x="686" y="858" type="line"/>
      <point x="664" y="769"/>
      <point x="632" y="716"/>
      <point x="555" y="716" type="curve" smooth="yes"/>
      <point x="484" y="716"/>
      <point x="442" y="762"/>
      <point x="408" y="856" type="curve"/>
      <point x="339" y="833" type="line"/>
      <point x="384" y="706"/>
      <point x="457" y="649"/>
      <point x="553" y="649" type="curve" smooth="yes"/>
      <point x="654" y="649"/>
      <point x="728" y="698"/>
    </contour>
  </outline>
</glyph>
<glyph name="udattadeva" format="2">
  <unicode hex="0951"/>
  <outline>
    <contour>
      <point x="-94" y="671" type="line"/>
      <point x="-94" y="872" type="line"/>
      <point x="-165" y="872" type="line"/>
      <point x="-165" y="671" type="line"/>
    </contour>
  </outline>
</glyph>
<glyph name="anudattadeva" format="2">
  <unicode hex="0952"/>
  <outline>
    <contour>
      <point x="-413" y="-77" type="line"/>
      <point x="-413" y="-148" type="line"/>
      <point x="-84" y="-148" type="line"/>
      <point x="-84" y="-77" type="line"/>
    </contour>
  </outline>
</glyph>
<glyph name="candralongevowelsigndeva" format="2">
  <unicode hex="0955"/>
  <outline>
    <contour>
      <point x="-306" y="719" type="line"/>
      <point x="-306" y="655" type="line"/>
      <point x="22" y="655" type="line"/>
      <point x="22" y="719" type="line"/>
    </contour>
    <contour>
      <point x="42" y="871" type="curve"/>
      <point x="-30" y="896" type="line"/>
      <point x="-49" y="826"/>
      <point x="-77" y="797"/>
      <point x="-144" y="797" type="curve" smooth="yes"/>
      <point x="-207" y="797"/>
      <point x="-242" y="825"/>
      <point x="-271" y="895" type="curve"/>
      <point x="-339" y="871" type="line"/>
      <point x="-299" y="771"/>
      <point x="-232" y="728"/>
      <point x="-146" y="728" type="curve" smooth="yes"/>
      <point x="-55" y="728"/>
      <point x="15" y="765"/>
    </contour>
  </outline>
</glyph>
<glyph name="uevowelsigndeva" format="2">
  <unicode hex="0956"/>
  <outline>
    <contour>
      <point x="-305" y="-182" type="curve" smooth="yes"/>
      <point x="-218" y="-182"/>
      <point x="-150" y="-151"/>
      <point x="-109" y="-118" type="curve"/>
      <point x="-133" y="-52" type="line"/>
      <point x="-179" y="-86"/>
      <point x="-224" y="-111"/>
      <point x="-305" y="-111" type="curve" smooth="yes"/>
      <point x="-387" y="-111"/>
      <point x="-432" y="-86"/>
      <point x="-478" y="-52" type="curve"/>
      <point x="-501" y="-118" type="line"/>
      <point x="-460" y="-151"/>
      <point x="-392" y="-182"/>
    </contour>
  </outline>
</glyph>
<glyph name="uuevowelsigndeva" format="2">
  <unicode hex="0957"/>
  <outline>
    <contour>
      <point x="-305" y="-150" type="curve" smooth="yes"/>
      <point x="-222" y="-150"/>
      <point x="-150" y="-120"/>
      <point x="-109" y="-86" type="curve"/>
      <point x="-133" y="-20" type="line"/>
      <point x="-179" y="-55"/>
      <point x="-224" y="-79"/>
      <point x="-305" y="-79" type="curve" smooth="yes"/>
      <point x="-387" y="-79"/>
      <point x="-432" y="-55"/>
      <point x="-478" y="-20" type="curve"/>
      <point x="-501" y="-86" type="line"/>
      <point x="-458" y="-121"/>
      <point x="-391" y="-150"/>
    </contour>
    <contour>
      <point x="-305" y="-268" type="curve" smooth="yes"/>
      <point x="-218" y="-268"/>
      <point x="-156" y="-243"/>
      <point x="-109" y="-216" type="curve"/>
      <point x="-133" y="-150" type="line"/>
      <point x="-190" y="-185"/>
      <point x="-238" y="-196"/>
      <point x="-305" y="-196" type="curve" smooth="yes"/>
      <point x="-372" y="-196"/>
      <point x="-420" y="-185"/>
      <point x="-478" y="-150" type="curve"/>
      <point x="-501" y="-216" type="line"/>
      <point x="-454" y="-243"/>
      <point x="-392" y="-268"/>
    </contour>
  </outline>
</glyph>
<glyph name="rrvocalicdeva" format="2">
  <advance width="853"/>
  <unicode hex="0960"/>
  <outline>
    <contour>
      <point x="462" y="551" type="line"/>
      <point x="867" y="551" type="line"/>
      <point x="867" y="622" type="line"/>
      <point x="0" y="622" type="line"/>
      <point x="0" y="551" type="line"/>
      <point x="382" y="551" type="line"/>
      <point x="382" y="0" type="line"/>
      <point x="462" y="0" type="line"/>
    </contour>
    <contour>
      <point x="27" y="417" type="curve"/>
      <point x="55" y="343" type="line"/>
      <point x="110" y="371"/>
      <point x="143" y="380"/>
      <point x="181" y="380" type="curve" smooth="yes"/>
      <point x="242" y="380"/>
      <point x="276" y="347"/>
      <point x="343" y="258" type="curve"/>
      <point x="382" y="267" type="line"/>
      <point x="403" y="298" type="line"/>
      <point x="317" y="415"/>
      <point x="266" y="456"/>
      <point x="179" y="456" type="curve" smooth="yes"/>
      <point x="120" y="456"/>
      <point x="72" y="438"/>
    </contour>
    <contour>
      <point x="127" y="65" type="line"/>
      <point x="408" y="251" type="line"/>
      <point x="369" y="307" type="line"/>
      <point x="80" y="132" type="line"/>
    </contour>
    <contour>
      <point x="442" y="328" type="curve"/>
      <point x="455" y="260" type="line"/>
      <point x="504" y="261"/>
      <point x="579" y="273"/>
      <point x="613" y="286" type="curve"/>
      <point x="625" y="259"/>
      <point x="655" y="209"/>
      <point x="671" y="184" type="curve"/>
      <point x="719" y="184" type="line"/>
      <point x="730" y="217" type="line"/>
      <point x="713" y="242"/>
      <point x="694" y="271"/>
      <point x="676" y="303" type="curve"/>
      <point x="702" y="314"/>
      <point x="724" y="336"/>
      <point x="724" y="373" type="curve" smooth="yes"/>
      <point x="724" y="417"/>
      <point x="692" y="450"/>
      <point x="641" y="450" type="curve" smooth="yes"/>
      <point x="607" y="450"/>
      <point x="574" y="430"/>
      <point x="574" y="387" type="curve" smooth="yes"/>
      <point x="574" y="370"/>
      <point x="579" y="354"/>
      <point x="588" y="338" type="curve"/>
      <point x="588" y="347" type="line"/>
      <point x="557" y="337"/>
      <point x="495" y="330"/>
    </contour>
    <contour>
      <point x="840" y="27" type="curve"/>
      <point x="815" y="90" type="line"/>
      <point x="769" y="71"/>
      <point x="744" y="63"/>
      <point x="702" y="63" type="curve" smooth="yes"/>
      <point x="653" y="63"/>
      <point x="621" y="79"/>
      <point x="621" y="116" type="curve" smooth="yes"/>
      <point x="621" y="144"/>
      <point x="645" y="175"/>
      <point x="719" y="184" type="curve"/>
      <point x="682" y="246" type="line"/>
      <point x="591" y="228"/>
      <point x="547" y="180"/>
      <point x="547" y="125" type="curve" smooth="yes"/>
      <point x="547" y="51"/>
      <point x="606" y="-7"/>
      <point x="707" y="-7" type="curve" smooth="yes"/>
      <point x="761" y="-7"/>
      <point x="805" y="10"/>
    </contour>
    <contour>
      <point x="879" y="-127" type="curve"/>
      <point x="854" y="-64" type="line"/>
      <point x="808" y="-84"/>
      <point x="783" y="-92"/>
      <point x="741" y="-92" type="curve" smooth="yes"/>
      <point x="691" y="-92"/>
      <point x="660" y="-76"/>
      <point x="660" y="-39" type="curve" smooth="yes"/>
      <point x="660" y="-17"/>
      <point x="669" y="-1"/>
      <point x="702" y="20" type="curve"/>
      <point x="629" y="52" type="line"/>
      <point x="601" y="30"/>
      <point x="586" y="0"/>
      <point x="586" y="-30" type="curve" smooth="yes"/>
      <point x="586" y="-106"/>
      <point x="640" y="-162"/>
      <point x="746" y="-162" type="curve" smooth="yes"/>
      <point x="800" y="-162"/>
      <point x="844" y="-145"/>
    </contour>
  </outline>
</glyph>
<glyph name="llvocalicdeva" format="2">
  <advance width="699"/>
  <unicode hex="0961"/>
  <outline>
    <contour>
      <point x="757" y="-164" type="curve"/>
      <point x="732" y="-101" type="line"/>
      <point x="686" y="-120"/>
      <point x="661" y="-128"/>
      <point x="619" y="-128" type="curve" smooth="yes"/>
      <point x="569" y="-128"/>
      <point x="538" y="-112"/>
      <point x="538" y="-75" type="curve" smooth="yes"/>
      <point x="538" y="-53"/>
      <point x="547" y="-38"/>
      <point x="580" y="-16" type="curve"/>
      <point x="507" y="16" type="line"/>
      <point x="479" y="-6"/>
      <point x="464" y="-36"/>
      <point x="464" y="-66" type="curve" smooth="yes"/>
      <point x="464" y="-142"/>
      <point x="518" y="-198"/>
      <point x="624" y="-198" type="curve" smooth="yes"/>
      <point x="678" y="-198"/>
      <point x="722" y="-181"/>
    </contour>
    <contour>
      <point x="718" y="-9" type="curve"/>
      <point x="693" y="54" type="line"/>
      <point x="647" y="35"/>
      <point x="622" y="26"/>
      <point x="580" y="26" type="curve" smooth="yes"/>
      <point x="531" y="26"/>
      <point x="499" y="43"/>
      <point x="499" y="80" type="curve" smooth="yes"/>
      <point x="499" y="113"/>
      <point x="525" y="144"/>
      <point x="634" y="152" type="curve"/>
      <point x="602" y="215" type="line"/>
      <point x="481" y="205"/>
      <point x="425" y="151"/>
      <point x="425" y="88" type="curve" smooth="yes"/>
      <point x="425" y="15"/>
      <point x="484" y="-43"/>
      <point x="584" y="-43" type="curve" smooth="yes"/>
      <point x="639" y="-43"/>
      <point x="683" y="-26"/>
    </contour>
    <contour>
      <point x="656" y="264" type="curve" smooth="yes"/>
      <point x="656" y="382"/>
      <point x="571" y="426"/>
      <point x="506" y="426" type="curve" smooth="yes"/>
      <point x="393" y="426"/>
      <point x="312" y="359"/>
      <point x="279" y="232" type="curve"/>
      <point x="356" y="208" type="line"/>
      <point x="391" y="329"/>
      <point x="446" y="356"/>
      <point x="496" y="356" type="curve" smooth="yes"/>
      <point x="543" y="356"/>
      <point x="575" y="328"/>
      <point x="575" y="268" type="curve" smooth="yes"/>
      <point x="575" y="235"/>
      <point x="567" y="208"/>
      <point x="557" y="183" type="curve"/>
      <point x="634" y="152" type="line"/>
      <point x="645" y="181"/>
      <point x="656" y="217"/>
    </contour>
    <contour>
      <point x="204" y="426" type="curve" smooth="yes"/>
      <point x="131" y="426"/>
      <point x="45" y="381"/>
      <point x="45" y="275" type="curve" smooth="yes"/>
      <point x="45" y="169"/>
      <point x="138" y="87"/>
      <point x="255" y="-12" type="curve"/>
      <point x="309" y="40" type="line"/>
      <point x="192" y="137"/>
      <point x="126" y="195"/>
      <point x="126" y="271" type="curve" smooth="yes"/>
      <point x="126" y="319"/>
      <point x="155" y="353"/>
      <point x="209" y="353" type="curve" smooth="yes"/>
      <point x="260" y="353"/>
      <point x="296" y="327"/>
      <point x="337" y="292" type="curve"/>
      <point x="369" y="357" type="line"/>
      <point x="320" y="401"/>
      <point x="269" y="426"/>
    </contour>
    <contour>
      <point x="470" y="551" type="line"/>
      <point x="470" y="413" type="line"/>
      <point x="550" y="378" type="line"/>
      <point x="550" y="551" type="line"/>
      <point x="714" y="551" type="line"/>
      <point x="714" y="622" type="line"/>
      <point x="0" y="622" type="line"/>
      <point x="0" y="551" type="line"/>
    </contour>
  </outline>
</glyph>
<glyph name="lvocalicvowelsigndeva" format="2">
  <unicode hex="0962"/>
  <outline>
    <contour>
      <point x="-246" y="-102" type="curve"/>
      <point x="-208" y="-54" type="line"/>
      <point x="-248" y="-19"/>
      <point x="-290" y="0"/>
      <point x="-341" y="0" type="curve" smooth="yes"/>
      <point x="-398" y="0"/>
      <point x="-466" y="-35"/>
      <point x="-466" y="-118" type="curve" smooth="yes"/>
      <point x="-466" y="-201"/>
      <point x="-395" y="-265"/>
      <point x="-304" y="-343" type="curve"/>
      <point x="-258" y="-293" type="line"/>
      <point x="-345" y="-223"/>
      <point x="-394" y="-180"/>
      <point x="-394" y="-125" type="curve" smooth="yes"/>
      <point x="-394" y="-90"/>
      <point x="-373" y="-65"/>
      <point x="-332" y="-65" type="curve" smooth="yes"/>
      <point x="-299" y="-65"/>
      <point x="-272" y="-81"/>
    </contour>
    <contour>
      <point x="-104" y="0" type="curve" smooth="yes"/>
      <point x="-205" y="0"/>
      <point x="-260" y="-68"/>
      <point x="-286" y="-157" type="curve"/>
      <point x="-216" y="-175" type="line"/>
      <point x="-190" y="-83"/>
      <point x="-151" y="-63"/>
      <point x="-115" y="-63" type="curve" smooth="yes"/>
      <point x="-80" y="-63"/>
      <point x="-57" y="-80"/>
      <point x="-57" y="-118" type="curve" smooth="yes"/>
      <point x="-57" y="-145"/>
      <point x="-66" y="-165"/>
      <point x="-80" y="-188" type="curve"/>
      <point x="-32" y="-160" type="line"/>
      <point x="-141" y="-173"/>
      <point x="-186" y="-220"/>
      <point x="-186" y="-281" type="curve" smooth="yes"/>
      <point x="-186" y="-348"/>
      <point x="-139" y="-394"/>
      <point x="-60" y="-394" type="curve" smooth="yes"/>
      <point x="-17" y="-394"/>
      <point x="18" y="-381"/>
      <point x="45" y="-367" type="curve"/>
      <point x="26" y="-305" type="line"/>
      <point x="-9" y="-323"/>
      <point x="-27" y="-330"/>
      <point x="-59" y="-330" type="curve" smooth="yes"/>
      <point x="-90" y="-330"/>
      <point x="-119" y="-316"/>
      <point x="-119" y="-284" type="curve" smooth="yes"/>
      <point x="-119" y="-250"/>
      <point x="-90" y="-229"/>
      <point x="-15" y="-221" type="curve"/>
      <point x="4" y="-190"/>
      <point x="16" y="-154"/>
      <point x="16" y="-115" type="curve" smooth="yes"/>
      <point x="16" y="-31"/>
      <point x="-52" y="0"/>
    </contour>
  </outline>
</glyph>
<glyph name="llvocalicvowelsigndeva" format="2">
  <unicode hex="0963"/>
  <outline>
    <contour>
      <point x="-1" y="-277" type="curve" smooth="yes"/>
      <point x="42" y="-277"/>
      <point x="77" y="-265"/>
      <point x="104" y="-252" type="curve"/>
      <point x="84" y="-191" type="line"/>
      <point x="50" y="-209"/>
      <point x="31" y="-216"/>
      <point x="0" y="-216" type="curve" smooth="yes"/>
      <point x="-31" y="-216"/>
      <point x="-61" y="-205"/>
      <point x="-61" y="-180" type="curve" smooth="yes"/>
      <point x="-61" y="-157"/>
      <point x="-42" y="-138"/>
      <point x="16" y="-128" type="curve"/>
      <point x="16" y="-125"/>
      <point x="16" y="-123"/>
      <point x="16" y="-120" type="curve"/>
      <point x="16" y="-34"/>
      <point x="-52" y="0"/>
      <point x="-104" y="0" type="curve" smooth="yes"/>
      <point x="-203" y="0"/>
      <point x="-259" y="-66"/>
      <point x="-286" y="-157" type="curve"/>
      <point x="-216" y="-175" type="line"/>
      <point x="-190" y="-83"/>
      <point x="-151" y="-63"/>
      <point x="-115" y="-63" type="curve" smooth="yes"/>
      <point x="-80" y="-63"/>
      <point x="-63" y="-79"/>
      <point x="-55" y="-116" type="curve"/>
      <point x="-30" y="-76" type="line"/>
      <point x="-103" y="-98"/>
      <point x="-127" y="-134"/>
      <point x="-127" y="-176" type="curve" smooth="yes"/>
      <point x="-127" y="-244"/>
      <point x="-65" y="-277"/>
    </contour>
    <contour>
      <point x="-341" y="0" type="curve" smooth="yes"/>
      <point x="-398" y="0"/>
      <point x="-466" y="-35"/>
      <point x="-466" y="-118" type="curve" smooth="yes"/>
      <point x="-466" y="-201"/>
      <point x="-395" y="-265"/>
      <point x="-304" y="-343" type="curve"/>
      <point x="-258" y="-293" type="line"/>
      <point x="-345" y="-223"/>
      <point x="-394" y="-180"/>
      <point x="-394" y="-125" type="curve" smooth="yes"/>
      <point x="-394" y="-90"/>
      <point x="-373" y="-65"/>
      <point x="-332" y="-65" type="curve" smooth="yes"/>
      <point x="-299" y="-65"/>
      <point x="-272" y="-81"/>
      <point x="-246" y="-102" type="curve"/>
      <point x="-208" y="-54" type="line"/>
      <point x="-248" y="-19"/>
      <point x="-290" y="0"/>
    </contour>
    <contour>
      <point x="38" y="-394" type="curve" smooth="yes"/>
      <point x="81" y="-394"/>
      <point x="116" y="-381"/>
      <point x="143" y="-368" type="curve"/>
      <point x="124" y="-307" type="line"/>
      <point x="89" y="-325"/>
      <point x="70" y="-332"/>
      <point x="39" y="-332" type="curve" smooth="yes"/>
      <point x="8" y="-332"/>
      <point x="-21" y="-318"/>
      <point x="-21" y="-287" type="curve" smooth="yes"/>
      <point x="-21" y="-277"/>
      <point x="-21" y="-267"/>
      <point x="-21" y="-272" type="curve"/>
      <point x="-81" y="-236" type="line"/>
      <point x="-86" y="-254"/>
      <point x="-88" y="-268"/>
      <point x="-88" y="-283" type="curve" smooth="yes"/>
      <point x="-88" y="-350"/>
      <point x="-42" y="-394"/>
    </contour>
  </outline>
</glyph>
<glyph name="dandadeva" format="2">
  <advance width="379"/>
  <unicode hex="0964"/>
  <outline>
    <contour>
      <point x="194" y="622" type="line"/>
      <point x="194" y="0" type="line"/>
      <point x="275" y="0" type="line"/>
      <point x="275" y="622" type="line"/>
    </contour>
  </outline>
</glyph>
<glyph name="zerodeva" format="2">
  <advance width="551"/>
  <unicode hex="0966"/>
  <outline>
    <contour>
      <point x="275" y="121" type="curve" smooth="yes"/>
      <point x="393" y="121"/>
      <point x="476" y="202"/>
      <point x="476" y="319" type="curve" smooth="yes"/>
      <point x="476" y="437"/>
      <point x="392" y="520"/>
      <point x="274" y="520" type="curve" smooth="yes"/>
      <point x="157" y="520"/>
      <point x="75" y="438"/>
      <point x="75" y="321" type="curve" smooth="yes"/>
      <point x="75" y="204"/>
      <point x="158" y="121"/>
    </contour>
    <contour>
      <point x="273" y="192" type="curve" smooth="yes"/>
      <point x="203" y="192"/>
      <point x="157" y="243"/>
      <point x="157" y="318" type="curve" smooth="yes"/>
      <point x="157" y="394"/>
      <point x="207" y="449"/>
      <point x="277" y="449" type="curve" smooth="yes"/>
      <point x="347" y="449"/>
      <point x="394" y="398"/>
      <point x="394" y="322" type="curve" smooth="yes"/>
      <point x="394" y="247"/>
      <point x="344" y="192"/>
    </contour>
  </outline>
</glyph>
<glyph name="onedeva" format="2">
  <advance width="551"/>
  <unicode hex="0967"/>
  <outline>
    <contour>
      <point x="275" y="632" type="curve" smooth="yes"/>
      <point x="176" y="632"/>
      <point x="134" y="570"/>
      <point x="134" y="517" type="curve" smooth="yes"/>
      <point x="134" y="453"/>
      <point x="166" y="414"/>
      <point x="231" y="386" type="curve"/>
      <point x="280" y="444" type="line"/>
      <point x="228" y="459"/>
      <point x="210" y="481"/>
      <point x="210" y="510" type="curve" smooth="yes"/>
      <point x="210" y="542"/>
      <point x="234" y="562"/>
      <point x="276" y="562" type="curve" smooth="yes"/>
      <point x="317" y="562"/>
      <point x="348" y="541"/>
      <point x="348" y="498" type="curve" smooth="yes"/>
      <point x="348" y="431"/>
      <point x="273" y="366"/>
      <point x="132" y="276" type="curve"/>
      <point x="128" y="254" type="line"/>
      <point x="310" y="103" type="line" smooth="yes"/>
      <point x="341" y="77"/>
      <point x="350" y="61"/>
      <point x="350" y="34" type="curve" smooth="yes"/>
      <point x="350" y="9"/>
      <point x="339" y="-10"/>
      <point x="321" y="-30" type="curve"/>
      <point x="386" y="-79" type="line"/>
      <point x="415" y="-40"/>
      <point x="433" y="-8"/>
      <point x="433" y="34" type="curve" smooth="yes"/>
      <point x="433" y="81"/>
      <point x="415" y="119"/>
      <point x="362" y="160" type="curve" smooth="yes"/>
      <point x="212" y="279" type="line"/>
      <point x="207" y="232" type="line"/>
      <point x="375" y="347"/>
      <point x="429" y="415"/>
      <point x="429" y="499" type="curve" smooth="yes"/>
      <point x="429" y="575"/>
      <point x="371" y="632"/>
    </contour>
  </outline>
</glyph>
<glyph name="twodeva" format="2">
  <advance width="551"/>
  <unicode hex="0968"/>
  <outline>
    <contour>
      <point x="202" y="282" type="curve"/>
      <point x="211" y="233" type="line"/>
      <point x="271" y="183"/>
      <point x="338" y="102"/>
      <point x="413" y="-12" type="curve"/>
      <point x="477" y="33" type="line"/>
      <point x="432" y="101"/>
      <point x="356" y="201"/>
      <point x="286" y="260" type="curve"/>
      <point x="277" y="274" type="line"/>
      <point x="222" y="318"/>
      <point x="197" y="329"/>
      <point x="168" y="329" type="curve" smooth="yes"/>
      <point x="131" y="329"/>
      <point x="104" y="309"/>
      <point x="104" y="270" type="curve" smooth="yes"/>
      <point x="104" y="229"/>
      <point x="140" y="204"/>
      <point x="187" y="204" type="curve" smooth="yes"/>
      <point x="332" y="204"/>
      <point x="443" y="301"/>
      <point x="443" y="440" type="curve" smooth="yes"/>
      <point x="443" y="569"/>
      <point x="357" y="632"/>
      <point x="247" y="632" type="curve" smooth="yes"/>
      <point x="189" y="632"/>
      <point x="133" y="620"/>
      <point x="84" y="595" type="curve"/>
      <point x="110" y="526" type="line"/>
      <point x="161" y="551"/>
      <point x="196" y="561"/>
      <point x="243" y="561" type="curve" smooth="yes"/>
      <point x="312" y="561"/>
      <point x="360" y="521"/>
      <point x="360" y="442" type="curve" smooth="yes"/>
      <point x="360" y="343"/>
      <point x="279" y="280"/>
    </contour>
  </outline>
</glyph>
<glyph name="threedeva" format="2">
  <advance width="551"/>
  <unicode hex="0969"/>
  <outline>
    <contour>
      <point x="227" y="161" type="curve"/>
      <point x="226" y="116" type="line"/>
      <point x="274" y="76"/>
      <point x="319" y="15"/>
      <point x="377" y="-67" type="curve"/>
      <point x="442" y="-25" type="line"/>
      <point x="399" y="34"/>
      <point x="342" y="99"/>
      <point x="291" y="143" type="curve"/>
      <point x="284" y="158" type="line"/>
      <point x="233" y="204"/>
      <point x="204" y="212"/>
      <point x="175" y="212" type="curve" smooth="yes"/>
      <point x="138" y="212"/>
      <point x="111" y="192"/>
      <point x="111" y="152" type="curve" smooth="yes"/>
      <point x="111" y="112"/>
      <point x="147" y="87"/>
      <point x="193" y="87" type="curve" smooth="yes"/>
      <point x="356" y="87"/>
      <point x="450" y="157"/>
      <point x="450" y="257" type="curve" smooth="yes"/>
      <point x="450" y="326"/>
      <point x="407" y="380"/>
      <point x="307" y="399" type="curve"/>
      <point x="251" y="346" type="line"/>
      <point x="326" y="347"/>
      <point x="367" y="309"/>
      <point x="367" y="260" type="curve" smooth="yes"/>
      <point x="367" y="201"/>
      <point x="324" y="166"/>
    </contour>
    <contour>
      <point x="90" y="594" type="curve"/>
      <point x="115" y="525" type="line"/>
      <point x="162" y="548"/>
      <point x="206" y="562"/>
      <point x="252" y="562" type="curve" smooth="yes"/>
      <point x="302" y="562"/>
      <point x="338" y="541"/>
      <point x="338" y="495" type="curve" smooth="yes"/>
      <point x="338" y="444"/>
      <point x="309" y="411"/>
      <point x="189" y="411" type="curve"/>
      <point x="193" y="340" type="line"/>
      <point x="247" y="340"/>
      <point x="292" y="349"/>
      <point x="327" y="364" type="curve"/>
      <point x="335" y="371" type="line"/>
      <point x="392" y="399"/>
      <point x="417" y="440"/>
      <point x="417" y="498" type="curve" smooth="yes"/>
      <point x="417" y="579"/>
      <point x="355" y="632"/>
      <point x="248" y="632" type="curve" smooth="yes"/>
      <point x="177" y="632"/>
      <point x="123" y="612"/>
    </contour>
  </outline>
</glyph>
<glyph name="fourdeva" format="2">
  <advance width="551"/>
  <unicode hex="096A"/>
  <outline>
    <contour>
      <point x="232" y="313" type="curve"/>
      <point x="267" y="274" type="line"/>
      <point x="338" y="200"/>
      <point x="348" y="167"/>
      <point x="348" y="136" type="curve" smooth="yes"/>
      <point x="348" y="97"/>
      <point x="319" y="69"/>
      <point x="274" y="69" type="curve" smooth="yes"/>
      <point x="221" y="69"/>
      <point x="200" y="102"/>
      <point x="200" y="138" type="curve" smooth="yes"/>
      <point x="200" y="167"/>
      <point x="209" y="200"/>
      <point x="278" y="270" type="curve" smooth="yes"/>
      <point x="318" y="313" type="line" smooth="yes"/>
      <point x="463" y="459"/>
      <point x="490" y="509"/>
      <point x="490" y="579" type="curve" smooth="yes"/>
      <point x="490" y="595"/>
      <point x="488" y="612"/>
      <point x="483" y="632" type="curve"/>
      <point x="399" y="617" type="line"/>
      <point x="404" y="601"/>
      <point x="406" y="588"/>
      <point x="406" y="576" type="curve" smooth="yes"/>
      <point x="406" y="535"/>
      <point x="383" y="484"/>
      <point x="263" y="363" type="curve"/>
      <point x="233" y="329" type="line"/>
      <point x="135" y="228"/>
      <point x="120" y="186"/>
      <point x="120" y="131" type="curve" smooth="yes"/>
      <point x="120" y="51"/>
      <point x="191" y="-2"/>
      <point x="277" y="-2" type="curve" smooth="yes"/>
      <point x="370" y="-2"/>
      <point x="428" y="53"/>
      <point x="428" y="127" type="curve" smooth="yes"/>
      <point x="428" y="176"/>
      <point x="422" y="229"/>
      <point x="314" y="334" type="curve"/>
      <point x="283" y="367" type="line"/>
      <point x="164" y="483"/>
      <point x="147" y="532"/>
      <point x="147" y="579" type="curve" smooth="yes"/>
      <point x="147" y="590"/>
      <point x="149" y="603"/>
      <point x="154" y="617" type="curve"/>
      <point x="69" y="632" type="line"/>
      <point x="65" y="613"/>
      <point x="62" y="595"/>
      <point x="62" y="579" type="curve" smooth="yes"/>
      <point x="62" y="516"/>
      <point x="81" y="461"/>
    </contour>
  </outline>
</glyph>
<glyph name="fivedeva" format="2">
  <advance width="551"/>
  <unicode hex="096B"/>
  <outline>
    <contour>
      <point x="477" y="-67" type="curve"/>
      <point x="549" y="-35" type="line"/>
      <point x="499" y="41"/>
      <point x="433" y="180"/>
      <point x="412" y="235" type="curve"/>
      <point x="370" y="284" type="line"/>
      <point x="343" y="278"/>
      <point x="327" y="276"/>
      <point x="308" y="276" type="curve" smooth="yes"/>
      <point x="209" y="276"/>
      <point x="164" y="323"/>
      <point x="164" y="417" type="curve" smooth="yes"/>
      <point x="164" y="486"/>
      <point x="189" y="545"/>
      <point x="227" y="611" type="curve"/>
      <point x="143" y="632" type="line"/>
      <point x="102" y="567"/>
      <point x="84" y="489"/>
      <point x="84" y="428" type="curve" smooth="yes"/>
      <point x="84" y="256"/>
      <point x="197" y="207"/>
      <point x="312" y="207" type="curve" smooth="yes"/>
      <point x="398" y="207"/>
      <point x="475" y="222"/>
      <point x="475" y="298" type="curve" smooth="yes"/>
      <point x="475" y="338"/>
      <point x="444" y="377"/>
      <point x="391" y="377" type="curve" smooth="yes"/>
      <point x="353" y="377"/>
      <point x="320" y="357"/>
      <point x="320" y="313" type="curve" smooth="yes"/>
      <point x="320" y="292"/>
      <point x="331" y="253"/>
      <point x="344" y="221" type="curve"/>
      <point x="360" y="168"/>
      <point x="429" y="15"/>
    </contour>
  </outline>
</glyph>
<glyph name="sixdeva" format="2">
  <advance width="551"/>
  <unicode hex="096C"/>
  <outline>
    <contour>
      <point x="470" y="-67" type="curve"/>
      <point x="542" y="-35" type="line"/>
      <point x="501" y="21"/>
      <point x="460" y="93"/>
      <point x="444" y="137" type="curve"/>
      <point x="387" y="182" type="line"/>
      <point x="364" y="174"/>
      <point x="348" y="174"/>
      <point x="332" y="174" type="curve" smooth="yes"/>
      <point x="265" y="174"/>
      <point x="212" y="204"/>
      <point x="212" y="266" type="curve" smooth="yes"/>
      <point x="212" y="324"/>
      <point x="257" y="352"/>
      <point x="324" y="352" type="curve" smooth="yes"/>
      <point x="346" y="352"/>
      <point x="364" y="351"/>
      <point x="377" y="350" type="curve"/>
      <point x="384" y="419" type="line"/>
      <point x="372" y="421"/>
      <point x="351" y="423"/>
      <point x="333" y="423" type="curve" smooth="yes"/>
      <point x="285" y="423"/>
      <point x="240" y="415"/>
      <point x="206" y="396" type="curve"/>
      <point x="194" y="383" type="line"/>
      <point x="151" y="357"/>
      <point x="132" y="313"/>
      <point x="132" y="272" type="curve" smooth="yes"/>
      <point x="132" y="181"/>
      <point x="202" y="104"/>
      <point x="335" y="104" type="curve" smooth="yes"/>
      <point x="417" y="104"/>
      <point x="506" y="115"/>
      <point x="506" y="196" type="curve" smooth="yes"/>
      <point x="506" y="235"/>
      <point x="475" y="274"/>
      <point x="418" y="274" type="curve" smooth="yes"/>
      <point x="384" y="274"/>
      <point x="352" y="256"/>
      <point x="352" y="210" type="curve" smooth="yes"/>
      <point x="352" y="197"/>
      <point x="356" y="166"/>
      <point x="369" y="152" type="curve"/>
      <point x="379" y="120" type="line"/>
      <point x="388" y="88"/>
      <point x="433" y="-5"/>
    </contour>
    <contour>
      <point x="240" y="348" type="curve"/>
      <point x="276" y="409" type="line"/>
      <point x="222" y="420"/>
      <point x="184" y="444"/>
      <point x="184" y="492" type="curve" smooth="yes"/>
      <point x="184" y="539"/>
      <point x="220" y="563"/>
      <point x="292" y="563" type="curve" smooth="yes"/>
      <point x="332" y="563"/>
      <point x="361" y="557"/>
      <point x="385" y="552" type="curve"/>
      <point x="391" y="622" type="line"/>
      <point x="372" y="627"/>
      <point x="322" y="632"/>
      <point x="288" y="632" type="curve" smooth="yes"/>
      <point x="181" y="632"/>
      <point x="103" y="586"/>
      <point x="103" y="501" type="curve" smooth="yes"/>
      <point x="103" y="421"/>
      <point x="157" y="372"/>
    </contour>
  </outline>
</glyph>
<glyph name="sevendeva" format="2">
  <advance width="551"/>
  <unicode hex="096D"/>
  <outline>
    <contour>
      <point x="512" y="270" type="curve" smooth="yes"/>
      <point x="512" y="424"/>
      <point x="438" y="539"/>
      <point x="322" y="539" type="curve" smooth="yes"/>
      <point x="242" y="539"/>
      <point x="193" y="491"/>
      <point x="193" y="420" type="curve" smooth="yes"/>
      <point x="193" y="343"/>
      <point x="252" y="282"/>
      <point x="384" y="272" type="curve"/>
      <point x="401" y="342" type="line"/>
      <point x="296" y="348"/>
      <point x="269" y="381"/>
      <point x="269" y="418" type="curve" smooth="yes"/>
      <point x="269" y="448"/>
      <point x="289" y="468"/>
      <point x="322" y="468" type="curve" smooth="yes"/>
      <point x="393" y="468"/>
      <point x="432" y="376"/>
      <point x="432" y="275" type="curve" smooth="yes"/>
      <point x="432" y="181"/>
      <point x="411" y="123"/>
      <point x="330" y="123" type="curve" smooth="yes"/>
      <point x="197" y="123"/>
      <point x="142" y="291"/>
      <point x="118" y="588" type="curve"/>
      <point x="38" y="573" type="line"/>
      <point x="76" y="166"/>
      <point x="171" y="49"/>
      <point x="334" y="49" type="curve" smooth="yes"/>
      <point x="438" y="49"/>
      <point x="512" y="114"/>
    </contour>
  </outline>
</glyph>
<glyph name="eightdeva" format="2">
  <advance width="551"/>
  <unicode hex="096E"/>
  <outline>
    <contour>
      <point x="273" y="0" type="curve" smooth="yes"/>
      <point x="366" y="0"/>
      <point x="440" y="32"/>
      <point x="501" y="68" type="curve"/>
      <point x="465" y="142" type="line"/>
      <point x="396" y="97"/>
      <point x="336" y="74"/>
      <point x="268" y="74" type="curve" smooth="yes"/>
      <point x="204" y="74"/>
      <point x="154" y="100"/>
      <point x="154" y="168" type="curve" smooth="yes"/>
      <point x="154" y="213"/>
      <point x="172" y="250"/>
      <point x="233" y="324" type="curve" smooth="yes"/>
      <point x="444" y="579" type="line"/>
      <point x="382" y="632" type="line"/>
      <point x="180" y="388" type="line" smooth="yes"/>
      <point x="96" y="288"/>
      <point x="72" y="233"/>
      <point x="72" y="171" type="curve" smooth="yes"/>
      <point x="72" y="53"/>
      <point x="171" y="0"/>
    </contour>
  </outline>
</glyph>
<glyph name="ninedeva" format="2">
  <advance width="551"/>
  <unicode hex="096F"/>
  <outline>
    <contour>
      <point x="71" y="470" type="curve" smooth="yes"/>
      <point x="71" y="411"/>
      <point x="92" y="361"/>
      <point x="166" y="300" type="curve" smooth="yes"/>
      <point x="404" y="103" type="line" smooth="yes"/>
      <point x="435" y="77"/>
      <point x="444" y="61"/>
      <point x="444" y="34" type="curve" smooth="yes"/>
      <point x="444" y="9"/>
      <point x="434" y="-10"/>
      <point x="416" y="-30" type="curve"/>
      <point x="480" y="-79" type="line"/>
      <point x="509" y="-40"/>
      <point x="527" y="-8"/>
      <point x="527" y="34" type="curve" smooth="yes"/>
      <point x="527" y="81"/>
      <point x="508" y="119"/>
      <point x="460" y="158" type="curve" smooth="yes"/>
      <point x="317" y="274" type="line" smooth="yes"/>
      <point x="294" y="293"/>
      <point x="271" y="307"/>
      <point x="254" y="317" type="curve"/>
      <point x="205" y="309" type="line"/>
      <point x="217" y="306"/>
      <point x="232" y="304"/>
      <point x="242" y="304" type="curve"/>
      <point x="347" y="308"/>
      <point x="407" y="369"/>
      <point x="407" y="465" type="curve" smooth="yes"/>
      <point x="407" y="563"/>
      <point x="342" y="632"/>
      <point x="240" y="632" type="curve" smooth="yes"/>
      <point x="136" y="632"/>
      <point x="71" y="560"/>
    </contour>
    <contour>
      <point x="151" y="464" type="curve" smooth="yes"/>
      <point x="151" y="522"/>
      <point x="188" y="561"/>
      <point x="240" y="561" type="curve" smooth="yes"/>
      <point x="292" y="561"/>
      <point x="326" y="522"/>
      <point x="326" y="467" type="curve" smooth="yes"/>
      <point x="326" y="411"/>
      <point x="292" y="371"/>
      <point x="237" y="371" type="curve" smooth="yes"/>
      <point x="186" y="371"/>
      <point x="151" y="408"/>
    </contour>
  </outline>
</glyph>
<glyph name="abbreviationsigndeva" format="2">
  <advance width="426"/>
  <unicode hex="0970"/>
  <outline>
    <contour>
      <point x="213" y="279" type="curve" smooth="yes"/>
      <point x="298" y="279"/>
      <point x="361" y="341"/>
      <point x="361" y="419" type="curve"/>
      <point x="361" y="498"/>
      <point x="298" y="558"/>
      <point x="213" y="558" type="curve" smooth="yes"/>
      <point x="124" y="558"/>
      <point x="64" y="494"/>
      <point x="64" y="419" type="curve" smooth="yes"/>
      <point x="64" y="337"/>
      <point x="131" y="279"/>
    </contour>
    <contour>
      <point x="213" y="345" type="curve" smooth="yes"/>
      <point x="168" y="345"/>
      <point x="134" y="375"/>
      <point x="134" y="419" type="curve" smooth="yes"/>
      <point x="134" y="459"/>
      <point x="164" y="492"/>
      <point x="213" y="492" type="curve" smooth="yes"/>
      <point x="259" y="492"/>
      <point x="291" y="461"/>
      <point x="291" y="419" type="curve"/>
      <point x="291" y="375"/>
      <point x="259" y="345"/>
    </contour>
  </outline>
</glyph>
<glyph name="uni0971" format="2">
  <advance width="317"/>
  <unicode hex="0971"/>
  <outline>
    <contour>
      <point x="105" y="590" type="curve" smooth="yes"/>
      <point x="105" y="556"/>
      <point x="131" y="528"/>
      <point x="164" y="528" type="curve" smooth="yes"/>
      <point x="196" y="528"/>
      <point x="222" y="556"/>
      <point x="222" y="590" type="curve" smooth="yes"/>
      <point x="222" y="624"/>
      <point x="196" y="651"/>
      <point x="164" y="651" type="curve" smooth="yes"/>
      <point x="131" y="651"/>
      <point x="105" y="624"/>
    </contour>
  </outline>
</glyph>
<glyph name="marwariddadeva" format="2">
  <advance width="555"/>
  <unicode hex="0978"/>
  <outline>
    <contour>
      <point x="208" y="551" type="line"/>
      <point x="569" y="551" type="line"/>
      <point x="569" y="622" type="line"/>
      <point x="0" y="622" type="line"/>
      <point x="0" y="551" type="line"/>
      <point x="127" y="551" type="line"/>
      <point x="127" y="376" type="line"/>
      <point x="140" y="327" type="line"/>
      <point x="183" y="346"/>
      <point x="235" y="357"/>
      <point x="293" y="357" type="curve" smooth="yes"/>
      <point x="400" y="357"/>
      <point x="428" y="309"/>
      <point x="428" y="234" type="curve" smooth="yes"/>
      <point x="428" y="176"/>
      <point x="405" y="114"/>
      <point x="372" y="70" type="curve"/>
      <point x="444" y="29" type="line"/>
      <point x="489" y="98"/>
      <point x="509" y="171"/>
      <point x="509" y="235" type="curve" smooth="yes"/>
      <point x="509" y="354"/>
      <point x="446" y="427"/>
      <point x="291" y="427" type="curve" smooth="yes"/>
      <point x="252" y="427"/>
      <point x="215" y="423"/>
      <point x="177" y="416" type="curve"/>
      <point x="156" y="414" type="line"/>
      <point x="66" y="395"/>
      <point x="41" y="375"/>
      <point x="41" y="333" type="curve" smooth="yes"/>
      <point x="41" y="287"/>
      <point x="108" y="212"/>
      <point x="160" y="212" type="curve" smooth="yes"/>
      <point x="190" y="212"/>
      <point x="208" y="233"/>
      <point x="208" y="266" type="curve" smooth="yes"/>
    </contour>
  </outline>
</glyph>
<glyph name="zhadeva" format="2">
  <advance width="742"/>
  <unicode hex="0979"/>
  <outline>
    <contour>
      <point x="653" y="551" type="line"/>
      <point x="757" y="551" type="line"/>
      <point x="757" y="622" type="line"/>
      <point x="0" y="622" type="line"/>
      <point x="0" y="551" type="line"/>
      <point x="572" y="551" type="line"/>
      <point x="572" y="465" type="line"/>
      <point x="302" y="465" type="line"/>
      <point x="273" y="401" type="line"/>
      <point x="333" y="366"/>
      <point x="379" y="317"/>
      <point x="379" y="264" type="curve" smooth="yes"/>
      <point x="379" y="215"/>
      <point x="349" y="197"/>
      <point x="306" y="197" type="curve" smooth="yes"/>
      <point x="228" y="197"/>
      <point x="163" y="283"/>
      <point x="102" y="450" type="curve"/>
      <point x="31" y="425" type="line"/>
      <point x="115" y="201"/>
      <point x="204" y="123"/>
      <point x="310" y="123" type="curve" smooth="yes"/>
      <point x="390" y="123"/>
      <point x="458" y="165"/>
      <point x="458" y="253" type="curve" smooth="yes"/>
      <point x="458" y="314"/>
      <point x="418" y="372"/>
      <point x="362" y="409" type="curve"/>
      <point x="369" y="398" type="line"/>
      <point x="381" y="395"/>
      <point x="400" y="394"/>
      <point x="435" y="394" type="curve" smooth="yes"/>
      <point x="572" y="394" type="line"/>
      <point x="572" y="0" type="line"/>
      <point x="653" y="0" type="line"/>
    </contour>
    <contour>
      <point x="256" y="-35" type="curve" smooth="yes"/>
      <point x="256" y="-64"/>
      <point x="278" y="-87"/>
      <point x="306" y="-87" type="curve" smooth="yes"/>
      <point x="333" y="-87"/>
      <point x="355" y="-64"/>
      <point x="355" y="-35" type="curve" smooth="yes"/>
      <point x="355" y="-6"/>
      <point x="333" y="17"/>
      <point x="306" y="17" type="curve" smooth="yes"/>
      <point x="278" y="17"/>
      <point x="256" y="-6"/>
    </contour>
    <contour>
      <point x="349" y="55" type="curve" smooth="yes"/>
      <point x="349" y="26"/>
      <point x="371" y="2"/>
      <point x="398" y="2" type="curve" smooth="yes"/>
      <point x="426" y="2"/>
      <point x="448" y="26"/>
      <point x="448" y="55" type="curve" smooth="yes"/>
      <point x="448" y="83"/>
      <point x="426" y="107"/>
      <point x="398" y="107" type="curve" smooth="yes"/>
      <point x="371" y="107"/>
      <point x="349" y="83"/>
    </contour>
    <contour>
      <point x="163" y="55" type="curve" smooth="yes"/>
      <point x="163" y="26"/>
      <point x="186" y="2"/>
      <point x="213" y="2" type="curve" smooth="yes"/>
      <point x="240" y="2"/>
      <point x="263" y="26"/>
      <point x="263" y="55" type="curve" smooth="yes"/>
      <point x="263" y="83"/>
      <point x="240" y="107"/>
      <point x="213" y="107" type="curve" smooth="yes"/>
      <point x="186" y="107"/>
      <point x="163" y="83"/>
    </contour>
  </outline>
</glyph>
<glyph name="heavyyadeva" format="2">
  <advance width="580"/>
  <unicode hex="097A"/>
  <outline>
    <contour>
      <point x="491" y="551" type="line"/>
      <point x="595" y="551" type="line"/>
      <point x="595" y="622" type="line"/>
      <point x="0" y="622" type="line"/>
      <point x="0" y="551" type="line"/>
      <point x="148" y="551" type="line"/>
      <point x="114" y="562" type="line"/>
      <point x="135" y="538"/>
      <point x="160" y="500"/>
      <point x="160" y="457" type="curve" smooth="yes"/>
      <point x="160" y="398"/>
      <point x="121" y="370"/>
      <point x="38" y="353" type="curve"/>
      <point x="57" y="220"/>
      <point x="133" y="132"/>
      <point x="253" y="132" type="curve" smooth="yes"/>
      <point x="331" y="132"/>
      <point x="389" y="162"/>
      <point x="426" y="191" type="curve"/>
      <point x="410" y="216" type="line"/>
      <point x="410" y="0" type="line"/>
      <point x="491" y="0" type="line"/>
    </contour>
    <contour>
      <point x="181" y="551" type="line"/>
      <point x="410" y="551" type="line"/>
      <point x="410" y="233" type="line"/>
      <point x="425" y="283" type="line"/>
      <point x="388" y="246"/>
      <point x="341" y="203"/>
      <point x="259" y="203" type="curve" smooth="yes"/>
      <point x="184" y="203"/>
      <point x="145" y="246"/>
      <point x="119" y="330" type="curve"/>
      <point x="99" y="293" type="line"/>
      <point x="185" y="310"/>
      <point x="227" y="356"/>
      <point x="232" y="422" type="curve"/>
      <point x="235" y="445" type="line"/>
      <point x="235" y="482"/>
      <point x="231" y="511"/>
      <point x="208" y="556" type="curve"/>
    </contour>
    <contour>
      <point x="419" y="266" type="line"/>
      <point x="210" y="531" type="line"/>
      <point x="170" y="487" type="line"/>
      <point x="196" y="448"/>
      <point x="238" y="389"/>
      <point x="273" y="346" type="curve" smooth="yes"/>
      <point x="372" y="226" type="line"/>
    </contour>
  </outline>
</glyph>
<glyph name="gabardeva" format="2">
  <advance width="563"/>
  <unicode hex="097B"/>
  <outline>
    <contour>
      <point x="208" y="551" type="line"/>
      <point x="394" y="551" type="line"/>
      <point x="394" y="0" type="line"/>
      <point x="474" y="0" type="line"/>
      <point x="474" y="551" type="line"/>
      <point x="578" y="551" type="line"/>
      <point x="578" y="622" type="line"/>
      <point x="0" y="622" type="line"/>
      <point x="0" y="551" type="line"/>
      <point x="128" y="551" type="line"/>
      <point x="128" y="378" type="line"/>
      <point x="102" y="378" type="line" smooth="yes"/>
      <point x="57" y="378"/>
      <point x="41" y="358"/>
      <point x="41" y="327" type="curve" smooth="yes"/>
      <point x="41" y="271"/>
      <point x="108" y="198"/>
      <point x="160" y="198" type="curve" smooth="yes"/>
      <point x="190" y="198"/>
      <point x="208" y="219"/>
      <point x="208" y="253" type="curve" smooth="yes"/>
    </contour>
    <contour>
      <point x="82" y="71" type="line"/>
      <point x="82" y="0" type="line"/>
      <point x="437" y="0" type="line"/>
      <point x="437" y="71" type="line"/>
    </contour>
  </outline>
</glyph>
<glyph name="jabardeva" format="2">
  <advance width="723"/>
  <unicode hex="097C"/>
  <outline>
    <contour>
      <point x="633" y="551" type="line"/>
      <point x="737" y="551" type="line"/>
      <point x="737" y="622" type="line"/>
      <point x="0" y="622" type="line"/>
      <point x="0" y="551" type="line"/>
      <point x="553" y="551" type="line"/>
      <point x="553" y="465" type="line"/>
      <point x="302" y="465" type="line"/>
      <point x="273" y="401" type="line"/>
      <point x="333" y="366"/>
      <point x="379" y="317"/>
      <point x="379" y="264" type="curve" smooth="yes"/>
      <point x="379" y="215"/>
      <point x="349" y="197"/>
      <point x="306" y="197" type="curve" smooth="yes"/>
      <point x="228" y="197"/>
      <point x="163" y="283"/>
      <point x="102" y="450" type="curve"/>
      <point x="31" y="425" type="line"/>
      <point x="115" y="201"/>
      <point x="204" y="123"/>
      <point x="310" y="123" type="curve" smooth="yes"/>
      <point x="390" y="123"/>
      <point x="458" y="165"/>
      <point x="458" y="253" type="curve" smooth="yes"/>
      <point x="458" y="314"/>
      <point x="418" y="372"/>
      <point x="362" y="409" type="curve"/>
      <point x="369" y="398" type="line"/>
      <point x="381" y="395"/>
      <point x="400" y="394"/>
      <point x="435" y="394" type="curve" smooth="yes"/>
      <point x="553" y="394" type="line"/>
      <point x="553" y="0" type="line"/>
      <point x="633" y="0" type="line"/>
    </contour>
    <contour>
      <point x="82" y="71" type="line"/>
      <point x="82" y="0" type="line"/>
      <point x="585" y="0" type="line"/>
      <point x="585" y="71" type="line"/>
    </contour>
  </outline>
</glyph>
<glyph name="uni097D" format="2">
  <advance width="469"/>
  <unicode hex="097D"/>
  <outline>
    <contour>
      <point x="222" y="632" type="curve" smooth="yes"/>
      <point x="162" y="632"/>
      <point x="105" y="615"/>
      <point x="63" y="598" type="curve"/>
      <point x="88" y="528" type="line"/>
      <point x="129" y="547"/>
      <point x="164" y="561"/>
      <point x="223" y="561" type="curve" smooth="yes"/>
      <point x="283" y="561"/>
      <point x="339" y="525"/>
      <point x="339" y="454" type="curve" smooth="yes"/>
      <point x="339" y="381"/>
      <point x="290" y="328"/>
      <point x="180" y="327" type="curve"/>
      <point x="180" y="0" type="line"/>
      <point x="260" y="0" type="line"/>
      <point x="260" y="262" type="line"/>
      <point x="358" y="283"/>
      <point x="423" y="352"/>
      <point x="423" y="449" type="curve" smooth="yes"/>
      <point x="423" y="558"/>
      <point x="349" y="632"/>
    </contour>
  </outline>
</glyph>
<glyph name="ddabardeva" format="2">
  <advance width="577"/>
  <unicode hex="097E"/>
  <outline>
    <contour>
      <point x="358" y="266" type="curve" smooth="yes"/>
      <point x="426" y="266"/>
      <point x="453" y="246"/>
      <point x="453" y="214" type="curve" smooth="yes"/>
      <point x="453" y="174"/>
      <point x="420" y="154"/>
      <point x="337" y="154" type="curve" smooth="yes"/>
      <point x="232" y="154"/>
      <point x="154" y="194"/>
      <point x="81" y="271" type="curve"/>
      <point x="22" y="220" type="line"/>
      <point x="101" y="135"/>
      <point x="209" y="82"/>
      <point x="337" y="82" type="curve" smooth="yes"/>
      <point x="470" y="82"/>
      <point x="534" y="138"/>
      <point x="534" y="215" type="curve" smooth="yes"/>
      <point x="534" y="291"/>
      <point x="471" y="337"/>
      <point x="359" y="337" type="curve" smooth="yes"/>
      <point x="324" y="337"/>
      <point x="284" y="331"/>
      <point x="254" y="322" type="curve"/>
      <point x="234" y="334"/>
      <point x="217" y="351"/>
      <point x="217" y="374" type="curve" smooth="yes"/>
      <point x="217" y="404"/>
      <point x="242" y="410"/>
      <point x="286" y="410" type="curve" smooth="yes"/>
      <point x="482" y="410" type="line"/>
      <point x="482" y="551" type="line"/>
      <point x="592" y="551" type="line"/>
      <point x="592" y="622" type="line"/>
      <point x="0" y="622" type="line"/>
      <point x="0" y="551" type="line"/>
      <point x="401" y="551" type="line"/>
      <point x="401" y="481" type="line"/>
      <point x="301" y="481" type="line" smooth="yes"/>
      <point x="233" y="481"/>
      <point x="202" y="472"/>
      <point x="172" y="452" type="curve" smooth="yes"/>
      <point x="150" y="437"/>
      <point x="137" y="413"/>
      <point x="137" y="381" type="curve" smooth="yes"/>
      <point x="137" y="322"/>
      <point x="182" y="277"/>
      <point x="242" y="244" type="curve"/>
      <point x="273" y="257"/>
      <point x="319" y="266"/>
    </contour>
    <contour>
      <point x="62" y="71" type="line"/>
      <point x="62" y="0" type="line"/>
      <point x="531" y="0" type="line"/>
      <point x="531" y="71" type="line"/>
    </contour>
  </outline>
</glyph>
<glyph name="babardeva" format="2">
  <advance width="571"/>
  <unicode hex="097F"/>
  <outline>
    <contour>
      <point x="585" y="551" type="line"/>
      <point x="585" y="622" type="line"/>
      <point x="0" y="622" type="line"/>
      <point x="0" y="551" type="line"/>
      <point x="401" y="551" type="line"/>
      <point x="401" y="240" type="line"/>
      <point x="414" y="291" type="line"/>
      <point x="380" y="250"/>
      <point x="323" y="204"/>
      <point x="242" y="204" type="curve" smooth="yes"/>
      <point x="178" y="204"/>
      <point x="127" y="236"/>
      <point x="127" y="306" type="curve" smooth="yes"/>
      <point x="127" y="376"/>
      <point x="180" y="415"/>
      <point x="268" y="415" type="curve" smooth="yes"/>
      <point x="301" y="415"/>
      <point x="336" y="409"/>
      <point x="363" y="404" type="curve"/>
      <point x="369" y="473" type="line"/>
      <point x="347" y="479"/>
      <point x="292" y="483"/>
      <point x="265" y="483" type="curve" smooth="yes"/>
      <point x="134" y="483"/>
      <point x="46" y="420"/>
      <point x="46" y="306" type="curve" smooth="yes"/>
      <point x="46" y="204"/>
      <point x="128" y="137"/>
      <point x="241" y="137" type="curve" smooth="yes"/>
      <point x="326" y="137"/>
      <point x="379" y="168"/>
      <point x="416" y="195" type="curve"/>
      <point x="401" y="221" type="line"/>
      <point x="401" y="0" type="line"/>
      <point x="481" y="0" type="line"/>
      <point x="481" y="551" type="line"/>
    </contour>
    <contour>
      <point x="203" y="455" type="line"/>
      <point x="144" y="429" type="line"/>
      <point x="339" y="165" type="line"/>
      <point x="389" y="204" type="line"/>
    </contour>
    <contour>
      <point x="82" y="71" type="line"/>
      <point x="82" y="0" type="line"/>
      <point x="437" y="0" type="line"/>
      <point x="437" y="71" type="line"/>
    </contour>
  </outline>
</glyph>
<glyph name="uni1CD0" format="2">
  <unicode hex="1CD0"/>
  <outline>
    <contour>
      <point x="-357" y="973" type="line"/>
      <point x="-298" y="948" type="line"/>
      <point x="-185" y="1161" type="line"/>
      <point x="-58" y="948" type="line"/>
      <point x="-4" y="975" type="line"/>
      <point x="-158" y="1222" type="line"/>
      <point x="-219" y="1222" type="line"/>
    </contour>
  </outline>
</glyph>
<glyph name="uni1CD1" format="2">
  <unicode hex="1CD1"/>
  <outline>
    <contour>
      <point x="-357" y="989" type="line"/>
      <point x="-298" y="965" type="line"/>
      <point x="-185" y="1178" type="line"/>
      <point x="-58" y="965" type="line"/>
      <point x="-4" y="991" type="line"/>
      <point x="-158" y="1239" type="line"/>
      <point x="-219" y="1239" type="line"/>
    </contour>
    <contour>
      <point x="-211" y="1098" type="line"/>
      <point x="-211" y="909" type="line"/>
      <point x="-150" y="909" type="line"/>
      <point x="-150" y="1098" type="line"/>
    </contour>
  </outline>
</glyph>
<glyph name="uni1CD2" format="2">
  <unicode hex="1CD2"/>
  <outline>
    <contour>
      <point x="-344" y="1057" type="line"/>
      <point x="-344" y="990" type="line"/>
      <point x="-16" y="990" type="line"/>
      <point x="-16" y="1057" type="line"/>
    </contour>
  </outline>
</glyph>
<glyph name="uni1CD3" format="2">
  <advance width="274"/>
  <unicode hex="1CD3"/>
  <outline>
    <contour>
      <point x="189" y="896" type="line"/>
      <point x="160" y="659" type="line"/>
      <point x="213" y="659" type="line"/>
      <point x="243" y="896" type="line"/>
    </contour>
    <contour>
      <point x="79" y="896" type="line"/>
      <point x="50" y="659" type="line"/>
      <point x="104" y="659" type="line"/>
      <point x="133" y="896" type="line"/>
    </contour>
  </outline>
</glyph>
<glyph name="uni1CD4" format="2">
  <unicode hex="1CD4"/>
  <outline>
    <contour>
      <point x="-271" y="333" type="line"/>
      <point x="-271" y="262" type="line"/>
      <point x="14" y="262" type="line"/>
      <point x="14" y="333" type="line"/>
    </contour>
  </outline>
</glyph>
<glyph name="uni1CD5" format="2">
  <unicode hex="1CD5"/>
  <outline>
    <contour>
      <point x="-216" y="-65" type="curve"/>
      <point x="-280" y="-65" type="line"/>
      <point x="-282" y="-134"/>
      <point x="-298" y="-162"/>
      <point x="-334" y="-162" type="curve" smooth="yes"/>
      <point x="-367" y="-162"/>
      <point x="-387" y="-143"/>
      <point x="-389" y="-63" type="curve"/>
      <point x="-463" y="-67" type="line"/>
      <point x="-458" y="-190"/>
      <point x="-413" y="-229"/>
      <point x="-341" y="-229" type="curve" smooth="yes"/>
      <point x="-268" y="-229"/>
      <point x="-237" y="-181"/>
    </contour>
    <contour>
      <point x="-212" y="-65" type="curve"/>
      <point x="-276" y="-65" type="line"/>
      <point x="-255" y="-181"/>
      <point x="-224" y="-229"/>
      <point x="-151" y="-229" type="curve" smooth="yes"/>
      <point x="-80" y="-229"/>
      <point x="-34" y="-190"/>
      <point x="-29" y="-67" type="curve"/>
      <point x="-104" y="-63" type="line"/>
      <point x="-105" y="-143"/>
      <point x="-125" y="-162"/>
      <point x="-158" y="-162" type="curve" smooth="yes"/>
      <point x="-194" y="-162"/>
      <point x="-210" y="-134"/>
    </contour>
  </outline>
</glyph>
<glyph name="uni1CD6" format="2">
  <unicode hex="1CD6"/>
  <outline>
    <contour>
      <point x="-432" y="-55" type="line"/>
      <point x="-432" y="-232" type="line"/>
      <point x="-84" y="-232" type="line"/>
      <point x="-84" y="-163" type="line"/>
      <point x="-354" y="-163" type="line"/>
      <point x="-354" y="-55" type="line"/>
    </contour>
  </outline>
</glyph>
<glyph name="uni1CD7" format="2">
  <unicode hex="1CD7"/>
  <outline>
    <contour>
      <point x="-443" y="-145" type="curve" smooth="yes"/>
      <point x="-443" y="-179"/>
      <point x="-433" y="-209"/>
      <point x="-407" y="-229" type="curve" smooth="yes"/>
      <point x="-385" y="-247"/>
      <point x="-361" y="-258"/>
      <point x="-300" y="-258" type="curve" smooth="yes"/>
      <point x="-85" y="-258" type="line"/>
      <point x="-85" y="-189" type="line"/>
      <point x="-296" y="-189" type="line" smooth="yes"/>
      <point x="-334" y="-189"/>
      <point x="-347" y="-185"/>
      <point x="-355" y="-177" type="curve"/>
      <point x="-365" y="-170"/>
      <point x="-367" y="-159"/>
      <point x="-367" y="-148" type="curve" smooth="yes"/>
      <point x="-367" y="-116"/>
      <point x="-344" y="-105"/>
      <point x="-314" y="-105" type="curve" smooth="yes"/>
      <point x="-301" y="-105" type="line"/>
      <point x="-306" y="-34" type="line"/>
      <point x="-387" y="-34"/>
      <point x="-443" y="-74"/>
    </contour>
  </outline>
</glyph>
<glyph name="uni1CDA" format="2">
  <unicode hex="1CDA"/>
  <outline>
    <contour>
      <point x="-104" y="872" type="line"/>
      <point x="-104" y="671" type="line"/>
      <point x="-36" y="671" type="line"/>
      <point x="-36" y="872" type="line"/>
    </contour>
    <contour>
      <point x="-224" y="872" type="line"/>
      <point x="-224" y="671" type="line"/>
      <point x="-156" y="671" type="line"/>
      <point x="-156" y="872" type="line"/>
    </contour>
  </outline>
</glyph>
<glyph name="uni1CDB" format="2">
  <unicode hex="1CDB"/>
  <outline>
    <contour>
      <point x="-271" y="872" type="line"/>
      <point x="-271" y="671" type="line"/>
      <point x="-207" y="671" type="line"/>
      <point x="-207" y="872" type="line"/>
    </contour>
    <contour>
      <point x="-162" y="872" type="line"/>
      <point x="-162" y="671" type="line"/>
      <point x="-98" y="671" type="line"/>
      <point x="-98" y="872" type="line"/>
    </contour>
    <contour>
      <point x="-53" y="872" type="line"/>
      <point x="-53" y="671" type="line"/>
      <point x="11" y="671" type="line"/>
      <point x="11" y="872" type="line"/>
    </contour>
  </outline>
</glyph>
<glyph name="uni1CDD" format="2">
  <unicode hex="1CDD"/>
  <outline>
    <contour>
      <point x="-48" y="-174" type="line"/>
      <point x="-126" y="-91" type="line"/>
      <point x="-205" y="-174" type="line"/>
      <point x="-126" y="-256" type="line"/>
    </contour>
  </outline>
</glyph>
<glyph name="uni1CDE" format="2">
  <unicode hex="1CDE"/>
  <outline>
    <contour>
      <point x="-179" y="-125" type="curve" smooth="yes"/>
      <point x="-179" y="-155"/>
      <point x="-155" y="-180"/>
      <point x="-126" y="-180" type="curve" smooth="yes"/>
      <point x="-98" y="-180"/>
      <point x="-74" y="-155"/>
      <point x="-74" y="-125" type="curve" smooth="yes"/>
      <point x="-74" y="-94"/>
      <point x="-98" y="-69"/>
      <point x="-126" y="-69" type="curve" smooth="yes"/>
      <point x="-155" y="-69"/>
      <point x="-179" y="-94"/>
    </contour>
    <contour>
      <point x="-320" y="-125" type="curve" smooth="yes"/>
      <point x="-320" y="-155"/>
      <point x="-297" y="-180"/>
      <point x="-268" y="-180" type="curve" smooth="yes"/>
      <point x="-239" y="-180"/>
      <point x="-216" y="-155"/>
      <point x="-216" y="-125" type="curve" smooth="yes"/>
      <point x="-216" y="-94"/>
      <point x="-239" y="-69"/>
      <point x="-268" y="-69" type="curve" smooth="yes"/>
      <point x="-297" y="-69"/>
      <point x="-320" y="-94"/>
    </contour>
  </outline>
</glyph>
<glyph name="uni1CE0" format="2">
  <unicode hex="1CE0"/>
  <outline>
    <contour>
      <point x="41" y="673" type="curve" smooth="yes"/>
      <point x="41" y="596"/>
      <point x="99" y="553"/>
      <point x="182" y="553" type="curve" smooth="yes"/>
      <point x="197" y="553" type="line"/>
      <point x="197" y="622" type="line"/>
      <point x="183" y="622" type="line" smooth="yes"/>
      <point x="147" y="622"/>
      <point x="121" y="635"/>
      <point x="121" y="672" type="curve" smooth="yes"/>
      <point x="121" y="694"/>
      <point x="129" y="708"/>
      <point x="143" y="715" type="curve" smooth="yes"/>
      <point x="158" y="723"/>
      <point x="175" y="726"/>
      <point x="213" y="726" type="curve" smooth="yes"/>
      <point x="432" y="726" type="line"/>
      <point x="432" y="797" type="line"/>
      <point x="209" y="797" type="line" smooth="yes"/>
      <point x="141" y="797"/>
      <point x="110" y="788"/>
      <point x="82" y="768" type="curve" smooth="yes"/>
      <point x="55" y="749"/>
      <point x="41" y="718"/>
    </contour>
  </outline>
</glyph>
<glyph name="uni1CE1" format="2">
  <advance width="396"/>
  <unicode hex="1CE1"/>
  <outline>
    <contour>
      <point x="382" y="743" type="curve"/>
      <point x="438" y="792" type="line"/>
      <point x="398" y="834"/>
      <point x="354" y="855"/>
      <point x="295" y="855" type="curve" smooth="yes"/>
      <point x="200" y="855"/>
      <point x="141" y="794"/>
      <point x="141" y="686" type="curve" smooth="yes"/>
      <point x="141" y="503"/>
      <point x="183" y="302"/>
      <point x="183" y="93" type="curve" smooth="yes"/>
      <point x="183" y="-20"/>
      <point x="153" y="-89"/>
      <point x="16" y="-89" type="curve" smooth="yes"/>
      <point x="-3" y="-89"/>
      <point x="-22" y="-88"/>
      <point x="-35" y="-86" type="curve"/>
      <point x="-37" y="-161" type="line"/>
      <point x="-25" y="-163"/>
      <point x="1" y="-164"/>
      <point x="20" y="-164" type="curve" smooth="yes"/>
      <point x="220" y="-164"/>
      <point x="264" y="-49"/>
      <point x="264" y="87" type="curve" smooth="yes"/>
      <point x="264" y="335"/>
      <point x="222" y="519"/>
      <point x="222" y="680" type="curve" smooth="yes"/>
      <point x="222" y="751"/>
      <point x="251" y="782"/>
      <point x="301" y="782" type="curve" smooth="yes"/>
      <point x="333" y="782"/>
      <point x="357" y="769"/>
    </contour>
  </outline>
</glyph>
<glyph name="uni1CE2" format="2">
  <unicode hex="1CE2"/>
  <outline>
    <contour>
      <point x="-275" y="312" type="line"/>
      <point x="-275" y="240" type="line"/>
      <point x="8" y="240" type="line"/>
      <point x="8" y="312" type="line"/>
    </contour>
  </outline>
</glyph>
<glyph name="uni1CE3" format="2">
  <unicode hex="1CE3"/>
  <outline>
    <contour>
      <point x="-6" y="585" type="curve"/>
      <point x="-53" y="527" type="line"/>
      <point x="-31" y="511"/>
      <point x="-6" y="491"/>
      <point x="16" y="472" type="curve" smooth="yes"/>
      <point x="76" y="421"/>
      <point x="95" y="394"/>
      <point x="95" y="362" type="curve" smooth="yes"/>
      <point x="95" y="343"/>
      <point x="86" y="330"/>
      <point x="73" y="322" type="curve" smooth="yes"/>
      <point x="61" y="315"/>
      <point x="48" y="312"/>
      <point x="-3" y="312" type="curve" smooth="yes"/>
      <point x="-125" y="312" type="line"/>
      <point x="-125" y="241" type="line"/>
      <point x="-13" y="241" type="line" smooth="yes"/>
      <point x="71" y="241"/>
      <point x="100" y="250"/>
      <point x="126" y="267" type="curve" smooth="yes"/>
      <point x="156" y="286"/>
      <point x="174" y="314"/>
      <point x="174" y="354" type="curve" smooth="yes"/>
      <point x="174" y="406"/>
      <point x="159" y="443"/>
      <point x="83" y="511" type="curve" smooth="yes"/>
      <point x="53" y="538"/>
      <point x="26" y="561"/>
    </contour>
  </outline>
</glyph>
<glyph name="uni1CE4" format="2">
  <unicode hex="1CE4"/>
  <outline>
    <contour>
      <point x="263" y="527" type="curve"/>
      <point x="216" y="585" type="line"/>
      <point x="184" y="561"/>
      <point x="157" y="538"/>
      <point x="127" y="511" type="curve" smooth="yes"/>
      <point x="51" y="443"/>
      <point x="36" y="406"/>
      <point x="36" y="354" type="curve" smooth="yes"/>
      <point x="36" y="314"/>
      <point x="54" y="286"/>
      <point x="83" y="267" type="curve" smooth="yes"/>
      <point x="110" y="250"/>
      <point x="139" y="241"/>
      <point x="223" y="241" type="curve" smooth="yes"/>
      <point x="335" y="241" type="line"/>
      <point x="335" y="312" type="line"/>
      <point x="213" y="312" type="line" smooth="yes"/>
      <point x="162" y="312"/>
      <point x="149" y="315"/>
      <point x="137" y="322" type="curve" smooth="yes"/>
      <point x="124" y="330"/>
      <point x="115" y="343"/>
      <point x="115" y="362" type="curve" smooth="yes"/>
      <point x="115" y="394"/>
      <point x="134" y="421"/>
      <point x="194" y="472" type="curve" smooth="yes"/>
      <point x="216" y="491"/>
      <point x="241" y="511"/>
    </contour>
  </outline>
</glyph>
<glyph name="uni1CE5" format="2">
  <unicode hex="1CE5"/>
  <outline>
    <contour>
      <point x="216" y="-33" type="curve"/>
      <point x="263" y="26" type="line"/>
      <point x="241" y="42"/>
      <point x="216" y="62"/>
      <point x="194" y="81" type="curve" smooth="yes"/>
      <point x="134" y="131"/>
      <point x="115" y="159"/>
      <point x="115" y="191" type="curve" smooth="yes"/>
      <point x="115" y="210"/>
      <point x="124" y="223"/>
      <point x="137" y="230" type="curve" smooth="yes"/>
      <point x="149" y="237"/>
      <point x="162" y="241"/>
      <point x="213" y="241" type="curve" smooth="yes"/>
      <point x="335" y="241" type="line"/>
      <point x="335" y="312" type="line"/>
      <point x="223" y="312" type="line" smooth="yes"/>
      <point x="139" y="312"/>
      <point x="110" y="303"/>
      <point x="83" y="286" type="curve" smooth="yes"/>
      <point x="54" y="267"/>
      <point x="36" y="238"/>
      <point x="36" y="199" type="curve" smooth="yes"/>
      <point x="36" y="147"/>
      <point x="51" y="110"/>
      <point x="127" y="42" type="curve" smooth="yes"/>
      <point x="157" y="15"/>
      <point x="184" y="-8"/>
    </contour>
  </outline>
</glyph>
<glyph name="uni1CE6" format="2">
  <unicode hex="1CE6"/>
  <outline>
    <contour>
      <point x="-53" y="26" type="curve"/>
      <point x="-6" y="-33" type="line"/>
      <point x="26" y="-8"/>
      <point x="53" y="15"/>
      <point x="83" y="42" type="curve" smooth="yes"/>
      <point x="159" y="110"/>
      <point x="174" y="147"/>
      <point x="174" y="199" type="curve" smooth="yes"/>
      <point x="174" y="238"/>
      <point x="156" y="267"/>
      <point x="126" y="286" type="curve" smooth="yes"/>
      <point x="100" y="303"/>
      <point x="71" y="312"/>
      <point x="-13" y="312" type="curve" smooth="yes"/>
      <point x="-125" y="312" type="line"/>
      <point x="-125" y="241" type="line"/>
      <point x="-3" y="241" type="line" smooth="yes"/>
      <point x="48" y="241"/>
      <point x="61" y="237"/>
      <point x="73" y="230" type="curve" smooth="yes"/>
      <point x="86" y="223"/>
      <point x="95" y="210"/>
      <point x="95" y="191" type="curve" smooth="yes"/>
      <point x="95" y="159"/>
      <point x="76" y="131"/>
      <point x="16" y="81" type="curve" smooth="yes"/>
      <point x="-6" y="62"/>
      <point x="-31" y="42"/>
    </contour>
  </outline>
</glyph>
<glyph name="uni1CE7" format="2">
  <unicode hex="1CE7"/>
  <outline>
    <contour>
      <point x="-125" y="312" type="line"/>
      <point x="-125" y="241" type="line"/>
      <point x="-13" y="241" type="line" smooth="yes"/>
      <point x="71" y="241"/>
      <point x="100" y="250"/>
      <point x="126" y="267" type="curve" smooth="yes"/>
      <point x="156" y="286"/>
      <point x="174" y="314"/>
      <point x="174" y="354" type="curve" smooth="yes"/>
      <point x="174" y="408"/>
      <point x="156" y="445"/>
      <point x="74" y="513" type="curve" smooth="yes"/>
      <point x="8" y="567"/>
      <point x="-12" y="594"/>
      <point x="-12" y="635" type="curve" smooth="yes"/>
      <point x="-12" y="668"/>
      <point x="9" y="694"/>
      <point x="53" y="694" type="curve" smooth="yes"/>
      <point x="106" y="694"/>
      <point x="142" y="657"/>
      <point x="183" y="590" type="curve"/>
      <point x="249" y="623" type="line"/>
      <point x="186" y="728"/>
      <point x="130" y="765"/>
      <point x="50" y="765" type="curve" smooth="yes"/>
      <point x="-35" y="765"/>
      <point x="-91" y="710"/>
      <point x="-91" y="637" type="curve" smooth="yes"/>
      <point x="-91" y="570"/>
      <point x="-62" y="530"/>
      <point x="24" y="458" type="curve" smooth="yes"/>
      <point x="78" y="414"/>
      <point x="95" y="394"/>
      <point x="95" y="362" type="curve" smooth="yes"/>
      <point x="95" y="343"/>
      <point x="86" y="330"/>
      <point x="73" y="322" type="curve" smooth="yes"/>
      <point x="61" y="315"/>
      <point x="48" y="312"/>
      <point x="-3" y="312" type="curve" smooth="yes"/>
    </contour>
  </outline>
</glyph>
<glyph name="uni1CE8" format="2">
  <unicode hex="1CE8"/>
  <outline>
    <contour>
      <point x="340" y="241" type="line"/>
      <point x="340" y="312" type="line"/>
      <point x="228" y="312" type="line" smooth="yes"/>
      <point x="144" y="312"/>
      <point x="115" y="303"/>
      <point x="88" y="286" type="curve" smooth="yes"/>
      <point x="59" y="267"/>
      <point x="41" y="238"/>
      <point x="41" y="199" type="curve" smooth="yes"/>
      <point x="41" y="145"/>
      <point x="59" y="107"/>
      <point x="141" y="40" type="curve" smooth="yes"/>
      <point x="207" y="-15"/>
      <point x="227" y="-41"/>
      <point x="227" y="-83" type="curve" smooth="yes"/>
      <point x="227" y="-115"/>
      <point x="206" y="-141"/>
      <point x="162" y="-141" type="curve" smooth="yes"/>
      <point x="109" y="-141"/>
      <point x="73" y="-104"/>
      <point x="32" y="-37" type="curve"/>
      <point x="-34" y="-70" type="line"/>
      <point x="29" y="-175"/>
      <point x="84" y="-212"/>
      <point x="165" y="-212" type="curve" smooth="yes"/>
      <point x="250" y="-212"/>
      <point x="306" y="-157"/>
      <point x="306" y="-84" type="curve" smooth="yes"/>
      <point x="306" y="-18"/>
      <point x="277" y="22"/>
      <point x="190" y="94" type="curve" smooth="yes"/>
      <point x="137" y="139"/>
      <point x="120" y="159"/>
      <point x="120" y="191" type="curve" smooth="yes"/>
      <point x="120" y="210"/>
      <point x="128" y="223"/>
      <point x="142" y="230" type="curve" smooth="yes"/>
      <point x="154" y="237"/>
      <point x="167" y="241"/>
      <point x="218" y="241" type="curve" smooth="yes"/>
    </contour>
  </outline>
</glyph>
<glyph name="uni1CE9" format="2">
  <advance width="798"/>
  <unicode hex="1CE9"/>
  <outline>
    <contour>
      <point x="405" y="0" type="curve" smooth="yes"/>
      <point x="635" y="0"/>
      <point x="751" y="137"/>
      <point x="751" y="347" type="curve" smooth="yes"/>
      <point x="751" y="532"/>
      <point x="672" y="632"/>
      <point x="561" y="632" type="curve" smooth="yes"/>
      <point x="478" y="632"/>
      <point x="427" y="583"/>
      <point x="427" y="504" type="curve" smooth="yes"/>
      <point x="427" y="426"/>
      <point x="483" y="367"/>
      <point x="589" y="367" type="curve" smooth="yes"/>
      <point x="604" y="367"/>
      <point x="625" y="368"/>
      <point x="643" y="373" type="curve"/>
      <point x="633" y="441" type="line"/>
      <point x="621" y="438"/>
      <point x="611" y="436"/>
      <point x="596" y="436" type="curve" smooth="yes"/>
      <point x="526" y="436"/>
      <point x="498" y="465"/>
      <point x="498" y="503" type="curve" smooth="yes"/>
      <point x="498" y="542"/>
      <point x="523" y="564"/>
      <point x="563" y="564" type="curve" smooth="yes"/>
      <point x="631" y="564"/>
      <point x="671" y="484"/>
      <point x="671" y="355" type="curve" smooth="yes"/>
      <point x="671" y="351" type="line" smooth="yes"/>
      <point x="671" y="208"/>
      <point x="605" y="74"/>
      <point x="396" y="74" type="curve" smooth="yes"/>
      <point x="208" y="74"/>
      <point x="132" y="197"/>
      <point x="132" y="340" type="curve" smooth="yes"/>
      <point x="132" y="347" type="line" smooth="yes"/>
      <point x="132" y="485"/>
      <point x="174" y="564"/>
      <point x="243" y="564" type="curve" smooth="yes"/>
      <point x="278" y="564"/>
      <point x="305" y="542"/>
      <point x="305" y="503" type="curve" smooth="yes"/>
      <point x="305" y="463"/>
      <point x="275" y="436"/>
      <point x="212" y="436" type="curve" smooth="yes"/>
      <point x="197" y="436"/>
      <point x="184" y="438"/>
      <point x="172" y="441" type="curve"/>
      <point x="159" y="376" type="line"/>
      <point x="167" y="372"/>
      <point x="189" y="367"/>
      <point x="217" y="367" type="curve" smooth="yes"/>
      <point x="325" y="367"/>
      <point x="375" y="426"/>
      <point x="375" y="504" type="curve" smooth="yes"/>
      <point x="375" y="578"/>
      <point x="327" y="632"/>
      <point x="247" y="632" type="curve" smooth="yes"/>
      <point x="132" y="632"/>
      <point x="51" y="534"/>
      <point x="51" y="350" type="curve" smooth="yes"/>
      <point x="51" y="146"/>
      <point x="166" y="0"/>
    </contour>
  </outline>
</glyph>
<glyph name="uni1CEA" format="2">
  <advance width="748"/>
  <unicode hex="1CEA"/>
  <outline>
    <contour>
      <point x="374" y="0" type="curve" smooth="yes"/>
      <point x="573" y="0"/>
      <point x="653" y="86"/>
      <point x="653" y="197" type="curve" smooth="yes"/>
      <point x="653" y="273"/>
      <point x="606" y="329"/>
      <point x="562" y="371" type="curve" smooth="yes"/>
      <point x="516" y="414"/>
      <point x="498" y="444"/>
      <point x="498" y="487" type="curve" smooth="yes"/>
      <point x="498" y="538"/>
      <point x="535" y="568"/>
      <point x="583" y="568" type="curve" smooth="yes"/>
      <point x="621" y="568"/>
      <point x="636" y="548"/>
      <point x="636" y="518" type="curve" smooth="yes"/>
      <point x="636" y="484"/>
      <point x="611" y="462"/>
      <point x="552" y="458" type="curve"/>
      <point x="562" y="388" type="line"/>
      <point x="680" y="400"/>
      <point x="710" y="461"/>
      <point x="710" y="514" type="curve" smooth="yes"/>
      <point x="710" y="583"/>
      <point x="667" y="632"/>
      <point x="580" y="632" type="curve" smooth="yes"/>
      <point x="462" y="632"/>
      <point x="420" y="557"/>
      <point x="420" y="496" type="curve" smooth="yes"/>
      <point x="420" y="425"/>
      <point x="440" y="384"/>
      <point x="504" y="324" type="curve" smooth="yes"/>
      <point x="556" y="275"/>
      <point x="573" y="248"/>
      <point x="573" y="200" type="curve" smooth="yes"/>
      <point x="573" y="149"/>
      <point x="531" y="74"/>
      <point x="374" y="74" type="curve" smooth="yes"/>
      <point x="222" y="74"/>
      <point x="180" y="141"/>
      <point x="180" y="197" type="curve" smooth="yes"/>
      <point x="180" y="245"/>
      <point x="198" y="274"/>
      <point x="243" y="317" type="curve" smooth="yes"/>
      <point x="308" y="379"/>
      <point x="333" y="425"/>
      <point x="333" y="489" type="curve" smooth="yes"/>
      <point x="333" y="548"/>
      <point x="298" y="632"/>
      <point x="175" y="632" type="curve" smooth="yes"/>
      <point x="93" y="632"/>
      <point x="42" y="586"/>
      <point x="42" y="520" type="curve" smooth="yes"/>
      <point x="42" y="463"/>
      <point x="75" y="402"/>
      <point x="191" y="389" type="curve"/>
      <point x="201" y="458" type="line"/>
      <point x="142" y="462"/>
      <point x="117" y="484"/>
      <point x="117" y="518" type="curve" smooth="yes"/>
      <point x="117" y="548"/>
      <point x="136" y="568"/>
      <point x="177" y="568" type="curve" smooth="yes"/>
      <point x="220" y="568"/>
      <point x="255" y="538"/>
      <point x="255" y="493" type="curve" smooth="yes"/>
      <point x="255" y="444"/>
      <point x="234" y="415"/>
      <point x="193" y="375" type="curve" smooth="yes"/>
      <point x="137" y="320"/>
      <point x="100" y="277"/>
      <point x="100" y="199" type="curve" smooth="yes"/>
      <point x="100" y="86"/>
      <point x="184" y="0"/>
    </contour>
  </outline>
</glyph>
<glyph name="uni1CEB" format="2">
  <advance width="751"/>
  <unicode hex="1CEB"/>
  <outline>
    <contour>
      <point x="373" y="0" type="curve" smooth="yes"/>
      <point x="592" y="0"/>
      <point x="709" y="122"/>
      <point x="709" y="324" type="curve" smooth="yes"/>
      <point x="709" y="483"/>
      <point x="630" y="574"/>
      <point x="519" y="574" type="curve" smooth="yes"/>
      <point x="436" y="574"/>
      <point x="385" y="525"/>
      <point x="385" y="446" type="curve" smooth="yes"/>
      <point x="385" y="368"/>
      <point x="441" y="309"/>
      <point x="547" y="309" type="curve" smooth="yes"/>
      <point x="569" y="309"/>
      <point x="584" y="311"/>
      <point x="601" y="315" type="curve"/>
      <point x="589" y="382" type="line"/>
      <point x="580" y="379"/>
      <point x="567" y="378"/>
      <point x="553" y="378" type="curve" smooth="yes"/>
      <point x="484" y="378"/>
      <point x="456" y="407"/>
      <point x="456" y="445" type="curve" smooth="yes"/>
      <point x="456" y="483"/>
      <point x="481" y="506"/>
      <point x="521" y="506" type="curve" smooth="yes"/>
      <point x="589" y="506"/>
      <point x="629" y="431"/>
      <point x="629" y="328" type="curve" smooth="yes"/>
      <point x="629" y="173"/>
      <point x="550" y="74"/>
      <point x="368" y="74" type="curve" smooth="yes"/>
      <point x="222" y="74"/>
      <point x="180" y="141"/>
      <point x="180" y="197" type="curve" smooth="yes"/>
      <point x="180" y="245"/>
      <point x="198" y="274"/>
      <point x="243" y="317" type="curve" smooth="yes"/>
      <point x="308" y="379"/>
      <point x="333" y="425"/>
      <point x="333" y="489" type="curve" smooth="yes"/>
      <point x="333" y="548"/>
      <point x="298" y="632"/>
      <point x="175" y="632" type="curve" smooth="yes"/>
      <point x="93" y="632"/>
      <point x="42" y="586"/>
      <point x="42" y="520" type="curve" smooth="yes"/>
      <point x="42" y="463"/>
      <point x="75" y="402"/>
      <point x="191" y="389" type="curve"/>
      <point x="201" y="458" type="line"/>
      <point x="142" y="462"/>
      <point x="117" y="484"/>
      <point x="117" y="518" type="curve" smooth="yes"/>
      <point x="117" y="548"/>
      <point x="136" y="568"/>
      <point x="177" y="568" type="curve" smooth="yes"/>
      <point x="220" y="568"/>
      <point x="255" y="538"/>
      <point x="255" y="493" type="curve" smooth="yes"/>
      <point x="255" y="444"/>
      <point x="234" y="415"/>
      <point x="193" y="375" type="curve" smooth="yes"/>
      <point x="137" y="320"/>
      <point x="100" y="277"/>
      <point x="100" y="199" type="curve" smooth="yes"/>
      <point x="100" y="86"/>
      <point x="184" y="0"/>
    </contour>
  </outline>
</glyph>
<glyph name="uni1CEC" format="2">
  <advance width="828"/>
  <unicode hex="1CEC"/>
  <outline>
    <contour>
      <point x="590" y="341" type="curve" smooth="yes"/>
      <point x="590" y="183"/>
      <point x="522" y="74"/>
      <point x="354" y="74" type="curve" smooth="yes"/>
      <point x="229" y="74"/>
      <point x="180" y="141"/>
      <point x="180" y="197" type="curve" smooth="yes"/>
      <point x="180" y="245"/>
      <point x="198" y="274"/>
      <point x="243" y="317" type="curve" smooth="yes"/>
      <point x="308" y="379"/>
      <point x="333" y="425"/>
      <point x="333" y="488" type="curve" smooth="yes"/>
      <point x="333" y="548"/>
      <point x="298" y="632"/>
      <point x="175" y="632" type="curve" smooth="yes"/>
      <point x="93" y="632"/>
      <point x="42" y="586"/>
      <point x="42" y="520" type="curve" smooth="yes"/>
      <point x="42" y="463"/>
      <point x="75" y="402"/>
      <point x="191" y="389" type="curve"/>
      <point x="201" y="458" type="line"/>
      <point x="142" y="462"/>
      <point x="117" y="484"/>
      <point x="117" y="518" type="curve" smooth="yes"/>
      <point x="117" y="548"/>
      <point x="136" y="568"/>
      <point x="177" y="568" type="curve" smooth="yes"/>
      <point x="220" y="568"/>
      <point x="255" y="538"/>
      <point x="255" y="493" type="curve" smooth="yes"/>
      <point x="255" y="444"/>
      <point x="234" y="415"/>
      <point x="193" y="375" type="curve" smooth="yes"/>
      <point x="137" y="320"/>
      <point x="100" y="277"/>
      <point x="100" y="199" type="curve" smooth="yes"/>
      <point x="100" y="86"/>
      <point x="190" y="0"/>
      <point x="360" y="0" type="curve" smooth="yes"/>
      <point x="555" y="0"/>
      <point x="667" y="123"/>
      <point x="667" y="327" type="curve" smooth="yes"/>
      <point x="667" y="516"/>
      <point x="590" y="574"/>
      <point x="504" y="574" type="curve" smooth="yes"/>
      <point x="425" y="574"/>
      <point x="374" y="526"/>
      <point x="374" y="454" type="curve" smooth="yes"/>
      <point x="374" y="369"/>
      <point x="423" y="309"/>
      <point x="630" y="270" type="curve"/>
      <point x="696" y="254"/>
      <point x="723" y="231"/>
      <point x="723" y="172" type="curve" smooth="yes"/>
      <point x="723" y="127"/>
      <point x="697" y="82"/>
      <point x="668" y="52" type="curve"/>
      <point x="740" y="11" type="line"/>
      <point x="786" y="65"/>
      <point x="803" y="126"/>
      <point x="803" y="178" type="curve" smooth="yes"/>
      <point x="803" y="273"/>
      <point x="746" y="315"/>
      <point x="641" y="337" type="curve"/>
      <point x="470" y="362"/>
      <point x="450" y="413"/>
      <point x="450" y="452" type="curve" smooth="yes"/>
      <point x="450" y="485"/>
      <point x="475" y="506"/>
      <point x="506" y="506" type="curve" smooth="yes"/>
      <point x="563" y="506"/>
      <point x="590" y="448"/>
    </contour>
  </outline>
</glyph>
<glyph name="uni1CED" format="2">
  <unicode hex="1CED"/>
  <outline>
    <contour>
      <point x="-169" y="-93" type="line"/>
      <point x="59" y="-258" type="line"/>
      <point x="104" y="-198" type="line"/>
      <point x="-124" y="-33" type="line"/>
    </contour>
  </outline>
</glyph>
<glyph name="uni1CEE" format="2">
  <advance width="539"/>
  <unicode hex="1CEE"/>
  <outline>
    <contour>
      <point x="310" y="0" type="curve" smooth="yes"/>
      <point x="402" y="0"/>
      <point x="485" y="31"/>
      <point x="485" y="100" type="curve" smooth="yes"/>
      <point x="485" y="130"/>
      <point x="465" y="158"/>
      <point x="427" y="158" type="curve" smooth="yes"/>
      <point x="393" y="158"/>
      <point x="370" y="138"/>
      <point x="370" y="104" type="curve" smooth="yes"/>
      <point x="370" y="92"/>
      <point x="372" y="83"/>
      <point x="376" y="76" type="curve"/>
      <point x="375" y="80" type="line"/>
      <point x="358" y="73"/>
      <point x="338" y="70"/>
      <point x="311" y="70" type="curve" smooth="yes"/>
      <point x="227" y="70"/>
      <point x="181" y="111"/>
      <point x="181" y="190" type="curve" smooth="yes"/>
      <point x="181" y="272"/>
      <point x="247" y="307"/>
      <point x="322" y="307" type="curve" smooth="yes"/>
      <point x="330" y="307"/>
      <point x="337" y="306"/>
      <point x="345" y="306" type="curve"/>
      <point x="358" y="377" type="line"/>
      <point x="347" y="378"/>
      <point x="333" y="379"/>
      <point x="320" y="379" type="curve" smooth="yes"/>
      <point x="183" y="379"/>
      <point x="100" y="295"/>
      <point x="100" y="190" type="curve" smooth="yes"/>
      <point x="100" y="79"/>
      <point x="178" y="0"/>
    </contour>
    <contour>
      <point x="178" y="309" type="curve"/>
      <point x="232" y="361" type="line"/>
      <point x="162" y="396"/>
      <point x="137" y="433"/>
      <point x="137" y="479" type="curve" smooth="yes"/>
      <point x="137" y="524"/>
      <point x="171" y="561"/>
      <point x="256" y="561" type="curve" smooth="yes"/>
      <point x="287" y="561"/>
      <point x="320" y="555"/>
      <point x="341" y="549" type="curve"/>
      <point x="355" y="619" type="line"/>
      <point x="332" y="626"/>
      <point x="288" y="632"/>
      <point x="246" y="632" type="curve" smooth="yes"/>
      <point x="112" y="632"/>
      <point x="56" y="561"/>
      <point x="56" y="483" type="curve" smooth="yes"/>
      <point x="56" y="399"/>
      <point x="110" y="348"/>
    </contour>
    <contour>
      <point x="459" y="284" type="curve" smooth="yes"/>
      <point x="489" y="284"/>
      <point x="514" y="310"/>
      <point x="514" y="342" type="curve" smooth="yes"/>
      <point x="514" y="375"/>
      <point x="489" y="400"/>
      <point x="459" y="400" type="curve" smooth="yes"/>
      <point x="429" y="400"/>
      <point x="404" y="375"/>
      <point x="404" y="342" type="curve" smooth="yes"/>
      <point x="404" y="310"/>
      <point x="429" y="284"/>
    </contour>
  </outline>
</glyph>
<glyph name="uni1CEF" format="2">
  <advance width="460"/>
  <unicode hex="1CEF"/>
  <outline>
    <contour>
      <point x="422" y="287" type="curve"/>
      <point x="400" y="354" type="line"/>
      <point x="357" y="337"/>
      <point x="321" y="331"/>
      <point x="278" y="331" type="curve" smooth="yes"/>
      <point x="198" y="331"/>
      <point x="140" y="364"/>
      <point x="140" y="444" type="curve" smooth="yes"/>
      <point x="140" y="520"/>
      <point x="198" y="560"/>
      <point x="300" y="560" type="curve" smooth="yes"/>
      <point x="328" y="560"/>
      <point x="360" y="558"/>
      <point x="391" y="551" type="curve"/>
      <point x="396" y="624" type="line"/>
      <point x="375" y="629"/>
      <point x="334" y="632"/>
      <point x="300" y="632" type="curve" smooth="yes"/>
      <point x="153" y="632"/>
      <point x="58" y="565"/>
      <point x="58" y="444" type="curve" smooth="yes"/>
      <point x="58" y="349"/>
      <point x="129" y="283"/>
      <point x="230" y="270" type="curve" smooth="yes"/>
      <point x="246" y="268"/>
      <point x="260" y="264"/>
      <point x="276" y="264" type="curve" smooth="yes"/>
      <point x="321" y="264"/>
      <point x="373" y="271"/>
    </contour>
    <contour>
      <point x="359" y="287" type="line"/>
      <point x="265" y="312" type="line"/>
      <point x="154" y="283"/>
      <point x="89" y="224"/>
      <point x="89" y="138" type="curve" smooth="yes"/>
      <point x="89" y="31"/>
      <point x="165" y="-12"/>
      <point x="248" y="-12" type="curve" smooth="yes"/>
      <point x="336" y="-12"/>
      <point x="378" y="31"/>
      <point x="378" y="91" type="curve" smooth="yes"/>
      <point x="378" y="164"/>
      <point x="329" y="204"/>
      <point x="239" y="207" type="curve"/>
      <point x="229" y="139" type="line"/>
      <point x="284" y="139"/>
      <point x="311" y="122"/>
      <point x="311" y="94" type="curve" smooth="yes"/>
      <point x="311" y="69"/>
      <point x="291" y="52"/>
      <point x="250" y="52" type="curve" smooth="yes"/>
      <point x="204" y="52"/>
      <point x="167" y="78"/>
      <point x="167" y="132" type="curve" smooth="yes"/>
      <point x="167" y="208"/>
      <point x="229" y="255"/>
      <point x="354" y="271" type="curve"/>
    </contour>
    <contour>
      <point x="237" y="446" type="curve" smooth="yes"/>
      <point x="237" y="416"/>
      <point x="260" y="391"/>
      <point x="289" y="391" type="curve" smooth="yes"/>
      <point x="318" y="391"/>
      <point x="341" y="416"/>
      <point x="341" y="446" type="curve" smooth="yes"/>
      <point x="341" y="477"/>
      <point x="318" y="501"/>
      <point x="289" y="501" type="curve" smooth="yes"/>
      <point x="260" y="501"/>
      <point x="237" y="477"/>
    </contour>
  </outline>
</glyph>
<glyph name="uni1CF0" format="2">
  <advance width="543"/>
  <unicode hex="1CF0"/>
  <outline>
    <contour>
      <point x="294" y="271" type="curve" smooth="yes"/>
      <point x="318" y="271" type="line"/>
      <point x="325" y="293"/>
      <point x="332" y="315"/>
      <point x="332" y="340" type="curve" smooth="yes"/>
      <point x="332" y="377"/>
      <point x="313" y="408"/>
      <point x="273" y="443" type="curve" smooth="yes"/>
      <point x="236" y="475"/>
      <point x="213" y="498"/>
      <point x="213" y="525" type="curve" smooth="yes"/>
      <point x="213" y="546"/>
      <point x="227" y="562"/>
      <point x="255" y="562" type="curve" smooth="yes"/>
      <point x="294" y="562"/>
      <point x="317" y="538"/>
      <point x="349" y="495" type="curve"/>
      <point x="413" y="528" type="line"/>
      <point x="373" y="587"/>
      <point x="333" y="632"/>
      <point x="255" y="632" type="curve" smooth="yes"/>
      <point x="180" y="632"/>
      <point x="135" y="586"/>
      <point x="135" y="530" type="curve" smooth="yes"/>
      <point x="135" y="473"/>
      <point x="164" y="439"/>
      <point x="206" y="403" type="curve" smooth="yes"/>
      <point x="238" y="375"/>
      <point x="251" y="358"/>
      <point x="251" y="343" type="curve" smooth="yes"/>
      <point x="251" y="340"/>
      <point x="251" y="338"/>
      <point x="250" y="335" type="curve"/>
      <point x="265" y="341" type="line"/>
      <point x="147" y="341"/>
      <point x="41" y="282"/>
      <point x="41" y="178" type="curve" smooth="yes"/>
      <point x="41" y="58"/>
      <point x="142" y="0"/>
      <point x="271" y="0" type="curve" smooth="yes"/>
      <point x="386" y="0"/>
      <point x="494" y="44"/>
      <point x="494" y="164" type="curve" smooth="yes"/>
      <point x="494" y="241"/>
      <point x="428" y="314"/>
      <point x="306" y="340" type="curve"/>
      <point x="309" y="300" type="line"/>
      <point x="298" y="271" type="line"/>
      <point x="373" y="256"/>
      <point x="414" y="211"/>
      <point x="414" y="164" type="curve" smooth="yes"/>
      <point x="414" y="100"/>
      <point x="353" y="71"/>
      <point x="268" y="71" type="curve" smooth="yes"/>
      <point x="192" y="71"/>
      <point x="121" y="99"/>
      <point x="121" y="170" type="curve" smooth="yes"/>
      <point x="121" y="238"/>
      <point x="189" y="271"/>
    </contour>
    <contour>
      <point x="383" y="406" type="curve" smooth="yes"/>
      <point x="383" y="374"/>
      <point x="408" y="348"/>
      <point x="438" y="348" type="curve" smooth="yes"/>
      <point x="469" y="348"/>
      <point x="494" y="374"/>
      <point x="494" y="406" type="curve" smooth="yes"/>
      <point x="494" y="438"/>
      <point x="469" y="464"/>
      <point x="438" y="464" type="curve" smooth="yes"/>
      <point x="408" y="464"/>
      <point x="383" y="438"/>
    </contour>
  </outline>
</glyph>
<glyph name="uni1CF1" format="2">
  <advance width="503"/>
  <unicode hex="1CF1"/>
  <outline>
    <contour>
      <point x="243" y="26" type="curve"/>
      <point x="290" y="-33" type="line"/>
      <point x="322" y="-8"/>
      <point x="349" y="15"/>
      <point x="379" y="42" type="curve" smooth="yes"/>
      <point x="455" y="110"/>
      <point x="470" y="147"/>
      <point x="470" y="199" type="curve" smooth="yes"/>
      <point x="470" y="238"/>
      <point x="452" y="267"/>
      <point x="423" y="286" type="curve" smooth="yes"/>
      <point x="396" y="303"/>
      <point x="368" y="312"/>
      <point x="284" y="312" type="curve" smooth="yes"/>
      <point x="232" y="312" type="line"/>
      <point x="232" y="241" type="line"/>
      <point x="293" y="241" type="line" smooth="yes"/>
      <point x="345" y="241"/>
      <point x="357" y="237"/>
      <point x="369" y="230" type="curve" smooth="yes"/>
      <point x="383" y="223"/>
      <point x="391" y="210"/>
      <point x="391" y="191" type="curve" smooth="yes"/>
      <point x="391" y="159"/>
      <point x="373" y="131"/>
      <point x="313" y="81" type="curve" smooth="yes"/>
      <point x="290" y="62"/>
      <point x="266" y="42"/>
    </contour>
    <contour>
      <point x="101" y="118" type="curve" smooth="yes"/>
      <point x="101" y="83"/>
      <point x="129" y="54"/>
      <point x="162" y="54" type="curve" smooth="yes"/>
      <point x="195" y="54"/>
      <point x="223" y="83"/>
      <point x="223" y="118" type="curve" smooth="yes"/>
      <point x="223" y="153"/>
      <point x="195" y="182"/>
      <point x="162" y="182" type="curve" smooth="yes"/>
      <point x="129" y="182"/>
      <point x="101" y="153"/>
    </contour>
    <contour>
      <point x="263" y="527" type="curve"/>
      <point x="216" y="585" type="line"/>
      <point x="184" y="561"/>
      <point x="157" y="538"/>
      <point x="127" y="511" type="curve" smooth="yes"/>
      <point x="51" y="443"/>
      <point x="36" y="406"/>
      <point x="36" y="354" type="curve" smooth="yes"/>
      <point x="36" y="314"/>
      <point x="54" y="286"/>
      <point x="83" y="267" type="curve" smooth="yes"/>
      <point x="110" y="250"/>
      <point x="139" y="241"/>
      <point x="223" y="241" type="curve" smooth="yes"/>
      <point x="266" y="241" type="line"/>
      <point x="266" y="312" type="line"/>
      <point x="213" y="312" type="line" smooth="yes"/>
      <point x="162" y="312"/>
      <point x="149" y="315"/>
      <point x="137" y="322" type="curve" smooth="yes"/>
      <point x="124" y="330"/>
      <point x="115" y="343"/>
      <point x="115" y="362" type="curve" smooth="yes"/>
      <point x="115" y="394"/>
      <point x="134" y="421"/>
      <point x="194" y="472" type="curve" smooth="yes"/>
      <point x="216" y="491"/>
      <point x="241" y="511"/>
    </contour>
    <contour>
      <point x="283" y="435" type="curve" smooth="yes"/>
      <point x="283" y="400"/>
      <point x="311" y="371"/>
      <point x="344" y="371" type="curve" smooth="yes"/>
      <point x="377" y="371"/>
      <point x="405" y="400"/>
      <point x="405" y="435" type="curve" smooth="yes"/>
      <point x="405" y="470"/>
      <point x="377" y="499"/>
      <point x="344" y="499" type="curve" smooth="yes"/>
      <point x="311" y="499"/>
      <point x="283" y="470"/>
    </contour>
  </outline>
</glyph>
<glyph name="uni1CF2" format="2">
  <advance width="514"/>
  <unicode hex="1CF2"/>
  <outline>
    <contour>
      <point x="263" y="292" type="curve" smooth="yes"/>
      <point x="370" y="292"/>
      <point x="445" y="346"/>
      <point x="480" y="484" type="curve"/>
      <point x="401" y="511" type="line"/>
      <point x="379" y="419"/>
      <point x="344" y="364"/>
      <point x="266" y="364" type="curve" smooth="yes"/>
      <point x="196" y="364"/>
      <point x="150" y="411"/>
      <point x="113" y="509" type="curve"/>
      <point x="39" y="484" type="line"/>
      <point x="83" y="357"/>
      <point x="163" y="292"/>
    </contour>
    <contour>
      <point x="256" y="261" type="curve" smooth="yes"/>
      <point x="149" y="261"/>
      <point x="74" y="207"/>
      <point x="39" y="69" type="curve"/>
      <point x="118" y="42" type="line"/>
      <point x="140" y="133"/>
      <point x="175" y="188"/>
      <point x="253" y="188" type="curve" smooth="yes"/>
      <point x="323" y="188"/>
      <point x="369" y="142"/>
      <point x="406" y="43" type="curve"/>
      <point x="480" y="69" type="line"/>
      <point x="436" y="195"/>
      <point x="356" y="261"/>
    </contour>
  </outline>
</glyph>
<glyph name="uni1CF3" format="2">
  <advance width="542"/>
  <unicode hex="1CF3"/>
  <outline>
    <contour>
      <point x="39" y="129" type="curve"/>
      <point x="65" y="56" type="line"/>
      <point x="200" y="88"/>
      <point x="257" y="170"/>
      <point x="257" y="270" type="curve" smooth="yes"/>
      <point x="257" y="371"/>
      <point x="197" y="450"/>
      <point x="65" y="498" type="curve"/>
      <point x="40" y="429" type="line"/>
      <point x="136" y="391"/>
      <point x="180" y="343"/>
      <point x="180" y="270" type="curve" smooth="yes"/>
      <point x="180" y="190"/>
      <point x="126" y="153"/>
    </contour>
    <contour>
      <point x="509" y="424" type="curve"/>
      <point x="482" y="498" type="line"/>
      <point x="346" y="464"/>
      <point x="290" y="383"/>
      <point x="290" y="283" type="curve" smooth="yes"/>
      <point x="290" y="183"/>
      <point x="351" y="104"/>
      <point x="482" y="56" type="curve"/>
      <point x="507" y="124" type="line"/>
      <point x="412" y="162"/>
      <point x="367" y="210"/>
      <point x="367" y="284" type="curve" smooth="yes"/>
      <point x="367" y="363"/>
      <point x="421" y="400"/>
    </contour>
  </outline>
</glyph>
<glyph name="uni1CF4" format="2">
  <unicode hex="1CF4"/>
  <outline>
    <contour>
      <point x="69" y="1135" type="curve"/>
      <point x="-7" y="1161" type="line"/>
      <point x="-29" y="1071"/>
      <point x="-59" y="1021"/>
      <point x="-135" y="1021" type="curve" smooth="yes"/>
      <point x="-206" y="1021"/>
      <point x="-246" y="1065"/>
      <point x="-281" y="1159" type="curve"/>
      <point x="-352" y="1135" type="line"/>
      <point x="-307" y="1009"/>
      <point x="-234" y="952"/>
      <point x="-138" y="952" type="curve" smooth="yes"/>
      <point x="-36" y="952"/>
      <point x="38" y="1001"/>
    </contour>
  </outline>
</glyph>
<glyph name="uni1CF6" format="2">
  <advance width="554"/>
  <unicode hex="1CF6"/>
  <outline>
    <contour>
      <point x="180" y="291" type="curve" smooth="yes"/>
      <point x="256" y="291"/>
      <point x="289" y="342"/>
      <point x="311" y="464" type="curve"/>
      <point x="243" y="464" type="line"/>
      <point x="241" y="392"/>
      <point x="226" y="361"/>
      <point x="187" y="361" type="curve" smooth="yes"/>
      <point x="152" y="361"/>
      <point x="130" y="382"/>
      <point x="128" y="467" type="curve"/>
      <point x="51" y="463" type="line"/>
      <point x="57" y="333"/>
      <point x="104" y="291"/>
    </contour>
    <contour>
      <point x="379" y="291" type="curve" smooth="yes"/>
      <point x="454" y="291"/>
      <point x="502" y="333"/>
      <point x="507" y="463" type="curve"/>
      <point x="430" y="467" type="line"/>
      <point x="428" y="382"/>
      <point x="406" y="361"/>
      <point x="372" y="361" type="curve" smooth="yes"/>
      <point x="333" y="361"/>
      <point x="317" y="392"/>
      <point x="315" y="464" type="curve"/>
      <point x="248" y="464" type="line"/>
      <point x="270" y="342"/>
      <point x="302" y="291"/>
    </contour>
    <contour>
      <point x="180" y="262" type="curve" smooth="yes"/>
      <point x="104" y="262"/>
      <point x="57" y="219"/>
      <point x="51" y="90" type="curve"/>
      <point x="128" y="86" type="line"/>
      <point x="130" y="170"/>
      <point x="152" y="191"/>
      <point x="187" y="191" type="curve" smooth="yes"/>
      <point x="226" y="191"/>
      <point x="241" y="161"/>
      <point x="244" y="89" type="curve"/>
      <point x="311" y="89" type="line"/>
      <point x="289" y="210"/>
      <point x="256" y="262"/>
    </contour>
    <contour>
      <point x="379" y="262" type="curve" smooth="yes"/>
      <point x="302" y="262"/>
      <point x="270" y="210"/>
      <point x="248" y="89" type="curve"/>
      <point x="315" y="89" type="line"/>
      <point x="317" y="161"/>
      <point x="333" y="191"/>
      <point x="372" y="191" type="curve" smooth="yes"/>
      <point x="406" y="191"/>
      <point x="428" y="170"/>
      <point x="430" y="86" type="curve"/>
      <point x="507" y="90" type="line"/>
      <point x="502" y="219"/>
      <point x="454" y="262"/>
    </contour>
  </outline>
</glyph>
<glyph name="quoteright.deva" format="2">
  <advance width="312"/>
  <unicode hex="2019"/>
  <outline>
    <contour>
      <point x="227" y="729" type="line"/>
      <point x="130" y="729" type="line"/>
      <point x="120" y="661"/>
      <point x="99" y="563"/>
      <point x="81" y="484" type="curve"/>
      <point x="148" y="484" type="line"/>
      <point x="181" y="557"/>
      <point x="216" y="647"/>
      <point x="234" y="718" type="curve"/>
    </contour>
  </outline>
</glyph>
<glyph name="ellipsis.deva" format="2">
  <advance width="804"/>
  <unicode hex="2026"/>
  <outline>
    <contour>
      <point x="402" y="-14" type="curve" smooth="yes"/>
      <point x="436" y="-14"/>
      <point x="464" y="6"/>
      <point x="464" y="54" type="curve" smooth="yes"/>
      <point x="464" y="104"/>
      <point x="436" y="122"/>
      <point x="402" y="122" type="curve" smooth="yes"/>
      <point x="367" y="122"/>
      <point x="340" y="104"/>
      <point x="340" y="54" type="curve" smooth="yes"/>
      <point x="340" y="6"/>
      <point x="367" y="-14"/>
    </contour>
    <contour>
      <point x="134" y="-14" type="curve" smooth="yes"/>
      <point x="168" y="-14"/>
      <point x="196" y="6"/>
      <point x="196" y="54" type="curve" smooth="yes"/>
      <point x="196" y="104"/>
      <point x="168" y="122"/>
      <point x="134" y="122" type="curve" smooth="yes"/>
      <point x="99" y="122"/>
      <point x="72" y="104"/>
      <point x="72" y="54" type="curve" smooth="yes"/>
      <point x="72" y="6"/>
      <point x="99" y="-14"/>
    </contour>
    <contour>
      <point x="670" y="-14" type="curve" smooth="yes"/>
      <point x="704" y="-14"/>
      <point x="732" y="6"/>
      <point x="732" y="54" type="curve" smooth="yes"/>
      <point x="732" y="104"/>
      <point x="704" y="122"/>
      <point x="670" y="122" type="curve" smooth="yes"/>
      <point x="635" y="122"/>
      <point x="608" y="104"/>
      <point x="608" y="54" type="curve" smooth="yes"/>
      <point x="608" y="6"/>
      <point x="635" y="-14"/>
    </contour>
  </outline>
</glyph>
<glyph name="uni20B9.deva" format="2">
  <advance width="551"/>
  <unicode hex="20B9"/>
  <outline>
    <contour>
      <point x="494" y="551" type="line"/>
      <point x="494" y="622" type="line"/>
      <point x="72" y="622" type="line"/>
      <point x="72" y="551" type="line"/>
      <point x="138" y="551" type="line" smooth="yes"/>
      <point x="188" y="551"/>
      <point x="214" y="545"/>
      <point x="235" y="529" type="curve" smooth="yes"/>
      <point x="258" y="512"/>
      <point x="272" y="483"/>
      <point x="272" y="437" type="curve" smooth="yes"/>
      <point x="272" y="397"/>
      <point x="262" y="368"/>
      <point x="241" y="348" type="curve" smooth="yes"/>
      <point x="220" y="328"/>
      <point x="191" y="318"/>
      <point x="126" y="318" type="curve" smooth="yes"/>
      <point x="82" y="318" type="line"/>
      <point x="72" y="247" type="line"/>
      <point x="283" y="0" type="line"/>
      <point x="385" y="0" type="line"/>
      <point x="150" y="276" type="line"/>
      <point x="141" y="244" type="line"/>
      <point x="292" y="256"/>
      <point x="353" y="324"/>
      <point x="353" y="439" type="curve" smooth="yes"/>
      <point x="353" y="487"/>
      <point x="337" y="529"/>
      <point x="306" y="551" type="curve"/>
    </contour>
    <contour>
      <point x="72" y="474" type="line"/>
      <point x="72" y="402" type="line"/>
      <point x="494" y="402" type="line"/>
      <point x="494" y="474" type="line"/>
    </contour>
  </outline>
</glyph>
<glyph name="uni20F0" format="2">
  <unicode hex="20F0"/>
  <outline>
    <contour>
      <point x="-133" y="988" type="line"/>
      <point x="-81" y="959" type="line"/>
      <point x="-30" y="1066" type="line"/>
      <point x="21" y="959" type="line"/>
      <point x="73" y="988" type="line"/>
      <point x="1" y="1085" type="line"/>
      <point x="114" y="1096" type="line"/>
      <point x="106" y="1151" type="line"/>
      <point x="-11" y="1119" type="line"/>
      <point x="1" y="1237" type="line"/>
      <point x="-61" y="1237" type="line"/>
      <point x="-49" y="1119" type="line"/>
      <point x="-166" y="1151" type="line"/>
      <point x="-174" y="1096" type="line"/>
      <point x="-62" y="1085" type="line"/>
    </contour>
  </outline>
</glyph>
<glyph name="minus.deva" format="2">
  <advance width="551"/>
  <unicode hex="2212"/>
  <outline>
    <contour>
      <point x="50" y="359" type="line"/>
      <point x="50" y="286" type="line"/>
      <point x="501" y="286" type="line"/>
      <point x="501" y="359" type="line"/>
    </contour>
  </outline>
</glyph>
